<svg width="1024" height="1025" viewBox="0 0 1024 1025" fill="none" xmlns="http://www.w3.org/2000/svg">
<path d="M841.519 103.536C835.175 142.468 814.199 191.281 781.073 214.642C768.206 223.718 757.925 230.28 742.927 235.748C797.73 241.922 841.655 260.33 876.833 304.167C885.973 315.56 891.433 325.418 898.751 337.581C912.011 359.612 921.324 381.249 927.898 406.161C928.773 409.469 933.149 421.757 933.07 424.58C912.011 426.548 885.151 425.454 864.317 421.526C857.527 420.246 850.963 418.031 844.32 416.205C842.127 415.601 842.069 415.568 840.676 416.415C837.844 411.73 836.185 405.967 833.547 401.242C823.684 383.579 805.295 362.284 786.942 353.296C773.185 346.558 746.639 339.578 731.804 341.663L732.51 340.766C732.704 338.085 727.255 330.005 725.715 327.371C722.548 322.006 719.753 316.433 717.345 310.691C711.179 295.731 706.881 279.426 703.206 263.701C701.667 257.102 699.641 249.806 698.495 243.213C697.38 242.865 694.218 240.467 693.071 239.618C694.788 237.031 704.017 230.048 706.975 227.426L752.371 186.908C756.192 183.52 759.721 179.946 763.165 176.181C779.356 158.491 798.589 144.323 815.309 127.166C822.721 119.561 832.762 109.443 841.519 103.536Z" fill="#7AA647" style="fill:#7AA647;fill:color(display-p3 0.4784 0.6510 0.2784);fill-opacity:1;"/>
<path d="M698.071 242.536C710.962 247.167 762.843 290.557 776.851 301.672L861.477 368.662L911.497 407.5C916.007 411.067 928.063 420.008 931.031 424.156L933.071 424.577C911.974 426.551 885.066 425.454 864.193 421.512C857.392 420.227 850.815 418.003 844.16 416.17C841.963 415.565 841.905 415.531 840.51 416.381C837.673 411.679 836.011 405.895 833.368 401.152C823.488 383.424 805.065 362.049 786.678 353.027C772.896 346.265 746.303 339.259 731.441 341.352L732.149 340.451C732.343 337.761 726.883 329.65 725.342 327.006C722.169 321.622 719.368 316.029 716.956 310.265C710.778 295.249 706.473 278.884 702.791 263.1C701.249 256.477 699.22 249.154 698.071 242.536Z" fill="#578543" style="fill:#578543;fill:color(display-p3 0.3412 0.5216 0.2627);fill-opacity:1;"/>
<path d="M692.385 217.517C695.794 216.731 700.207 199.919 701.621 195.912C720.866 141.436 772.51 109.455 828.255 103.434C830.578 103.183 839.715 101.889 841.071 102.945L840.858 104.568C832.163 110.426 822.195 120.461 814.836 128.004C798.236 145.021 779.142 159.073 763.067 176.618C759.647 180.352 756.144 183.898 752.35 187.257L707.28 227.444C704.344 230.045 695.181 236.971 693.476 239.536C691.496 238.607 689.724 237.299 688.071 235.886C689.984 231.599 691.808 224.425 693.315 219.837C693.638 218.838 692.952 218.272 692.385 217.517Z" fill="#578543" style="fill:#578543;fill:color(display-p3 0.3412 0.5216 0.2627);fill-opacity:1;"/>
<path d="M565.071 75.5363C561.666 87.7755 545.951 107.726 538.635 119.06L495.711 186.315C489.983 195.486 485.198 205.57 479.122 214.492C469.112 229.193 460.045 246.289 449.531 260.536C447.597 243.053 447.107 216.177 451.071 199.216C455.055 182.17 463.522 155.26 472.136 140.292L471.902 139.134C474.989 138.787 486.641 121.468 489.979 117.657C506.962 98.2759 539.334 77.8333 565.071 75.5363Z" fill="#578543" style="fill:#578543;fill:color(display-p3 0.3412 0.5216 0.2627);fill-opacity:1;"/>
<path d="M593.534 146.536C593.951 138.477 594.014 133.442 593.071 125.536C596.138 131.159 599.273 139.044 601.071 145.023L600.135 145.368C598.308 141.543 597.497 137.771 595.807 133.86C595.276 138.291 595.721 142.927 593.534 146.536Z" fill="#2C671C" style="fill:#2C671C;fill:color(display-p3 0.1725 0.4039 0.1098);fill-opacity:1;"/>
<path d="M752.184 366.734C759.009 366.135 765.247 366.796 771.68 370.106C782.073 375.455 800.426 390.895 793.58 404.452C790.78 410.005 783.939 412.67 778.269 414.394C742.203 417.261 716.505 376.034 752.184 366.734Z" fill="#9EC361" style="fill:#9EC361;fill:color(display-p3 0.6196 0.7647 0.3804);fill-opacity:1;"/>
<path fill-rule="evenodd" clip-rule="evenodd" d="M557.373 0.145475C571.426 9.61125e-06 585.485 -0.0363179 599.538 0.0362854C599.899 14.7641 605.809 75.9367 609.184 90.2709C613.783 109.583 616.985 131.723 628.103 148.63C632.226 154.899 639.661 162.403 644.568 168.474C658.585 185.837 674.527 203.801 692.348 217.326C692.918 218.085 693.609 218.655 693.285 219.66C691.768 224.276 689.931 231.494 688.005 235.807C689.669 237.229 691.453 238.545 693.446 239.48C694.592 240.327 697.753 242.72 698.867 243.068C700.013 249.648 702.038 256.928 703.576 263.513C707.249 279.206 711.544 295.477 717.708 310.406C720.115 316.137 722.908 321.698 726.074 327.052C727.252 329.064 730.72 334.264 732.194 337.791C730.649 334.271 727.279 329.264 726.117 327.298C722.918 321.943 720.095 316.38 717.663 310.648C711.435 295.714 707.094 279.438 703.382 263.74C701.828 257.153 699.782 249.87 698.624 243.288C697.498 242.94 694.306 240.547 693.147 239.7C691.133 238.764 689.33 237.448 687.648 236.026C674.098 224.528 653.558 201.486 637.332 194.573C649.037 233.029 665.258 269.998 685.661 304.727C689.859 312.094 694.205 319.377 698.699 326.573C702.437 332.44 707.987 340.46 711.017 346.52C716.552 343.732 726.054 341.803 732.266 341.566L732.501 341.27C747.392 339.342 773.624 346.25 787.269 352.922C805.612 361.892 823.992 383.144 833.85 400.77C836.487 405.485 838.145 411.237 840.976 415.912L841.023 416.359C841.091 417.453 841.086 418.55 841.018 419.643C840.003 434.528 832.699 443.849 826.609 456.754C813.125 485.33 787.687 505.168 758.868 516.803C751.595 519.74 732.844 517.987 724.64 518.284C706.49 517.834 684.605 503.445 673.042 489.982C674.434 484.359 682.182 472.695 684.908 466.661C691.427 452.214 696 431.817 697.779 416.125C698.851 406.78 698.993 397.352 698.203 387.98C697.549 380.177 695.953 372.443 694.975 364.651C694.739 362.756 693.97 352.549 693.711 350.889C693.731 350.847 693.751 350.807 693.767 350.766C688.345 344.65 677.201 326.657 672.971 319.474C641.415 265.889 618.409 204.194 600.403 144.85L599.538 145.204C597.85 141.284 597.101 137.419 595.54 133.411C595.05 137.951 595.461 142.703 593.441 146.401C593.241 164.7 591.247 182.937 587.486 200.851C585.123 211.763 581.373 222.533 578.889 233.333C575.983 245.952 575.034 260.827 575.171 273.795C585.293 274.446 594.283 276.085 602.536 278.758C594.521 276.215 585.802 274.649 576.017 274.018C571.303 274.322 566.589 274.152 561.865 274.3C545.389 269.376 535.5 265.237 517.543 268.725C491.526 273.777 470.752 296.974 456.857 318.306C452.156 315.75 443.729 312.949 438.363 310.988C411.729 301.255 382.62 293.472 368.148 266.922C357.584 247.539 353.805 209.466 360.201 188.992C361.504 185.854 366.01 178.65 367.943 175.513C375.501 163.183 381.262 151.281 393.854 143.24C404.991 136.129 413.521 139.032 425.774 138.606C431.256 138.414 437.552 137.355 443.125 136.834C453.339 135.879 461.744 136.562 471.699 138.716C474.772 138.373 486.371 121.227 489.695 117.454C506.601 98.2647 538.828 78.0247 564.449 75.7505C564.978 68.4921 559.727 7.45702 557.373 0.145475ZM568.271 126.722C563.11 150.913 555.446 174.42 539.767 193.98C545.373 205.233 547.534 214.909 550.083 227.096C551.016 230.7 552.021 235.029 553.109 238.532C555.778 228.4 559.322 218.539 562.105 208.598C567.737 188.516 570.146 169.805 569.229 148.926C568.944 142.399 569.561 133.898 568.877 127.59L568.271 126.722Z" fill="#7AA647" style="fill:#7AA647;fill:color(display-p3 0.4784 0.6510 0.2784);fill-opacity:1;"/>
<path d="M429.55 157.536C436.763 157.946 440.829 159.702 446.35 164.023C446.933 165.283 447.388 166.595 447.707 167.942C451.069 181.64 430.362 192.977 418.945 195.44C412.981 195.814 409.654 195.127 404.319 192.884C398.569 186.414 398.84 178.91 404.025 172.161C410.163 164.106 419.372 158.83 429.55 157.536Z" fill="#9EC361" style="fill:#9EC361;fill:color(display-p3 0.6196 0.7647 0.3804);fill-opacity:1;"/>
<path d="M207 436.036C222.502 435.707 236.548 435.572 252.054 435.536C250.834 444.76 249.347 457.595 249.929 466.913C251.157 486.572 258.192 508.783 265.911 526.971C268.663 533.453 273.771 539.949 276.071 545.536C264.123 544.744 255.671 544.361 244.158 540.201C238.549 538.176 225.428 530.59 221.233 530.73C215.1 524.173 207.578 519.092 202.263 512.878C194.35 503.269 193.591 483.653 196.976 472.299C200.305 461.127 203.24 455.616 204.678 443.634C205.317 441.873 206.864 438.058 207 436.036Z" fill="#7AA647" style="fill:#7AA647;fill:color(display-p3 0.4784 0.6510 0.2784);fill-opacity:1;"/>
<path d="M267.843 292.003L268.157 291.761C268.265 291.486 268.374 291.212 268.482 290.937C264.374 282.778 254.459 266.898 250.776 259.484C238.737 235.251 230.274 209.458 224.116 183.279C222.004 172.429 220.989 161.29 219.424 150.37C217.627 137.819 216.737 125.409 217.187 112.729C217.236 111.346 217.377 110.444 218.382 109.536L219.588 109.83C225.511 111.201 231.735 112.289 237.507 113.933C274.814 124.44 309.293 143.155 338.414 168.705C343.404 173.118 353.845 182.64 357.359 187.896L359.729 188.608C353.343 209.058 357.117 247.087 367.664 266.447C382.113 292.967 411.176 300.741 437.767 310.462C443.124 312.421 451.537 315.219 456.23 317.773C470.104 296.465 490.845 273.294 516.821 268.248C534.749 264.765 544.622 268.898 561.071 273.817C525.802 277.513 501.035 291.583 479.261 319.084C467.905 333.428 466.906 338.592 459.721 354.536C454.017 350.682 450.605 347.814 445.463 343.259C438.372 336.788 427.107 330.532 417.891 327.603C400.276 322.006 377.62 321.936 359.966 327.557C353.731 329.542 347.296 332.939 341.489 335.915C340.412 335.508 332.194 327.659 330.234 325.991C323.684 320.027 316.03 315.429 308.976 310.162C296.754 301.037 280.883 298.553 267.843 292.003Z" fill="#5D8B40" style="fill:#5D8B40;fill:color(display-p3 0.3647 0.5451 0.2510);fill-opacity:1;"/>
<path d="M219.055 109.536C225.032 110.921 231.312 112.021 237.136 113.682C274.78 124.296 309.57 143.201 338.955 169.012C343.99 173.47 354.525 183.09 358.071 188.399C357.121 192.492 355.806 195.807 353.783 199.49C345.139 215.223 339.197 230.692 336.446 248.536C331.555 238.698 315.568 223.276 307.586 214.538C284.465 188.99 261.829 163.008 239.692 136.604C237.465 133.974 219.168 112.248 218.071 110.165L219.055 109.536Z" fill="#7AA647" style="fill:#7AA647;fill:color(display-p3 0.4784 0.6510 0.2784);fill-opacity:1;"/>
<path d="M490.438 708.536C497.887 713.262 506.289 719.509 513.841 723.714C522.162 728.345 538.185 734.303 547.5 736.898C549.721 736.534 556.161 737.234 558.942 737.255C570.369 737.34 581.733 737.166 592.727 733.729C596.464 732.561 607.765 727.288 610.918 727.746L612.564 730.614C614.258 733.482 619.95 743.024 621.09 746.081C625.93 759.049 629.015 775.469 632.062 789.163C633.719 796.615 633.202 805.63 636.071 813.198C634.822 816.019 635.293 836.207 635.073 841.065C634.085 863.189 632.663 884.593 628.032 906.329C627.53 908.692 627.107 913.523 625.883 915.028L625.742 915.065C620.886 912.534 615.361 911.513 609.334 907.76C603.343 904.04 589.203 893.051 583.396 890.619L582.465 891.588C573.987 912.928 560.955 934.832 541.53 947.531C533.836 952.563 525.486 956.82 517.472 961.341C509.442 965.93 501.417 972.004 493.089 975.824C486.793 978.714 474.804 979.845 468.542 976.435C454.327 968.688 439.374 959.504 425.104 951.715C406.839 941.753 393.77 922.965 386.136 903.782C385.835 903.034 385.55 902.282 385.282 901.524C384.213 898.056 381.48 893.335 380.039 888.867L379.238 889.477C375.227 892.593 369.699 899.245 365.158 903.05C346.915 918.333 328.768 932.085 307.108 942.1C303.242 943.89 300.456 944.442 297.071 945.821C298.355 940.653 305.678 929.001 308.524 923.407C318.952 903.024 329.62 882.767 340.523 862.642C348.383 848.301 360.685 826.923 366.738 812.066L366.145 811.509C367.473 811.109 366.933 810.94 368.441 810.856C373.639 811.456 378.867 811.74 384.099 811.709C424.027 811.63 445.23 799.494 472.744 770.927C481.797 761.528 491.261 751.718 491.241 738.055C490.92 728.356 490.437 718.209 490.438 708.536Z" fill="#608D40" style="fill:#608D40;fill:color(display-p3 0.3765 0.5529 0.2510);fill-opacity:1;"/>
<path d="M377.698 838.99C426.341 838.595 443.159 835.304 480.844 802.536C489.504 826.449 506.174 849.769 524.202 867.624C530.634 873.993 540.428 882.068 546.071 888.807C540.309 902.69 519.814 924.013 505.999 929.618C481.467 939.346 454.07 938.795 429.946 928.089C414.864 921.507 403.128 911.836 390.325 901.915C389.768 901.483 387.011 902.076 386.137 902.201C385.078 898.774 382.369 894.11 380.94 889.696L380.793 888.755C380.193 885.048 378.73 880.758 378.328 877.103C376.903 864.171 376.686 851.901 377.698 838.99Z" fill="#7AA647" style="fill:#7AA647;fill:color(display-p3 0.4784 0.6510 0.2784);fill-opacity:1;"/>
<path d="M693.448 351.536C693.646 351.995 694.502 363.504 694.752 365.53C695.728 373.331 697.318 381.075 697.97 388.887C698.758 398.271 698.617 407.71 697.548 417.066C695.774 432.778 691.215 453.198 684.716 467.663C681.998 473.704 674.273 485.383 672.886 491.012C684.413 504.492 706.233 518.899 724.328 519.349C732.507 519.051 751.202 520.806 758.453 517.866C787.184 506.216 812.545 486.354 825.987 457.745C832.059 444.824 839.341 435.491 840.353 420.588C840.421 419.494 840.426 418.395 840.358 417.3C842.726 424.663 845.96 431.676 848.615 438.931C853.712 452.85 849.147 480.657 848.516 485.548C847.886 490.438 839.953 510.224 835.731 515.084C831.509 519.943 829.008 522.019 826.744 528.033C839.341 530.935 845.475 533.918 857.066 539.227C891.754 555.125 925.764 581.043 947.088 613.158L947.093 614.204C946.446 614.638 945.831 615.114 945.137 615.417C912.295 637.402 873.888 651.125 834.599 656.381C829.722 657.034 807.235 656.522 804.987 657.536C796.61 656.381 788.039 655.716 779.73 654.257C754.77 650.126 731.24 639.787 711.288 624.192C705.503 619.648 699.874 614.899 694.413 609.968C691.471 607.306 687.548 602.997 684.288 601.062C682.723 591.899 680.063 582.287 678.373 572.759C673.063 551.338 660.205 532.298 643.883 517.748C639.721 513.607 631.844 506.994 627.071 503.965C652.824 484.81 671.404 454.844 676.615 422.936C680.319 400.233 678.717 384.067 675.28 361.576C677.992 362.034 692.311 354.449 693.448 351.536Z" fill="#608D40" style="fill:#608D40;fill:color(display-p3 0.3765 0.5529 0.2510);fill-opacity:1;"/>
<path d="M683.934 601.536C687.197 603.468 691.122 607.77 694.067 610.427C699.532 615.35 705.165 620.09 710.955 624.627C730.922 640.195 754.471 650.516 779.451 654.64C787.767 656.097 796.344 656.759 804.728 657.913C810.366 663.228 817.309 681.202 819.11 688.506C820.337 696.258 822.477 706.459 822.926 714.16C824.137 734.828 817.643 758.655 809.014 777.412C799.758 799.161 792.674 819.088 773.787 834.483C767.705 838.169 762.323 841.061 755.573 843.484C717.146 857.271 662.635 847.457 636.674 814.515C633.808 807.008 634.325 798.065 632.67 790.672C629.627 777.088 626.547 760.8 621.713 747.937C620.575 744.904 614.89 735.439 613.198 732.594C613.157 732.145 612.869 728.751 613.329 728.662C618.888 727.577 639.263 710.171 639.044 705.833L638.099 705.447C636.178 706.261 635.808 706.219 633.73 705.963L637.154 705.102C641.774 703.953 645.972 700.471 649.417 697.287C656.151 691.053 660.996 683.604 665.464 675.658C679.899 650.014 682.838 630.547 683.934 601.536Z" fill="#9EC361" style="fill:#9EC361;fill:color(display-p3 0.6196 0.7647 0.3804);fill-opacity:1;"/>
<path d="M786.605 697.546C803.277 696.958 806.126 723.495 802.908 735.705C800.958 743.095 795.261 746.546 789.379 750.007C788.282 750.407 787.563 750.855 786.436 750.215C774.343 743.361 770.776 724.38 774.448 711.572C776.164 705.582 781.706 700.221 786.605 697.546Z" fill="#D3ED60" style="fill:#D3ED60;fill:color(display-p3 0.8275 0.9294 0.3765);fill-opacity:1;"/>
<path d="M208.843 626.123C220.666 604.029 244.598 603.27 248.003 598.189L247.672 597.482C243.032 596.796 227.795 602.636 222.15 604.024C183.285 613.557 137.222 598.236 107.75 572.068C106.684 571.12 89.6154 556.302 93.7022 554.678C101.865 551.436 113.32 550.86 122.162 549.592C143.795 547.513 166.934 548.256 187.931 554.07C205.481 559.219 223.259 570.643 238.334 580.841C244.159 584.78 249.751 594.004 257.225 595.062C272.77 597.251 289.507 595.774 305.062 593.941C311.919 593.093 325.297 589.897 331.071 590.919C310.697 609.686 294.86 633.037 287.448 659.928C280.366 691.696 278.482 724.59 291.792 755.001C289.561 756.714 288.572 759.112 286.99 761.422C280.552 770.814 272.859 779.902 265.135 788.267C246.599 808.123 225.332 825.23 201.976 839.069C189.903 846.108 174.834 853.054 162.146 859.125C155.834 862.147 146.337 864.546 139.595 866.536C138.904 866.468 138.707 866.342 138.04 866.122C134.806 857.522 140.524 803.105 143.203 791.331C146.929 774.962 154.755 748.422 161.392 732.991C184.3 679.717 229.109 634.55 285.461 618.334C292.187 616.396 298.877 614.369 305.626 612.488C299.89 612.504 291.921 613.531 286.431 613.363C254.616 612.363 238.599 613.877 208.843 626.123Z" fill="#7AA647" style="fill:#7AA647;fill:color(display-p3 0.4784 0.6510 0.2784);fill-opacity:1;"/>
<path d="M140.071 866.536C140.761 862.672 143.49 860.228 145.807 857.118C148.971 852.804 152.08 848.448 155.135 844.05C162.05 834.071 168.032 823.317 175.027 813.48C196.758 782.915 217.946 752.225 238.955 721.152L264.907 682.091C267.847 677.661 281.541 655.5 286.158 655.536C287.17 657.463 286.788 657.505 286.762 660.023C279.735 691.776 277.866 724.655 291.071 755.052C288.858 756.764 287.876 759.162 286.306 761.471C279.919 770.858 272.287 779.942 264.624 788.303C246.233 808.15 225.134 825.249 201.962 839.081C189.983 846.118 175.033 853.06 162.445 859.128C156.183 862.149 146.76 864.547 140.071 866.536Z" fill="#578543" style="fill:#578543;fill:color(display-p3 0.3412 0.5216 0.2627);fill-opacity:1;"/>
<path d="M820.137 687.536C823.901 688.654 826.906 692.404 829.761 695.139C843.013 707.881 851.365 721.647 860.225 737.441C882.582 777.303 891.702 827.337 891.038 872.837C890.965 877.944 891.266 894.627 889.979 899.151L889.439 899.536C867.643 897.201 844.575 882.801 825.993 871.651C816.301 865.837 809.491 862.129 800.61 854.895C793.971 849.486 781.804 836.662 775.071 832.954C793.852 817.617 800.895 797.767 810.098 776.101C818.679 757.416 825.136 733.681 823.932 713.092C823.485 705.421 821.357 695.259 820.137 687.536Z" fill="#7AA647" style="fill:#7AA647;fill:color(display-p3 0.4784 0.6510 0.2784);fill-opacity:1;"/>
<path d="M810.292 775.536C825.486 797.975 840.033 820.607 854.287 843.531C858.551 850.391 887.409 897.666 890.071 899.536C868.155 897.191 844.96 882.724 826.274 871.523C816.529 865.682 809.682 861.957 800.751 854.69C794.075 849.257 781.841 836.374 775.071 832.649C793.955 817.242 801.038 797.301 810.292 775.536Z" fill="#578543" style="fill:#578543;fill:color(display-p3 0.3412 0.5216 0.2627);fill-opacity:1;"/>
<path d="M316.279 792.536C330.244 803.133 351.134 808.88 368.071 811.202C366.596 811.286 367.125 811.455 365.826 811.856L366.406 812.416C360.485 827.313 348.454 848.749 340.767 863.13C330.103 883.31 319.671 903.622 309.471 924.061C306.688 929.67 299.526 941.354 298.271 946.536L296.866 946.489C296.646 946.204 296.16 945.629 296.136 945.275C294.133 918.752 292.812 893.257 295.93 866.76C299.047 840.274 308.566 817.492 316.279 792.536Z" fill="#7AA647" style="fill:#7AA647;fill:color(display-p3 0.4784 0.6510 0.2784);fill-opacity:1;"/>
<path d="M693.531 613.222C689.712 610.5 686.793 608.581 683.806 607.536C683.651 611.271 683.564 614.133 683.476 616.995C682.156 625.504 681.492 634.182 679.393 642.492C670.708 673.447 658.574 691.862 613.071 728.157C613.071 730.167 620.128 752.008 625.065 760.322C630.364 774.211 633.476 797.971 636.059 813.987C637.644 820.311 666.5 838.754 673.038 840.736C681.319 842.957 690.368 847.415 698.767 848.778C713.862 851.226 755.637 847.889 769.985 836.716C774.227 835.053 786.024 824.641 787.012 820.203C787.058 818.701 790.709 817.475 789.974 816.267C779.727 816.171 766.595 816.789 757.099 817.042C739.376 819.48 715.015 816.612 705.784 813.987C676.516 800.949 664.584 774.464 654.811 745.508C653.96 742.824 652.735 738.804 653.983 737.149C660.154 728.969 667.098 721.378 673.769 713.58L673.824 713.463C677.445 705.782 681.068 698.098 685.206 689.931C687.546 685.181 689.368 680.919 691.569 675.268C698.952 659.691 698.604 644.182 699.889 628.144C699.777 623.98 699.705 620.646 699.417 616.84C698.648 615.97 698.098 615.571 697.546 615.173L697.536 615.17C696.501 614.788 695.463 614.405 693.531 613.222Z" fill="#7AA647" style="fill:#7AA647;fill:color(display-p3 0.4784 0.6510 0.2784);fill-opacity:1;"/>
</svg>
