<svg width="1024" height="1024" viewBox="0 0 1024 1024" fill="none" xmlns="http://www.w3.org/2000/svg">
<path d="M574.126 271C606.208 273.075 626.988 285.066 648.871 308.535C661.292 321.853 671.401 341.038 674.912 359.056C678.407 381.875 680.035 398.277 676.27 421.311C670.971 453.685 652.08 484.089 625.895 503.523C630.748 506.597 638.757 513.306 642.989 517.508C659.584 532.271 672.658 551.588 678.057 573.322C679.775 582.989 682.48 592.741 684.071 602.037C682.958 631.523 679.972 651.309 665.307 677.371C660.767 685.447 655.845 693.019 649.003 699.354C645.503 702.591 641.239 706.13 636.545 707.297L633.066 708.173C635.177 708.433 635.553 708.475 637.505 707.647L638.465 708.04C638.688 712.449 617.987 730.139 612.339 731.243C611.872 731.333 612.164 734.782 612.206 735.238L610.536 732.346C607.337 731.885 595.871 737.201 592.079 738.379C580.925 741.844 569.395 742.019 557.801 741.934C554.979 741.913 548.445 741.207 546.191 741.573C536.74 738.958 520.483 732.951 512.041 728.282C504.378 724.043 495.854 717.744 488.295 712.98C488.294 722.732 488.784 732.962 489.111 742.741C489.13 756.515 479.528 766.405 470.342 775.882C442.426 804.683 420.914 816.918 380.402 816.998C375.094 817.029 369.79 816.743 364.516 816.138C346.944 813.803 325.273 808.025 310.785 797.371C306.303 791.784 298.687 779.532 294.744 773.245C291.528 768.146 288.858 763.816 285.973 758.505C272.468 727.698 274.379 694.377 281.565 662.196C289.085 634.956 305.153 611.302 325.825 592.29C333.7 585.987 340.774 580.702 349.434 575.524C341.474 571.937 334.359 568.96 326.335 565.103C279.97 536.313 255.916 481.516 270.149 428.169C275.023 398.66 288.279 378.816 307.489 356.975C318.309 346.667 324.496 342.421 336.836 334.441C342.732 331.414 349.265 327.959 355.595 325.941C373.52 320.223 396.522 320.295 414.407 325.987C423.765 328.965 435.202 335.328 442.402 341.909C447.622 346.542 451.086 349.458 456.878 353.378C464.172 337.163 465.187 331.911 476.716 317.324C498.824 289.354 523.97 275.045 559.779 271.287C564.568 271.136 569.347 271.309 574.126 271Z" fill="#99BB34" style="fill:#99BB34;fill:color(display-p3 0.6000 0.7333 0.2039);fill-opacity:1;"/>
<path d="M643.222 517C659.723 531.807 672.723 551.184 678.091 572.982C679.8 582.679 682.489 592.461 684.071 601.785C682.964 631.359 679.995 651.205 665.413 677.347C660.899 685.447 656.005 693.041 649.202 699.396C645.722 702.642 641.482 706.192 636.815 707.363L633.355 708.241C630.787 708.113 618.726 710.242 614.434 710.497C585.513 712.227 562.515 710.082 537.176 694.68C531.67 691.333 527.91 687.831 522.974 684.031C502.735 668.432 488.963 648.432 483.093 623.094C477.825 600.348 479.462 574.063 487.877 552.115C489.917 546.793 494.318 539.896 497.428 534.909C536.838 549.986 582.165 550.896 620.583 531.684C629.131 527.409 636.251 523.81 643.222 517Z" fill="#AACA49" style="fill:#AACA49;fill:color(display-p3 0.6666 0.7938 0.2852);fill-opacity:1;"/>
<path d="M504.663 509.338C504.842 509.354 519.955 516.534 523.539 517.769C533.3 521.136 539.366 521.782 549.243 523.568C572.079 527.699 608.421 516.913 626.891 503C631.769 506.078 639.818 512.799 644.071 517.008C637.025 523.809 629.828 527.403 621.188 531.672C582.356 550.858 536.541 549.949 496.706 534.893C493.562 539.873 489.114 546.761 487.052 552.075C478.545 573.994 476.891 600.244 482.217 622.959C488.15 648.263 502.07 668.236 522.527 683.814C527.516 687.608 531.317 691.106 536.882 694.449C562.494 709.83 585.741 711.972 614.973 710.244C619.312 709.989 631.502 707.863 634.098 707.991C636.22 708.251 636.598 708.294 638.56 707.465L639.525 707.858C639.748 712.275 618.944 729.994 613.267 731.1C612.798 731.19 613.091 734.645 613.134 735.102L611.454 732.205C608.24 731.743 596.716 737.068 592.905 738.248C581.695 741.719 570.106 741.894 558.454 741.809C555.618 741.788 549.051 741.081 546.786 741.448C537.287 738.827 520.948 732.811 512.463 728.134C504.762 723.887 496.195 717.579 488.598 712.806C488.597 722.575 489.09 732.822 489.417 742.617C489.437 756.414 479.786 766.321 470.555 775.813C442.498 804.662 420.877 816.918 380.161 816.998C374.826 817.029 369.495 816.742 364.195 816.137C346.535 813.798 324.754 808.01 310.193 797.338C305.689 791.742 298.034 779.47 294.071 773.172C295.084 772.651 297.152 771.498 298.159 771.79C304.905 773.74 312.268 775.096 318.974 776.919C341.849 783.132 372.525 786.092 395.523 779.029C409.906 774.612 437.712 752.587 445.927 738.445C446.903 736.765 447.006 734.629 446.496 732.705C443.945 723.085 438.701 713.88 434.874 704.781C431.6 697 429.24 688.794 426.435 680.859C425.18 680.29 424.39 680.768 422.712 681.077C430.195 674.189 444.132 662.31 448.777 653.78C455.332 639.796 451.752 621.03 453.317 605.612C456.627 573.01 470.661 547.882 491.939 523.704C495.177 520.024 505.128 514.098 504.663 509.338Z" fill="#7AA647" style="fill:#7AA647;fill:color(display-p3 0.4784 0.6510 0.2784);fill-opacity:1;"/>
<path d="M375.239 511.446C363.637 511.331 353.757 511.229 343.726 508.42C300.486 482.955 287.679 462.317 270.535 427.727C262.573 438.723 263.088 480.681 273.567 503.436C299.631 555.056 336.224 570.25 353.89 576C372.072 544.879 450.878 501.5 488.071 497.234C444.36 461.013 440.294 387.381 457.575 353.087L444.36 343C431.145 360.147 417.833 429.744 436.228 476.143C428.096 492.191 386.841 511.561 375.239 511.446Z" fill="#7AA647" style="fill:#7AA647;fill:color(display-p3 0.4784 0.6510 0.2784);fill-opacity:1;"/>
<path d="M494.913 502.681C492.119 500.616 489.326 498.552 485.797 496.388C476.227 483.754 465.125 472.183 459.183 458.418C453 444.094 445.516 428.403 453.613 411.389C468.339 430.464 481.59 450.705 502.364 463.427C515.809 471.66 530.078 480.286 546.675 479.849C563.1 479.416 580.087 479.229 595.721 474.952C617.469 469.003 635.346 455.576 648.707 436.909C660.43 420.531 669.706 403.14 673.3 383.095C673.574 381.569 675.929 380.41 678.071 379C677.25 405.009 677.33 431.433 664.95 455.545C657.426 470.201 649.305 484.482 635.598 494.675C633.349 496.347 632.005 499.219 630.348 502.294C630.349 503.799 630.245 504.546 629.347 505.935C617.136 511.933 605.769 517.406 594.267 522.583C590.379 524.333 586.21 526.259 582.065 526.526C557.012 528.138 532.49 525.999 509.603 514.491C506.495 511.308 503.387 508.126 499.543 504.963C498.806 504.984 498.908 504.749 498.7 504.179C497.37 503.285 496.248 502.961 495.073 502.648C495.02 502.66 494.913 502.681 494.913 502.681Z" fill="#9EC361" style="fill:#9EC361;fill:color(display-p3 0.6196 0.7647 0.3804);fill-opacity:1;"/>
</svg>
