<svg width="1024" height="1024" viewBox="0 0 1024 1024" fill="none" xmlns="http://www.w3.org/2000/svg">
<path d="M363.637 572.147C364.161 571.401 364.697 570.659 365.242 569.928C370.753 562.577 382.394 548.694 388.546 542.946C417.336 516.056 457.542 498.54 496.196 493C500.424 495.264 503.666 497.933 507.415 500.854C508.758 501.928 510.656 503.559 512.056 504.424C512.51 509.1 502.8 514.922 499.641 518.536C478.878 542.288 465.185 566.973 461.955 598.999C460.428 614.146 463.921 632.581 457.525 646.318C452.993 654.698 439.394 666.367 432.092 673.133C411.268 691.052 368.033 706.658 341.367 714.265C336.653 715.612 324.813 718.692 320.226 719.084C318.84 719.23 316.442 720.41 315.071 721C315.878 699.108 317.226 684.985 322.841 663.657C329.105 639.854 335.826 618.677 348.561 597.229C353.725 588.531 357.519 580.412 363.637 572.147Z" fill="#578543" style="fill:#578543;fill:color(display-p3 0.3412 0.5216 0.2627);fill-opacity:1;"/>
<path d="M507.412 502C508.755 503.073 510.655 504.702 512.056 505.566C512.51 510.237 502.793 516.053 499.631 519.664C478.851 543.39 465.147 568.049 461.914 600.042C460.386 615.172 463.882 633.588 457.48 647.311C452.945 655.682 439.335 667.338 432.028 674.098C411.186 691.998 367.917 707.587 341.229 715.186C336.511 716.532 324.662 719.609 320.071 720C320.274 718.581 320.479 717.314 321.388 716.14C333.874 700.071 346.898 684.263 360.579 669.19C364.158 665.252 367.688 661.46 371.152 657.533L464.393 551.308C474.01 540.36 483.357 528.573 493.037 517.554C497.156 512.865 503.918 506.28 507.412 502Z" fill="#7AA647" style="fill:#7AA647;fill:color(display-p3 0.4784 0.6510 0.2784);fill-opacity:1;"/>
<path d="M622.609 551.023C637.973 550.492 642.78 559.228 650.37 570.985C659.083 584.468 658.679 611.526 643.053 619.998C631.232 620.18 618.436 607.19 614.625 596.488C610.793 585.738 606.28 576.274 611.291 564.779C614.09 558.37 616.035 553.954 622.609 551.023Z" fill="#D3ED60" style="fill:#D3ED60;fill:color(display-p3 0.8275 0.9294 0.3765);fill-opacity:1;"/>
<path d="M555.339 296.278C557.831 295.687 561.835 296.2 564.38 296.341C573.756 296.557 583.612 305.923 584.89 315.499C586.7 329.08 574.646 344.304 563.672 350.352C556.931 354.068 548.908 354.889 541.624 355.993C515.838 356.415 498.62 337.088 519.153 314.237C530.139 302.008 539.217 297.084 555.339 296.278Z" fill="#D3ED60" style="fill:#D3ED60;fill:color(display-p3 0.8275 0.9294 0.3765);fill-opacity:1;"/>
<path d="M367.282 347.402C377.159 345.922 386.021 348.721 394.902 352.701C395.258 354.242 395.603 355.785 395.937 357.33C397.374 363.919 398.112 368.434 393.968 374.449C386.795 384.864 374.798 391.151 362.806 393.754C340.876 395.805 321.234 385.032 338.929 361.344C345.788 352.162 356.078 348.307 367.282 347.402Z" fill="#D3ED60" style="fill:#D3ED60;fill:color(display-p3 0.8275 0.9294 0.3765);fill-opacity:1;"/>
</svg>
