<svg width="983" height="1025" viewBox="0 0 983 1025" fill="none" xmlns="http://www.w3.org/2000/svg">
<rect width="983" height="1025" fill="#126E3D" style="fill:#126E3D;fill:color(display-p3 0.0706 0.4314 0.2392);fill-opacity:1;"/>
<path fill-rule="evenodd" clip-rule="evenodd" d="M539.164 0.0537754C539.698 21.875 546.759 46.5236 551.752 67.7617C564.151 119.902 579.278 170.743 594.7 221.998C611.839 278.959 635.589 333.72 665.462 385.159C671.608 396.07 677.972 406.857 684.552 417.515L646.225 407.416C599.91 328.346 566.144 237.31 539.715 149.742L538.445 150.262C535.968 144.478 534.869 138.775 532.578 132.862C531.858 139.561 532.461 146.572 529.496 152.029C529.202 179.031 526.275 205.94 520.756 232.375C517.288 248.476 511.785 264.369 508.139 280.306C504.14 297.763 502.665 318.147 502.662 336.393L502.68 340.014C495.705 340.465 488.731 340.21 481.741 340.43C457.365 333.135 442.734 327.004 416.167 332.171L358.972 250.086C367.921 236.998 374.968 222.205 383.406 208.751L446.629 110.096C457.404 93.4705 480.548 64.2036 485.565 46.2494C486.347 35.4952 480.262 11.0489 476.779 0.2155C497.571 -3.22738e-05 518.372 -0.0537925 539.164 0.0537754ZM449.191 222.056C472.615 193.031 484.065 158.149 491.776 122.252L492.68 123.54C493.701 132.9 492.78 145.515 493.205 155.2C494.576 186.183 490.976 213.949 482.561 243.75C478.404 258.502 473.111 273.135 469.124 288.17C467.499 282.971 465.997 276.548 464.604 271.2C460.795 253.115 457.567 238.755 449.191 222.056Z" fill="#7AA647" style="fill:#7AA647;fill:color(display-p3 0.4784 0.6510 0.2784);fill-opacity:1;"/>
<path d="M326.399 153.903C356.404 139.901 381.105 140.447 412.477 150.813C430.282 156.693 448.898 169.017 460.979 183.551C475.42 202.428 485.001 216.436 492.989 239.101C504.211 270.958 502.181 307.762 488.139 338.269C478.407 359.905 451.069 387.523 428.507 395.043C418.748 398.295 412.976 400.7 402.541 402.471C398.711 403.121 381.594 404.089 381.415 404.163C381.425 404.178 381.432 404.197 381.442 404.212C298.208 402.721 262.944 325.161 261.478 285.991L261.194 285.947C259.771 267.991 258.139 262.69 261.319 243.939C267.458 207.741 283.096 182.375 313.583 161.261C317.834 158.755 322.236 156.546 326.399 153.903ZM381.442 404.212C382.462 404.23 383.49 404.241 384.525 404.236C383.733 404.796 382.917 405.393 382.074 406.02C381.983 405.335 381.781 404.726 381.442 404.212Z" fill="#608D40" style="fill:#608D40;fill:color(display-p3 0.3765 0.5529 0.2510);fill-opacity:1;"/>
<path d="M455.016 656.32C488.126 656.273 510.296 667.182 534.377 689.808C548.045 702.647 559.734 721.672 564.565 739.945C569.705 763.151 572.491 779.893 570.185 803.814C566.937 837.434 549.587 869.953 523.998 891.698C506.056 907.216 469.627 920.735 445.998 918.042C435.778 916.877 429.531 916.624 419.322 913.831C415.575 912.806 399.645 906.467 399.451 906.459C399.454 906.477 399.452 906.496 399.454 906.514C324.604 870.071 325.308 784.87 340.484 748.731L340.245 748.571C346.521 731.689 347.275 726.194 358.06 710.53C378.88 680.293 403.75 663.883 440.294 657.589C445.205 657.109 450.127 656.962 455.016 656.32ZM399.454 906.514C400.372 906.961 401.299 907.404 402.24 907.836C401.286 908.01 400.294 908.207 399.266 908.42C399.471 907.761 399.545 907.123 399.454 906.514Z" fill="#7AA647" style="fill:#7AA647;fill:color(display-p3 0.4784 0.6510 0.2784);fill-opacity:1;"/>
<path d="M637.369 327.172C667.374 313.17 692.076 313.716 723.447 324.082C741.252 329.962 759.869 342.286 771.949 356.82C786.39 375.697 795.971 389.705 803.96 412.369C815.181 444.226 813.151 481.03 799.109 511.537C789.377 533.174 762.039 560.792 739.477 568.312C729.718 571.564 723.946 573.969 713.512 575.74C709.682 576.39 692.565 577.358 692.386 577.432C692.396 577.447 692.402 577.465 692.412 577.48C609.178 575.99 573.914 498.429 572.448 459.26L572.164 459.215C570.741 441.26 569.109 435.959 572.289 417.208C578.428 381.01 594.066 355.644 624.553 334.53C628.804 332.024 633.206 329.815 637.369 327.172ZM692.412 577.48C693.432 577.499 694.46 577.509 695.495 577.505C694.704 578.065 693.887 578.662 693.044 579.289C692.953 578.604 692.751 577.995 692.412 577.48Z" fill="#7AA647" style="fill:#7AA647;fill:color(display-p3 0.4784 0.6510 0.2784);fill-opacity:1;"/>
<path d="M313.384 304.786C346.425 306.922 367.827 319.27 390.364 343.435C403.156 357.147 413.566 376.901 417.182 395.453C420.781 418.948 422.458 435.838 418.58 459.554C413.123 492.887 393.668 524.191 366.701 544.201C347.775 558.502 310.535 569.59 287.135 565.344C277.013 563.508 270.796 562.843 260.794 559.383C257.122 558.113 241.645 550.737 241.452 550.717C241.454 550.735 241.45 550.754 241.452 550.772C169.166 509.472 175.485 424.502 193.01 389.443L192.781 389.268C200.156 372.836 201.271 367.403 213.065 352.485C235.833 323.686 261.73 308.952 298.609 305.082C303.541 304.927 308.463 305.104 313.384 304.786ZM241.452 550.772C242.338 551.278 243.234 551.781 244.144 552.274C243.181 552.386 242.179 552.517 241.138 552.662C241.387 552.017 241.502 551.386 241.452 550.772Z" fill="#578543" style="fill:#578543;fill:color(display-p3 0.3412 0.5216 0.2627);fill-opacity:1;"/>
<path d="M547.342 578.348C572.995 557.411 597.075 551.878 630.031 554.228C648.733 555.559 669.804 562.938 685.081 574.063C703.71 588.819 716.434 600.047 729.738 620.059C748.43 648.188 755.49 684.366 749.36 717.386C745.233 740.75 725.505 774.233 705.477 787.059C696.814 792.608 691.808 796.355 682.127 800.633C678.573 802.203 662.217 807.342 662.062 807.458C662.075 807.47 662.086 807.486 662.099 807.498C581.044 826.479 527.833 759.944 516.804 722.331L516.518 722.358C510.734 705.301 507.852 700.562 506.335 681.604C503.408 645.006 512.346 616.577 536.722 588.627C540.229 585.154 543.954 581.933 547.342 578.348ZM662.099 807.498C663.093 807.266 664.092 807.024 665.094 806.765C664.464 807.503 663.819 808.281 663.155 809.096C662.899 808.455 662.554 807.914 662.099 807.498Z" fill="#9EC361" style="fill:#9EC361;fill:color(display-p3 0.6196 0.7647 0.3804);fill-opacity:1;"/>
<path d="M396.866 436.304C429.907 438.44 451.309 450.788 473.846 474.952C486.638 488.664 497.048 508.419 500.664 526.971C504.263 550.466 505.94 567.355 502.062 591.072C496.605 624.404 477.149 655.709 450.183 675.719C431.257 690.019 394.016 701.107 370.617 696.861C360.495 695.025 354.278 694.361 344.276 690.9C340.604 689.63 325.127 682.255 324.934 682.234C324.936 682.252 324.932 682.271 324.934 682.289C252.648 640.989 258.967 556.02 276.492 520.961L276.263 520.785C283.638 504.354 284.753 498.92 296.547 484.002C319.315 455.204 345.212 440.469 382.091 436.599C387.023 436.444 391.945 436.622 396.866 436.304ZM324.934 682.289C325.82 682.795 326.716 683.299 327.626 683.792C326.663 683.903 325.66 684.034 324.62 684.179C324.869 683.534 324.984 682.903 324.934 682.289Z" fill="#99BB62" style="fill:#99BB62;fill:color(display-p3 0.6018 0.7343 0.3835);fill-opacity:1;"/>
<path d="M517.915 273.473C550.955 275.609 572.358 287.956 594.895 312.121C607.687 325.833 618.097 345.588 621.713 364.14C625.312 387.635 626.989 404.524 623.111 428.241C617.654 461.573 598.198 492.878 571.232 512.887C552.306 527.188 515.065 538.276 491.665 534.03C481.544 532.194 475.327 531.53 465.325 528.069C461.653 526.799 446.175 519.424 445.983 519.403C445.984 519.421 445.981 519.44 445.983 519.458C373.697 478.158 380.015 393.189 397.54 358.13L397.312 357.954C404.687 341.523 405.802 336.089 417.596 321.171C440.364 292.373 466.261 277.638 503.14 273.768C508.072 273.613 512.993 273.791 517.915 273.473ZM445.983 519.458C446.869 519.964 447.765 520.468 448.675 520.961C447.712 521.072 446.709 521.203 445.669 521.348C445.917 520.703 446.033 520.072 445.983 519.458Z" fill="#99BB34" style="fill:#99BB34;fill:color(display-p3 0.6000 0.7333 0.2039);fill-opacity:1;"/>
<path d="M530.526 450.932C563.592 449.243 586.276 459.039 611.448 480.443C625.736 492.588 638.354 511.01 644.085 529.021C650.369 551.944 653.982 568.527 652.864 592.533C651.286 626.273 635.57 659.612 611.091 682.599C593.939 698.988 558.226 714.297 534.493 712.779C524.227 712.123 517.975 712.18 507.64 709.897C503.847 709.059 487.622 703.517 487.428 703.519C487.432 703.537 487.431 703.556 487.435 703.574C410.869 670.888 407.349 585.757 420.715 548.91L420.468 548.762C425.899 531.589 426.38 526.064 436.375 509.884C455.671 478.652 479.697 461.029 515.884 452.93C520.765 452.207 525.674 451.816 530.526 450.932ZM487.435 703.574C488.373 703.975 489.321 704.371 490.282 704.756C489.338 704.978 488.357 705.223 487.341 705.487C487.513 704.818 487.555 704.178 487.435 703.574Z" fill="#D3ED60" style="fill:#D3ED60;fill:color(display-p3 0.8275 0.9294 0.3765);fill-opacity:1;"/>
</svg>
