<svg width="983" height="1025" viewBox="0 0 983 1025" fill="none" xmlns="http://www.w3.org/2000/svg">
<rect width="983" height="1025" fill="#DAD9D5" style="fill:#DAD9D5;fill:color(display-p3 0.8549 0.8510 0.8353);fill-opacity:1;"/>
<path d="M582.31 2.06601L700.703 2.03372C724.819 2.05109 749.339 1.8766 773.427 2.79354C783.046 3.1598 794.544 5.40173 804.081 6.69936C849.395 12.4061 886.959 29.7469 919.344 62.2967C948.31 91.4118 964.211 124.003 973.382 163.815C978.369 185.439 979.27 197.759 980.231 219.786C981.193 239.815 981.597 259.867 981.439 279.919C981.673 323.524 981.652 367.131 981.362 410.736C981.28 436.217 982.061 464.395 981.253 489.546C981.581 514.996 981.673 540.449 981.526 565.902L981.444 692.927C981.4 785.059 992.762 888.166 923.042 960.149C869.447 1015.47 808.904 1022.64 736.186 1024.01C697.694 1024.36 659.207 1024.47 620.715 1024.35L408.73 1024.34L290.556 1024.32C249.043 1024.27 205.066 1024.81 164.503 1016.92C89.3867 1002.3 28.3499 943.382 11.3296 868.815C9.01938 858.697 6.01118 848.164 4.87887 837.8C2.92832 819.947 2.75828 801.732 2.09369 783.78C1.85352 738.037 2.05376 692.179 2.0631 646.424L2.04803 582.849C2.03552 572.676 1.64945 560.816 1.97178 550.916C1.36061 536.728 1.92611 518.017 1.91961 503.489L1.9549 402.047L2.0052 321.886C1.99641 308.377 1.3776 289.157 2.33026 276.256C2.19682 274.178 2.25024 271.579 2.28116 269.433C2.64308 244.345 2.5133 218.577 4.66737 193.587C5.43476 184.656 8.28488 175.619 9.82008 166.905C22.8675 92.8421 78.7742 30.5544 152.083 11.9262C190.851 2.07508 229.962 2.06005 270.366 2.04831L346.25 2.07928L538.29 2.1803C552.962 2.02815 567.639 1.99007 582.31 2.06601Z" fill="#DAD9D5" style="fill:#DAD9D5;fill:color(display-p3 0.8549 0.8510 0.8353);fill-opacity:1;"/>
<path d="M582.31 2.06601L700.703 2.03372C724.819 2.05109 749.339 1.8766 773.427 2.79354C783.046 3.1598 794.544 5.40173 804.081 6.69936C849.395 12.4061 886.959 29.7469 919.344 62.2968C948.31 91.4118 964.211 124.003 973.382 163.815C978.369 185.439 979.27 197.759 980.231 219.786C981.193 239.815 981.597 259.867 981.438 279.919C981.673 323.524 981.651 367.131 981.362 410.736C952.707 424.664 926.254 437.201 895.321 445.571C889.581 447.125 882.108 450.72 876.105 452.799C864.864 456.644 853.399 459.792 841.77 462.224C845.484 447.419 847.21 428.066 841.874 413.525C839.094 405.947 835.707 398.62 833.227 390.928C833.298 392.072 833.293 393.22 833.222 394.363C832.162 409.932 824.537 419.681 818.179 433.179C804.103 463.067 777.546 483.816 747.46 495.986C739.867 499.058 720.291 497.225 711.726 497.535C692.778 497.065 669.929 482.014 657.858 467.933C659.311 462.052 667.4 449.852 670.246 443.541C677.052 428.43 681.826 407.097 683.683 390.684C684.803 380.91 684.95 371.049 684.126 361.246C683.443 353.085 681.777 344.995 680.755 336.845C680.493 334.729 679.597 322.706 679.39 322.227C678.199 325.269 663.205 333.193 660.365 332.715C656.749 314.163 646.338 294.409 633.546 280.697C611.009 256.532 589.608 244.186 556.567 242.049C551.645 242.367 546.724 242.189 541.792 242.344C504.912 246.215 479.015 260.948 456.246 289.746C444.372 304.766 443.327 310.174 435.815 326.869C429.85 322.833 426.282 319.83 420.906 315.06C413.491 308.284 401.712 301.733 392.075 298.666C373.656 292.805 349.966 292.732 331.506 298.618C324.986 300.697 318.258 304.254 312.186 307.37C299.477 315.588 293.105 319.959 281.962 330.573C262.177 353.061 248.525 373.493 243.505 403.877C228.848 458.805 253.62 515.225 301.371 544.869C293.854 546.775 286.854 549.578 279.448 551.856C267.363 555.577 251.545 554.899 239.374 551.883C218.638 546.743 197.36 528.173 186.673 510.023C180.404 503.195 172.716 497.904 167.283 491.432C159.195 481.426 158.419 460.999 161.879 449.175C165.282 437.541 168.282 431.802 169.752 419.324L168.591 419.023C159.609 429.014 150.392 437.603 140.909 446.874C114.623 472.57 89.0049 494.705 56.1525 511.504C38.1278 520.721 19.7278 526.026 2.60528 537.428C2.53684 540.504 2.55869 548.267 1.97178 550.916C1.36061 536.728 1.92611 518.017 1.91961 503.489L1.9549 402.047L2.0052 321.886C1.99641 308.377 1.3776 289.157 2.33026 276.256C2.19682 274.178 2.25024 271.579 2.28116 269.433C2.64308 244.345 2.5133 218.577 4.66737 193.588C5.43475 184.656 8.28488 175.619 9.82008 166.905C22.8675 92.8421 78.7742 30.5544 152.083 11.9262C190.851 2.07508 229.962 2.06005 270.366 2.04831L346.25 2.07928L538.29 2.1803C552.962 2.02815 567.639 1.99007 582.31 2.06601Z" fill="#DAD9D5" style="fill:#DAD9D5;fill:color(display-p3 0.8549 0.8510 0.8353);fill-opacity:1;"/>
<path d="M582.31 2.06596L700.703 2.03367C724.819 2.05104 749.339 1.87655 773.427 2.79349C783.046 3.15975 794.544 5.40169 804.081 6.69931C849.395 12.406 886.959 29.7469 919.344 62.2967C948.31 91.4118 964.211 124.003 973.382 163.815C978.369 185.439 979.27 197.759 980.231 219.786C981.193 239.815 981.597 259.867 981.438 279.919C981.673 323.524 981.651 367.131 981.362 410.736C952.707 424.664 926.254 437.201 895.321 445.571C889.581 447.125 882.108 450.719 876.105 452.799C864.864 456.644 853.399 459.792 841.77 462.224C845.484 447.419 847.21 428.066 841.874 413.525C839.094 405.947 835.707 398.62 833.227 390.928L833.178 390.46C830.223 385.57 828.491 379.555 825.738 374.623C815.448 356.187 796.259 333.96 777.109 324.578C762.754 317.545 735.055 310.261 719.575 312.437L720.313 311.5C720.515 308.702 714.829 300.268 713.223 297.519C709.918 291.92 707.001 286.103 704.489 280.109C698.054 264.494 693.57 247.476 689.735 231.063C688.129 224.175 686.015 216.56 684.819 209.678C683.656 209.315 680.357 206.812 679.16 205.926C677.079 204.948 675.217 203.572 673.48 202.084C675.49 197.573 677.407 190.024 678.991 185.195C679.33 184.144 678.609 183.548 678.013 182.754C659.409 168.607 642.766 149.819 628.133 131.659C623.009 125.308 615.247 117.459 610.943 110.902C599.336 93.219 595.993 70.0626 591.192 49.8635C587.669 34.8708 582.687 17.4703 582.31 2.06596Z" fill="#DAD9D5" style="fill:#DAD9D5;fill:color(display-p3 0.8549 0.8510 0.8353);fill-opacity:1;"/>
<path d="M834.057 63.8893C827.437 104.525 805.55 155.473 770.985 179.857C757.559 189.331 746.832 196.179 731.182 201.887C788.366 208.331 834.199 227.545 870.905 273.3C880.442 285.191 886.139 295.481 893.776 308.176C907.611 331.171 917.329 353.755 924.189 379.757C925.101 383.21 929.668 396.035 929.586 398.982C907.611 401.036 879.585 399.895 857.845 395.795C850.761 394.459 843.911 392.146 836.98 390.241C834.691 389.611 834.631 389.576 833.178 390.46C830.223 385.57 828.491 379.555 825.738 374.623C815.448 356.187 796.259 333.96 777.109 324.578C762.754 317.546 735.055 310.261 719.575 312.437L720.313 311.5C720.515 308.702 714.829 300.268 713.223 297.519C709.918 291.92 707.001 286.103 704.489 280.109C698.054 264.494 693.57 247.476 689.735 231.063C688.129 224.175 686.015 216.56 684.819 209.678C683.656 209.315 680.357 206.812 679.16 205.926C680.952 203.226 690.582 195.938 693.668 193.2L741.036 150.909C745.024 147.374 748.705 143.642 752.299 139.713C769.194 121.249 789.262 106.461 806.708 88.5529C814.443 80.6149 824.919 70.0545 834.057 63.8893Z" fill="#7AA647" style="fill:#7AA647;fill:color(display-p3 0.4784 0.6510 0.2784);fill-opacity:1;"/>
<path d="M684.819 209.678C698.245 214.494 752.283 259.615 766.872 271.173L855.016 340.836L907.114 381.225C911.812 384.934 924.369 394.231 927.461 398.545L929.586 398.982C907.611 401.036 879.585 399.895 857.845 395.795C850.761 394.459 843.911 392.146 836.98 390.241C834.691 389.611 834.631 389.576 833.178 390.46C830.223 385.57 828.491 379.555 825.739 374.623C815.448 356.187 796.259 333.96 777.109 324.578C762.754 317.545 735.055 310.261 719.575 312.437L720.313 311.5C720.515 308.702 714.829 300.268 713.223 297.519C709.918 291.92 707.001 286.103 704.489 280.109C698.054 264.494 693.57 247.476 689.735 231.063C688.129 224.175 686.015 216.56 684.819 209.678Z" fill="#578543" style="fill:#578543;fill:color(display-p3 0.3412 0.5216 0.2627);fill-opacity:1;"/>
<path d="M678.013 182.754C681.597 181.927 686.234 164.234 687.72 160.017C707.946 102.688 762.224 69.0324 820.812 62.6961C823.253 62.4317 832.856 61.0703 834.281 62.182L834.057 63.8893C824.919 70.0545 814.443 80.6149 806.708 88.553C789.262 106.461 769.194 121.249 752.299 139.713C748.705 143.642 745.024 147.374 741.036 150.909L693.668 193.2C690.582 195.938 680.952 203.226 679.16 205.926C677.079 204.948 675.217 203.572 673.48 202.084C675.49 197.573 677.407 190.024 678.991 185.196C679.33 184.144 678.609 183.548 678.013 182.754Z" fill="#578543" style="fill:#578543;fill:color(display-p3 0.3412 0.5216 0.2627);fill-opacity:1;"/>
<path d="M538.29 2.1803C552.962 2.02815 567.639 1.99007 582.31 2.06601C582.687 17.4704 587.669 34.8709 591.192 49.8636C595.993 70.0627 599.336 93.2191 610.943 110.902C615.247 117.459 623.009 125.308 628.133 131.659C642.766 149.819 659.409 168.608 678.013 182.754C678.609 183.548 679.33 184.144 678.991 185.195C677.407 190.024 675.49 197.573 673.48 202.084C675.217 203.572 677.079 204.948 679.16 205.926C680.357 206.812 683.656 209.315 684.819 209.678C686.015 216.56 688.129 224.175 689.735 231.063C693.57 247.476 698.054 264.494 704.489 280.109C707.001 286.103 709.918 291.92 713.223 297.519C714.829 300.268 720.515 308.702 720.313 311.5L719.575 312.437C735.055 310.261 762.754 317.546 777.109 324.578C796.259 333.96 815.448 356.187 825.738 374.623C828.491 379.555 830.223 385.57 833.178 390.46L833.227 390.928C833.298 392.072 833.293 393.22 833.222 394.363C832.162 409.932 824.537 419.681 818.179 433.179C804.103 463.067 777.546 483.816 747.46 495.986C739.867 499.058 720.291 497.225 711.726 497.535C692.778 497.065 669.929 482.014 657.858 467.933C659.311 462.052 667.4 449.852 670.246 443.541C677.052 428.43 681.826 407.097 683.683 390.684C684.803 380.91 684.95 371.049 684.126 361.246C683.443 353.085 681.777 344.995 680.755 336.845C680.493 334.729 679.597 322.706 679.39 322.227C678.199 325.269 663.205 333.193 660.365 332.715C656.749 314.163 646.338 294.409 633.546 280.697C611.009 256.532 589.608 244.186 556.567 242.049C551.645 242.367 546.724 242.189 541.792 242.344C524.591 237.194 514.268 232.866 495.521 236.514C468.359 241.798 446.671 266.06 432.165 288.373C427.257 285.699 418.46 282.768 412.859 280.718C385.053 270.538 354.664 262.397 339.556 234.627C328.527 214.354 324.581 174.533 331.258 153.119C332.618 149.838 337.322 142.302 339.341 139.02C347.231 126.124 353.246 113.676 366.392 105.266C378.018 97.8278 386.924 100.864 399.716 100.418C405.439 100.218 412.011 99.1106 417.83 98.5659C428.493 97.5667 437.268 98.2813 447.661 100.534C450.869 100.175 462.979 82.2397 466.448 78.2941C484.098 58.2239 517.742 37.0551 544.49 34.6764C545.042 27.0847 540.748 9.82765 538.29 2.1803Z" fill="#7AA647" style="fill:#7AA647;fill:color(display-p3 0.4784 0.6510 0.2784);fill-opacity:1;"/>
<path d="M577.662 95.8174C579.279 99.9924 580.054 104.018 581.802 108.101L582.698 107.733C601.346 169.549 625.172 233.814 657.852 289.631C662.233 297.113 673.775 315.855 679.39 322.227C678.199 325.269 663.205 333.193 660.365 332.715C656.749 314.163 646.338 294.409 633.546 280.697C611.009 256.532 589.608 244.186 556.567 242.049C556.425 228.542 557.408 213.047 560.418 199.902C562.99 188.652 566.874 177.433 569.321 166.067C573.216 147.406 575.28 128.41 575.488 109.349C577.58 105.496 577.154 100.547 577.662 95.8174Z" fill="#DAD9D5" style="fill:#DAD9D5;fill:color(display-p3 0.8549 0.8510 0.8353);fill-opacity:1;"/>
<path d="M544.49 34.6764C540.95 47.3505 524.618 68.0102 517.015 79.7468L472.405 149.391C466.452 158.888 461.479 169.33 455.164 178.569C444.761 193.792 435.338 211.496 424.411 226.249C422.401 208.145 421.891 180.314 426.011 162.75C430.151 145.099 438.951 117.233 447.904 101.732L447.661 100.534C450.869 100.175 462.979 82.2396 466.448 78.2941C484.098 58.2239 517.742 37.0551 544.49 34.6764Z" fill="#578543" style="fill:#578543;fill:color(display-p3 0.3412 0.5216 0.2627);fill-opacity:1;"/>
<path d="M697.623 317.617C694.493 311.281 688.757 302.895 684.896 296.761C680.253 289.237 675.763 281.621 671.426 273.918C650.347 237.606 633.589 198.951 621.496 158.741C638.259 165.97 659.48 190.063 673.48 202.084C675.217 203.572 677.079 204.948 679.16 205.926C680.357 206.812 683.656 209.315 684.819 209.678C686.015 216.56 688.129 224.175 689.735 231.063C693.57 247.476 698.054 264.494 704.489 280.109C707.001 286.103 709.918 291.92 713.223 297.519C714.829 300.268 720.515 308.702 720.313 311.5L719.575 312.437C713.157 312.685 703.342 314.701 697.623 317.617Z" fill="#DAD9D5" style="fill:#DAD9D5;fill:color(display-p3 0.8549 0.8510 0.8353);fill-opacity:1;"/>
<path d="M575.488 109.349C575.887 100.745 575.947 95.3704 575.045 86.9314C577.979 92.9338 580.977 101.35 582.698 107.733L581.802 108.101C580.054 104.018 579.279 99.9923 577.662 95.8173C577.154 100.547 577.58 105.496 575.488 109.349Z" fill="#2C671C" style="fill:#2C671C;fill:color(display-p3 0.1725 0.4039 0.1098);fill-opacity:1;"/>
<path d="M740.392 338.157C747.624 337.529 754.233 338.221 761.05 341.684C772.062 347.28 791.507 363.434 784.253 377.618C781.287 383.427 774.039 386.215 768.03 388.019C729.817 391.019 702.588 347.887 740.392 338.157Z" fill="#9EC361" style="fill:#9EC361;fill:color(display-p3 0.6196 0.7647 0.3804);fill-opacity:1;"/>
<path d="M548.871 88.3273L549.51 89.2369C550.231 95.8446 549.581 104.75 549.881 111.587C550.848 133.459 548.308 153.059 542.371 174.096C539.437 184.509 535.701 194.839 532.888 205.452C531.741 201.782 530.681 197.248 529.698 193.473C527.011 180.706 524.733 170.57 518.823 158.782C535.352 138.293 543.43 113.668 548.871 88.3273Z" fill="#DAD9D5" style="fill:#DAD9D5;fill:color(display-p3 0.8549 0.8510 0.8353);fill-opacity:1;"/>
<path d="M403.833 120.249C411.316 120.683 415.533 122.545 421.261 127.124C421.866 128.459 422.337 129.85 422.668 131.277C426.156 145.794 404.676 157.809 392.832 160.419C386.646 160.816 383.194 160.087 377.66 157.71C371.695 150.854 371.976 142.9 377.355 135.749C383.722 127.212 393.274 121.621 403.833 120.249Z" fill="#9EC361" style="fill:#9EC361;fill:color(display-p3 0.6196 0.7647 0.3804);fill-opacity:1;"/>
<path d="M28.6444 309.603C91.4089 263.895 158.233 239.884 235.177 261.388C248.813 268.247 265.408 270.848 278.188 280.403C285.564 285.918 293.567 290.733 300.417 296.978C302.466 298.725 311.059 306.944 312.185 307.37C299.476 315.588 293.104 319.959 281.961 330.573C262.177 353.061 248.525 373.493 243.505 403.877C228.847 458.804 253.62 515.225 301.371 544.869C293.853 546.775 286.853 549.578 279.448 551.856C267.363 555.576 251.545 554.899 239.374 551.883C218.637 546.742 197.36 528.173 186.672 510.023C175.594 495.153 164.983 459.805 169.751 419.324L168.591 419.022C175.594 395.478 175.594 390.717 175.594 384.765C119.063 379.408 70.1139 355.218 40.6257 325.35C37.6827 322.368 27.6792 314.524 27.228 311.107C27.96 309.939 27.5596 310.234 28.6444 309.603Z" fill="#608D40" style="fill:#608D40;fill:color(display-p3 0.3765 0.5529 0.2510);fill-opacity:1;"/>
<path d="M28.6449 309.603C91.4094 263.895 158.234 239.884 235.178 261.388C248.814 268.247 265.408 270.848 278.188 280.403C285.564 285.918 293.568 290.733 300.417 296.978C302.467 298.725 311.059 306.944 312.186 307.37C299.477 315.588 293.105 319.959 281.962 330.573C279.344 328.274 254.268 328.536 248.183 328.067L85.1928 314.541C75.3292 313.82 34.9106 313.066 28.6449 309.603Z" fill="#7AA647" style="fill:#7AA647;fill:color(display-p3 0.4784 0.6510 0.2784);fill-opacity:1;"/>
<path d="M173.028 386.747C188.873 386.405 199.853 386.785 215.702 386.748C212.068 405.589 209.208 432.216 209.803 441.919C211.878 475.762 213.726 496.779 227.982 514.581C230.795 521.331 248.485 548.359 250.836 554.177C228.684 552.681 204.299 539.4 192.069 521.112C165.421 492.086 165.228 452.859 169.45 417.023C170.103 415.19 172.889 388.852 173.028 386.747Z" fill="#7AA647" style="fill:#7AA647;fill:color(display-p3 0.4784 0.6510 0.2784);fill-opacity:1;"/>
<path d="M235.178 261.388L235.506 261.135C235.62 260.847 235.733 260.559 235.846 260.271C231.55 251.728 221.183 235.099 217.332 227.336C204.743 201.961 195.894 174.952 189.455 147.539C187.247 136.177 186.185 124.513 184.549 113.078C182.67 99.936 181.739 86.9412 182.21 73.6634C182.261 72.2146 182.408 71.2705 183.459 70.3199L184.72 70.6275C190.914 72.0627 197.421 73.2029 203.457 74.9243C242.467 85.9267 278.52 105.523 308.971 132.278C314.188 136.898 325.106 146.87 328.781 152.373L331.258 153.119C324.581 174.533 328.527 214.354 339.556 234.627C354.664 262.397 385.053 270.538 412.859 280.717C418.46 282.768 427.257 285.699 432.165 288.372C446.671 266.06 468.359 241.798 495.521 236.514C514.268 232.866 524.591 237.194 541.792 242.344C504.912 246.215 479.015 260.948 456.246 289.746C444.372 304.766 443.327 310.173 435.815 326.869C429.85 322.833 426.282 319.83 420.906 315.06C413.491 308.284 401.712 301.733 392.075 298.666C373.656 292.805 349.966 292.732 331.506 298.618C324.986 300.697 318.258 304.254 312.186 307.37C311.059 306.944 302.466 298.725 300.417 296.978C293.567 290.733 285.564 285.918 278.188 280.403C265.408 270.848 248.813 268.247 235.178 261.388Z" fill="#5D8B40" style="fill:#5D8B40;fill:color(display-p3 0.3647 0.5451 0.2510);fill-opacity:1;"/>
<path d="M184.72 70.6276C190.914 72.0627 197.421 73.2029 203.457 74.9244C242.467 85.9267 278.52 105.523 308.971 132.278C314.188 136.898 325.106 146.87 328.781 152.373C327.796 156.616 326.433 160.052 324.337 163.87C315.379 180.177 309.221 196.213 306.37 214.709C301.302 204.511 284.735 188.525 276.464 179.467C252.504 152.986 229.046 126.054 206.106 98.6844C203.798 95.9583 184.837 73.4389 183.701 71.2793L184.72 70.6276Z" fill="#7AA647" style="fill:#7AA647;fill:color(display-p3 0.4784 0.6510 0.2784);fill-opacity:1;"/>
<path d="M556.567 242.049C589.608 244.186 611.009 256.532 633.546 280.697C646.338 294.409 656.749 314.163 660.365 332.715C663.965 356.21 665.641 373.099 661.763 396.816C656.307 430.149 636.85 461.454 609.883 481.464C614.881 484.629 623.129 491.537 627.488 495.863C644.579 511.063 658.044 530.954 663.604 553.331C665.374 563.285 668.16 573.326 669.798 582.898C668.651 613.257 665.576 633.629 650.473 660.465C645.797 668.78 640.728 676.576 633.682 683.099C630.077 686.431 625.686 690.075 620.851 691.277L617.268 692.179C619.442 692.446 619.83 692.49 621.84 691.638L622.829 692.042C623.058 696.582 601.739 714.796 595.922 715.933C595.441 716.025 595.742 719.577 595.785 720.046L594.065 717.069C590.771 716.594 578.962 722.068 575.056 723.281C563.569 726.848 551.695 727.028 539.754 726.941C536.848 726.919 530.119 726.192 527.797 726.569C518.064 723.876 501.321 717.692 492.626 712.884C484.735 708.519 475.956 702.034 468.172 697.128C468.17 707.17 468.675 717.703 469.011 727.771C469.031 741.954 459.142 752.137 449.682 761.895C420.932 791.549 398.777 804.147 357.054 804.229C351.587 804.262 346.124 803.967 340.693 803.344C322.596 800.94 300.277 794.991 285.356 784.021C280.741 778.268 272.896 765.653 268.836 759.179C265.524 753.929 262.774 749.471 259.802 744.003C245.894 712.283 247.863 677.974 255.263 644.84C263.008 616.792 279.556 592.437 300.845 572.862C308.956 566.372 316.242 560.93 325.16 555.598C316.962 551.905 309.635 548.84 301.371 544.869C253.62 515.225 228.848 458.805 243.505 403.877C248.525 373.493 262.177 353.061 281.962 330.573C293.105 319.959 299.477 315.588 312.186 307.37C318.258 304.254 324.986 300.697 331.506 298.618C349.966 292.732 373.656 292.805 392.075 298.666C401.712 301.733 413.491 308.284 420.906 315.06C426.283 319.83 429.85 322.833 435.815 326.869C443.327 310.173 444.372 304.766 456.246 289.746C479.015 260.948 504.912 246.215 541.792 242.344C546.724 242.189 551.645 242.367 556.567 242.049Z" fill="#99BB34" style="fill:#99BB34;fill:color(display-p3 0.5998 0.7322 0.2025);fill-opacity:1;"/>
<path d="M627.488 495.863C644.579 511.063 658.044 530.954 663.604 553.331C665.374 563.285 668.16 573.326 669.798 582.898C668.651 613.257 665.576 633.629 650.473 660.465C645.797 668.78 640.728 676.576 633.682 683.099C630.077 686.431 625.685 690.075 620.851 691.277L617.268 692.179C614.608 692.047 602.116 694.233 597.67 694.495C567.715 696.27 543.895 694.069 517.649 678.258C511.946 674.822 508.052 671.227 502.939 667.326C481.977 651.314 467.712 630.783 461.632 604.773C456.175 581.423 457.87 554.44 466.587 531.91C468.7 526.447 473.258 519.366 476.48 514.247C517.299 529.725 564.247 530.659 604.039 510.937C612.893 506.549 620.267 502.854 627.488 495.863Z" fill="#AACA49" style="fill:#AACA49;fill:color(display-p3 0.6666 0.7938 0.2852);fill-opacity:1;"/>
<path d="M606.661 530.981C622.67 530.44 627.679 539.345 635.588 551.332C644.667 565.077 644.246 592.661 627.963 601.298C615.646 601.484 602.313 588.241 598.342 577.331C594.349 566.372 589.646 556.724 594.868 545.005C597.785 538.471 599.811 533.97 606.661 530.981Z" fill="#D3ED60" style="fill:#D3ED60;fill:color(display-p3 0.8291 0.9310 0.3753);fill-opacity:1;"/>
<path d="M484.634 487.98C484.817 487.995 500.303 495.376 503.976 496.646C513.978 500.106 520.194 500.771 530.316 502.607C553.716 506.853 590.957 495.765 609.883 481.464C614.881 484.628 623.129 491.537 627.488 495.863C620.267 502.854 612.893 506.548 604.039 510.937C564.247 530.659 517.299 529.724 476.48 514.247C473.258 519.366 468.7 526.447 466.587 531.91C457.87 554.44 456.175 581.423 461.632 604.773C467.712 630.783 481.977 651.314 502.939 667.326C508.052 671.227 511.946 674.822 517.649 678.258C543.895 694.069 567.715 696.27 597.67 694.495C602.116 694.233 614.608 692.047 617.268 692.178C619.442 692.446 619.83 692.49 621.84 691.638L622.829 692.042C623.058 696.582 601.739 714.796 595.922 715.933C595.441 716.025 595.742 719.576 595.785 720.046L594.065 717.069C590.771 716.594 578.962 722.068 575.056 723.281C563.569 726.848 551.695 727.028 539.754 726.941C536.848 726.919 530.119 726.192 527.797 726.569C518.064 723.876 501.321 717.692 492.626 712.884C484.735 708.519 475.956 702.034 468.172 697.128C468.17 707.17 468.675 717.703 469.011 727.771C469.031 741.954 459.142 752.137 449.682 761.894C420.932 791.549 398.777 804.147 357.054 804.229C351.587 804.262 346.124 803.967 340.693 803.344C322.596 800.94 300.277 794.991 285.356 784.02C280.741 778.268 272.896 765.653 268.836 759.179C269.874 758.644 271.993 757.458 273.025 757.759C279.938 759.764 287.483 761.157 294.355 763.031C317.795 769.417 349.229 772.46 372.796 765.2C387.534 760.66 416.027 738.02 424.446 723.483C425.446 721.756 425.552 719.56 425.028 717.582C422.415 707.694 417.041 698.232 413.119 688.879C409.764 680.881 407.346 672.445 404.472 664.289C403.186 663.704 402.377 664.196 400.657 664.513C408.325 657.432 422.606 645.222 427.366 636.454C434.083 622.08 430.415 602.789 432.018 586.941C435.41 553.429 449.791 527.599 471.595 502.746C474.914 498.964 485.11 492.872 484.634 487.98Z" fill="#7AA647" style="fill:#7AA647;fill:color(display-p3 0.4784 0.6510 0.2784);fill-opacity:1;"/>
<path d="M328.766 558.844C329.318 558.062 329.88 557.287 330.452 556.522C336.24 548.829 348.465 534.303 354.926 528.288C385.16 500.151 427.384 481.823 467.978 476.026C472.418 478.395 475.823 481.188 479.76 484.244C481.17 485.368 483.163 487.074 484.634 487.98C485.11 492.872 474.914 498.964 471.595 502.746C449.791 527.599 435.41 553.429 432.018 586.941C430.415 602.79 434.083 622.08 427.366 636.454C422.606 645.222 408.325 657.433 400.657 664.513C378.788 683.263 333.384 699.592 305.38 707.552C300.429 708.962 287.994 712.185 283.178 712.595C281.722 712.748 279.204 713.982 277.764 714.6C278.611 691.692 280.027 676.914 285.924 654.597C292.502 629.69 299.561 607.532 312.935 585.089C318.358 575.987 322.342 567.492 328.766 558.844Z" fill="#578543" style="fill:#578543;fill:color(display-p3 0.3412 0.5216 0.2627);fill-opacity:1;"/>
<path d="M479.76 484.244C481.17 485.368 483.163 487.074 484.633 487.98C485.11 492.872 474.914 498.964 471.595 502.746C449.791 527.599 435.41 553.429 432.018 586.941C430.415 602.79 434.083 622.08 427.366 636.454C422.606 645.222 408.325 657.433 400.657 664.513C378.788 683.263 333.384 699.592 305.379 707.552C300.429 708.962 287.994 712.185 283.178 712.595C283.39 711.109 283.605 709.781 284.559 708.552C297.661 691.72 311.328 675.161 325.684 659.372C329.439 655.247 333.144 651.275 336.778 647.162L434.619 535.893C444.71 524.425 454.519 512.079 464.676 500.536C468.999 495.625 476.094 488.728 479.76 484.244Z" fill="#7AA647" style="fill:#7AA647;fill:color(display-p3 0.4784 0.6510 0.2784);fill-opacity:1;"/>
<path d="M537.984 269.492C540.541 268.905 544.648 269.415 547.259 269.554C556.878 269.77 566.989 279.077 568.3 288.594C570.157 302.09 557.79 317.219 546.533 323.229C539.618 326.923 531.386 327.738 523.914 328.836C497.461 329.255 479.797 310.048 500.862 287.339C512.132 275.187 521.445 270.294 537.984 269.492Z" fill="#D3ED60" style="fill:#D3ED60;fill:color(display-p3 0.8291 0.9310 0.3753);fill-opacity:1;"/>
<path d="M343.555 320.283C353.813 318.758 363.017 321.643 372.241 325.746C372.61 327.333 372.969 328.924 373.316 330.517C374.808 337.308 375.574 341.962 371.271 348.161C363.821 358.897 351.361 365.376 338.906 368.06C316.13 370.174 295.729 359.07 314.107 334.654C321.231 325.19 331.919 321.216 343.555 320.283Z" fill="#D3ED60" style="fill:#D3ED60;fill:color(display-p3 0.8291 0.9310 0.3753);fill-opacity:1;"/>
<path d="M468.172 697.128C475.956 702.034 484.735 708.519 492.626 712.884C501.321 717.692 518.064 723.876 527.797 726.569C530.119 726.192 536.848 726.919 539.754 726.941C551.695 727.028 563.569 726.848 575.056 723.281C578.962 722.068 590.771 716.594 594.065 717.069L595.785 720.046C597.555 723.024 603.504 732.929 604.694 736.103C609.752 749.564 612.975 766.609 616.159 780.825C617.891 788.56 617.35 797.919 620.349 805.775C619.043 808.703 619.535 829.66 619.306 834.703C618.273 857.67 616.788 879.889 611.948 902.452C611.424 904.905 610.981 909.92 609.703 911.483L609.556 911.521C604.481 908.893 598.708 907.833 592.41 903.938C586.15 900.075 571.375 888.668 565.306 886.144L564.334 887.149C555.474 909.303 541.857 932.041 521.56 945.223C513.519 950.446 504.794 954.866 496.42 959.559C488.03 964.323 479.644 970.627 470.941 974.594C464.363 977.593 451.835 978.767 445.292 975.227C430.438 967.185 414.813 957.652 399.902 949.567C380.816 939.225 367.16 919.721 359.183 899.808C358.869 899.032 358.571 898.251 358.29 897.464C357.173 893.864 354.318 888.963 352.812 884.325L351.975 884.959C347.784 888.193 342.007 895.098 337.262 899.048C318.199 914.914 299.237 929.189 276.604 939.585C272.564 941.443 269.652 942.017 266.116 943.448C267.458 938.083 275.11 925.987 278.083 920.18C288.98 899.021 300.127 877.993 311.521 857.102C319.733 842.215 332.588 820.023 338.914 804.6L338.294 804.021C339.681 803.606 339.117 803.431 340.693 803.344C346.124 803.967 351.587 804.262 357.054 804.229C398.776 804.147 420.932 791.549 449.682 761.894C459.142 752.137 469.031 741.954 469.011 727.771C468.675 717.703 468.17 707.17 468.172 697.128Z" fill="#608D40" style="fill:#608D40;fill:color(display-p3 0.3765 0.5529 0.2510);fill-opacity:1;"/>
<path d="M468.172 697.128C475.956 702.034 484.735 708.519 492.626 712.884C501.321 717.692 518.064 723.876 527.797 726.569C530.119 726.192 536.848 726.919 539.754 726.941C551.695 727.028 563.569 726.848 575.056 723.281C578.962 722.068 590.771 716.594 594.065 717.069L595.785 720.046C597.555 723.024 603.504 732.929 604.694 736.103C609.752 749.564 612.975 766.609 616.159 780.825C617.891 788.56 617.35 797.919 620.349 805.775C619.043 808.703 619.535 829.66 619.306 834.703C618.273 857.67 616.788 879.889 611.948 902.452C611.424 904.905 610.981 909.92 609.703 911.483L609.556 911.521C604.481 908.893 598.708 907.833 592.41 903.938C586.15 900.075 571.375 888.668 565.306 886.144L564.334 887.149C563.427 881.894 525.984 852.912 519.954 845.094C497.951 816.565 480.745 788.074 473.095 752.388C472.555 749.875 469.354 728.334 469.011 727.771C468.675 717.703 468.17 707.17 468.172 697.128Z" fill="#578543" style="fill:#578543;fill:color(display-p3 0.3412 0.5216 0.2627);fill-opacity:1;"/>
<path d="M527.797 726.569C530.119 726.192 536.848 726.919 539.754 726.941C551.695 727.028 563.569 726.848 575.056 723.281C578.962 722.068 590.771 716.594 594.065 717.069L595.785 720.046C597.555 723.024 603.504 732.929 604.694 736.103C609.752 749.564 612.975 766.609 616.159 780.825C617.891 788.56 617.35 797.919 620.349 805.775C619.043 808.703 619.535 829.66 619.306 834.703C618.273 857.67 616.788 879.889 611.948 902.452C611.424 904.905 610.981 909.92 609.703 911.483L609.556 911.521C607.988 903.19 601.969 894.552 598.631 886.478C593.983 875.234 588.914 864.144 583.998 853.032L547.696 770.264C543.408 760.349 539.995 750.094 535.434 740.222C533.058 735.081 530.288 731.65 528.027 727.05L527.797 726.569Z" fill="#7AA647" style="fill:#7AA647;fill:color(display-p3 0.4784 0.6510 0.2784);fill-opacity:1;"/>
<path d="M349.394 831.048C400.669 830.633 418.396 827.175 458.119 792.745C467.248 817.871 484.819 842.373 503.822 861.134C510.602 867.826 520.926 876.311 526.874 883.391C520.8 897.978 499.197 920.382 484.634 926.272C458.775 936.493 429.897 935.914 404.468 924.666C388.571 917.749 376.2 907.587 362.704 897.164C362.117 896.71 359.211 897.333 358.29 897.464C357.173 893.864 354.318 888.963 352.812 884.325L352.656 883.336C352.024 879.441 350.482 874.934 350.058 871.093C348.556 857.506 348.328 844.613 349.394 831.048Z" fill="#7AA647" style="fill:#7AA647;fill:color(display-p3 0.4784 0.6510 0.2784);fill-opacity:1;"/>
<path d="M679.39 322.227C679.597 322.706 680.493 334.729 680.755 336.845C681.777 344.995 683.443 353.085 684.126 361.246C684.95 371.049 684.803 380.91 683.683 390.684C681.826 407.097 677.052 428.43 670.246 443.541C667.4 449.852 659.311 462.052 657.858 467.933C669.929 482.014 692.778 497.065 711.726 497.535C720.291 497.224 739.867 499.058 747.46 495.986C777.546 483.816 804.103 463.067 818.179 433.179C824.537 419.681 832.162 409.932 833.222 394.363C833.293 393.22 833.298 392.072 833.227 390.928C835.707 398.62 839.094 405.947 841.874 413.525C850.723 457.409 833.227 482.524 828.382 493.08C823.264 497.456 821.341 500.324 818.971 506.607C832.162 509.639 838.586 512.755 850.723 518.301C887.046 534.909 922.66 561.985 944.989 595.534L944.995 596.627C944.317 597.08 943.673 597.578 942.946 597.895C908.556 620.862 868.338 635.197 827.197 640.688C822.09 641.371 798.542 640.835 796.188 641.895C787.416 640.688 778.441 639.994 769.74 638.47C743.604 634.154 718.963 623.353 698.071 607.062C692.013 602.314 686.119 597.354 680.4 592.202C677.32 589.421 673.212 584.919 669.798 582.898C668.16 573.326 665.374 563.285 663.604 553.331C658.044 530.954 644.579 511.063 627.488 495.863C623.129 491.537 614.881 484.628 609.883 481.464C636.85 461.454 656.307 430.149 661.763 396.816C665.642 373.099 663.965 356.21 660.365 332.715C663.205 333.193 678.199 325.269 679.39 322.227Z" fill="#608D40" style="fill:#608D40;fill:color(display-p3 0.3765 0.5529 0.2510);fill-opacity:1;"/>
<path d="M663.604 553.331C667.559 551.703 683.525 555.527 689.003 556.079C700.212 557.215 711.579 558.663 722.803 559.849C744.215 563.848 766.687 566.17 787.962 569.65C818.13 574.583 848.308 581.04 878.569 584.111C886.303 584.892 940.521 596.092 942.946 597.894C908.556 620.862 868.338 635.197 827.197 640.688C822.09 641.371 798.542 640.835 796.188 641.895C787.416 640.688 778.441 639.994 769.74 638.47C743.603 634.154 718.963 623.353 698.071 607.062C692.013 602.314 686.119 597.354 680.4 592.202C677.32 589.421 673.212 584.919 669.798 582.898C668.16 573.326 665.374 563.285 663.604 553.331Z" fill="#7AA647" style="fill:#7AA647;fill:color(display-p3 0.4784 0.6510 0.2784);fill-opacity:1;"/>
<path d="M663.681 553.208C667.103 555.959 688.23 556.101 693.786 557.158C705.155 559.311 716.771 561.205 728.17 563.315C750.42 565.634 773.227 569.908 795.191 572.697C826.336 576.653 857.81 579.469 888.505 585.281C896.35 586.769 946.172 598.384 949.084 597.322C921.884 564.753 893.391 531.806 854.466 514.42C849.634 512.261 826.286 505.92 824.276 504.193C815.285 502.82 806.245 500.884 797.232 499.842C770.237 496.456 742.832 499.871 717.523 509.767C710.178 512.659 702.933 515.809 695.804 519.197C691.962 521.028 662.415 536.563 658.466 537.551C660.553 542.77 662.636 545.901 663.681 553.208Z" fill="#578543" style="fill:#578543;fill:color(display-p3 0.3412 0.5216 0.2627);fill-opacity:1;"/>
<path d="M669.798 582.898C673.212 584.919 677.32 589.421 680.4 592.202C686.119 597.354 692.013 602.314 698.071 607.062C718.963 623.353 743.603 634.154 769.74 638.47C778.441 639.994 787.416 640.688 796.188 641.895C802.087 647.457 809.352 666.267 811.236 673.91C812.52 682.022 814.759 692.698 815.229 700.756C816.496 722.385 809.701 747.319 800.672 766.948C790.988 789.708 783.576 810.561 763.814 826.672C757.45 830.529 751.819 833.555 744.756 836.09C704.549 850.519 647.512 840.248 620.349 805.775C617.35 797.919 617.891 788.56 616.159 780.825C612.975 766.609 609.752 749.564 604.694 736.103C603.504 732.929 597.555 723.024 595.785 720.046C595.742 719.577 595.441 716.025 595.922 715.933C601.739 714.796 623.058 696.582 622.829 692.042L621.84 691.638C619.83 692.49 619.442 692.446 617.268 692.179L620.851 691.277C625.685 690.075 630.077 686.431 633.682 683.099C640.728 676.576 645.797 668.78 650.473 660.465C665.576 633.629 668.651 613.257 669.798 582.898Z" fill="#9EC361" style="fill:#9EC361;fill:color(display-p3 0.6196 0.7647 0.3804);fill-opacity:1;"/>
<path d="M776.366 684.574C794.62 683.956 797.739 711.813 794.216 724.63C792.08 732.388 785.843 736.01 779.403 739.643C778.201 740.064 777.414 740.534 776.18 739.862C762.94 732.666 759.034 712.742 763.054 699.297C764.933 693.009 771.002 687.382 776.366 684.574Z" fill="#D3ED60" style="fill:#D3ED60;fill:color(display-p3 0.8291 0.9310 0.3753);fill-opacity:1;"/>
<path d="M173.128 609.58C185.481 586.537 210.488 585.744 214.046 580.445L213.701 579.708C208.852 578.992 192.931 585.083 187.032 586.531C146.422 596.474 98.2895 580.494 67.4941 553.2C66.3809 552.211 48.5452 536.756 52.8156 535.062C61.3448 531.68 73.3147 531.079 82.554 529.757C105.158 527.588 129.337 528.364 151.277 534.428C169.614 539.799 188.191 551.714 203.943 562.351C210.029 566.459 215.873 576.08 223.682 577.184C239.925 579.467 257.414 577.927 273.668 576.014C280.832 575.129 294.812 571.797 300.845 572.862C279.556 592.437 263.008 616.792 255.263 644.84C247.862 677.974 245.894 712.283 259.802 744.003C257.471 745.789 256.437 748.291 254.784 750.701C248.057 760.496 240.019 769.975 231.948 778.699C212.579 799.41 190.357 817.253 165.952 831.687C153.337 839.03 137.591 846.274 124.334 852.606C117.738 855.758 107.814 858.26 100.77 860.336C100.047 860.265 99.8418 860.134 99.1449 859.905C95.7654 850.934 101.74 794.177 104.54 781.895C108.433 764.823 116.611 737.141 123.546 721.046C147.483 665.48 194.303 618.371 253.186 601.457C260.215 599.435 267.205 597.321 274.257 595.36C268.263 595.376 259.936 596.447 254.2 596.272C220.956 595.228 204.22 596.807 173.128 609.58Z" fill="#7AA647" style="fill:#7AA647;fill:color(display-p3 0.4784 0.6510 0.2784);fill-opacity:1;"/>
<path d="M100.77 860.336C101.496 856.304 104.371 853.753 106.811 850.508C110.142 846.006 113.417 841.461 116.635 836.872C123.918 826.459 130.218 815.237 137.585 804.972C160.472 773.078 182.788 741.052 204.913 708.628L232.246 667.867C235.343 663.245 249.765 640.12 254.627 640.158C255.693 642.168 255.291 642.212 255.263 644.84C247.863 677.974 245.894 712.283 259.802 744.002C257.471 745.789 256.437 748.291 254.784 750.7C248.057 760.496 240.019 769.975 231.948 778.699C212.579 799.41 190.357 817.253 165.952 831.687C153.337 839.03 137.591 846.274 124.334 852.606C117.738 855.758 107.814 858.26 100.77 860.336Z" fill="#578543" style="fill:#578543;fill:color(display-p3 0.3412 0.5216 0.2627);fill-opacity:1;"/>
<path d="M811.236 673.91C815.197 675.084 818.359 679.023 821.363 681.897C835.308 695.282 844.097 709.743 853.421 726.335C876.947 768.21 886.544 820.772 885.845 868.569C885.768 873.934 886.085 891.46 884.73 896.213L884.162 896.617C861.226 894.164 836.952 879.037 817.398 867.324C807.2 861.216 800.033 857.321 790.688 849.721C783.702 844.039 770.898 830.567 763.814 826.672C783.576 810.561 790.988 789.708 800.673 766.948C809.702 747.319 816.497 722.385 815.229 700.756C814.76 692.698 812.52 682.023 811.236 673.91Z" fill="#7AA647" style="fill:#7AA647;fill:color(display-p3 0.4784 0.6510 0.2784);fill-opacity:1;"/>
<path d="M800.673 766.948C816.573 790.412 831.796 814.079 846.713 838.052C851.176 845.225 881.377 894.661 884.162 896.617C861.226 894.164 836.952 879.037 817.398 867.324C807.2 861.216 800.033 857.32 790.688 849.721C783.702 844.039 770.898 830.567 763.814 826.672C783.576 810.561 790.988 789.708 800.673 766.948Z" fill="#578543" style="fill:#578543;fill:color(display-p3 0.3412 0.5216 0.2627);fill-opacity:1;"/>
<path d="M285.356 784.021C300.277 794.991 322.596 800.94 340.693 803.344C339.117 803.431 339.682 803.606 338.294 804.021L338.914 804.6C332.588 820.023 319.733 842.215 311.521 857.102C300.127 877.993 288.98 899.021 278.083 920.18C275.11 925.987 267.458 938.083 266.116 943.448L264.616 943.399C264.381 943.104 263.861 942.508 263.835 942.142C261.695 914.684 260.284 888.291 263.616 860.861C266.946 833.441 277.116 809.856 285.356 784.021Z" fill="#7AA647" style="fill:#7AA647;fill:color(display-p3 0.4784 0.6510 0.2784);fill-opacity:1;"/>
<path d="M679.861 596.688C675.874 593.862 672.825 591.869 669.707 590.784C669.545 594.662 669.454 597.635 669.362 600.606C667.984 609.443 667.291 618.453 665.099 627.082C656.032 659.227 643.362 678.349 595.852 716.039C595.852 718.126 603.22 740.806 608.375 749.44C613.908 763.862 617.157 788.535 619.853 805.166C621.509 811.734 651.637 830.885 658.464 832.943C667.11 835.249 676.558 839.879 685.327 841.293C701.088 843.836 744.706 840.37 759.686 828.768C764.116 827.042 776.434 816.23 777.465 811.621C777.513 810.062 781.325 808.788 780.557 807.533C769.858 807.434 756.147 808.076 746.233 808.339C727.728 810.87 702.293 807.892 692.654 805.166C662.095 791.628 649.637 764.125 639.432 734.056C638.544 731.269 637.265 727.095 638.568 725.376C645.012 716.882 652.262 709 659.227 700.902L659.285 700.78C663.066 692.804 666.848 684.824 671.168 676.344C673.612 671.412 675.515 666.986 677.813 661.118C685.521 644.943 685.158 628.838 686.499 612.184C686.383 607.86 686.308 604.397 686.006 600.445C685.204 599.542 684.629 599.128 684.053 598.715L684.043 598.711C682.962 598.314 681.878 597.917 679.861 596.688Z" fill="#7AA647" style="fill:#7AA647;fill:color(display-p3 0.4784 0.6510 0.2784);fill-opacity:1;"/>
<path d="M351.67 490.58C339.759 490.461 329.617 490.356 319.32 487.449C274.932 461.097 261.785 439.74 244.187 403.946C236.012 415.325 236.542 458.744 247.299 482.291C274.055 535.709 311.619 551.433 329.754 557.383C348.419 525.177 429.316 480.288 467.497 475.874C422.626 438.391 418.452 362.194 436.191 326.705L422.626 316.268C409.06 334.012 395.394 406.033 414.277 454.048C405.929 470.654 363.58 490.7 351.67 490.58Z" fill="#7AA647" style="fill:#7AA647;fill:color(display-p3 0.4784 0.6510 0.2784);fill-opacity:1;"/>
<path d="M475.789 480.236C472.932 478.109 470.075 475.982 466.466 473.752C456.68 460.735 445.326 448.813 439.25 434.629C432.927 419.87 425.273 403.703 433.554 386.172C448.614 405.827 462.164 426.682 483.409 439.79C497.158 448.274 511.749 457.161 528.722 456.711C545.52 456.265 562.89 456.073 578.879 451.666C601.119 445.536 619.4 431.701 633.064 412.468C645.053 395.592 654.538 377.674 658.214 357.02C658.494 355.447 660.903 354.253 663.093 352.8C662.254 379.599 662.335 406.825 649.675 431.669C641.98 446.77 633.676 461.484 619.658 471.987C617.358 473.71 615.984 476.669 614.29 479.837C614.291 481.388 614.184 482.158 613.266 483.589C600.778 489.769 589.154 495.408 577.392 500.742C573.416 502.545 569.152 504.53 564.914 504.804C539.293 506.466 514.217 504.262 490.811 492.404C487.633 489.125 484.455 485.846 480.523 482.588C479.77 482.609 479.874 482.367 479.661 481.78C478.301 480.858 477.154 480.524 475.953 480.202C475.898 480.214 475.789 480.236 475.789 480.236Z" fill="#9EC361" style="fill:#9EC361;fill:color(display-p3 0.6196 0.7647 0.3804);fill-opacity:1;"/>
</svg>
