<svg width="982" height="1024" viewBox="0 0 982 1024" fill="none" xmlns="http://www.w3.org/2000/svg">
<rect width="982" height="1024" fill="#126E3D" style="fill:#126E3D;fill:color(display-p3 0.0706 0.4314 0.2392);fill-opacity:1;"/>
<path d="M581.718 2.06397L699.991 2.03172C724.082 2.04907 748.576 1.87475 772.64 2.7908C782.249 3.15669 793.736 5.39644 803.263 6.6928C848.531 12.3939 886.056 29.7179 918.409 62.2359C947.345 91.3226 963.23 123.882 972.392 163.655C977.373 185.258 978.274 197.566 979.234 219.571C980.195 239.581 980.598 259.614 980.44 279.646C980.675 323.209 980.653 366.773 980.364 410.336C980.282 435.791 981.062 463.942 980.255 489.069C980.582 514.493 980.675 539.922 980.527 565.35L980.446 692.251C980.402 784.293 991.752 887.299 922.103 959.212C868.563 1014.48 808.081 1021.64 735.437 1023.01C696.984 1023.36 658.536 1023.47 620.083 1023.35L408.314 1023.34L290.26 1023.32C248.79 1023.27 204.857 1023.81 164.335 1015.93C89.2957 1001.32 28.321 942.462 11.3181 867.967C9.01021 857.859 6.00507 847.337 4.87391 836.983C2.92534 819.147 2.75548 800.95 2.09157 783.015C1.85164 737.317 2.05168 691.503 2.06101 645.793L2.04595 582.28C2.03346 572.118 1.64778 560.269 1.96978 550.379C1.35924 536.205 1.92416 517.512 1.91767 502.997L1.95292 401.654L2.00317 321.572C1.99439 308.076 1.3762 288.874 2.3279 275.986C2.19459 273.911 2.24796 271.314 2.27884 269.17C2.6404 244.107 2.51075 218.363 4.66263 193.399C5.42923 184.476 8.27646 175.448 9.8101 166.742C22.8442 92.7515 78.694 30.5246 151.929 11.9145C190.657 2.07303 229.728 2.05802 270.091 2.04629L345.898 2.07723L537.743 2.17815C552.399 2.02615 567.061 1.98811 581.718 2.06397Z" fill="#126E3D" style="fill:#126E3D;fill:color(display-p3 0.0706 0.4314 0.2392);fill-opacity:1;"/>
<path d="M581.718 2.06397L699.991 2.03172C724.082 2.04907 748.576 1.87475 772.64 2.7908C782.249 3.15669 793.736 5.39644 803.263 6.6928C848.531 12.3939 886.056 29.7179 918.409 62.236C947.345 91.3226 963.23 123.882 972.391 163.655C977.373 185.258 978.274 197.566 979.234 219.571C980.195 239.581 980.598 259.614 980.44 279.646C980.675 323.209 980.653 366.773 980.364 410.336C951.738 424.25 925.312 436.775 894.411 445.136C888.676 446.689 881.211 450.28 875.214 452.358C863.984 456.198 852.531 459.343 840.914 461.774C844.624 446.983 846.349 427.649 841.017 413.122C838.24 405.551 834.857 398.231 832.38 390.547C832.451 391.69 832.445 392.836 832.374 393.978C831.316 409.532 823.698 419.272 817.347 432.757C803.285 462.615 776.755 483.344 746.699 495.502C739.115 498.571 719.558 496.739 711.002 497.05C692.073 496.58 669.248 481.544 657.189 467.476C658.64 461.601 666.721 449.413 669.564 443.108C676.363 428.012 681.132 406.7 682.988 390.303C684.106 380.538 684.254 370.687 683.43 360.893C682.747 352.74 681.083 344.659 680.063 336.517C679.801 334.402 678.906 322.391 678.699 321.913C677.509 324.952 662.531 332.868 659.693 332.391C656.081 313.857 645.681 294.122 632.901 280.423C610.387 256.282 589.008 243.947 556.001 241.813C551.084 242.131 546.168 241.953 541.24 242.108C504.399 245.974 478.527 260.693 455.782 289.463C443.92 304.469 442.876 309.871 435.372 326.55C429.413 322.518 425.849 319.518 420.478 314.753C413.07 307.983 401.304 301.438 391.676 298.375C373.276 292.52 349.61 292.446 331.168 298.327C324.655 300.404 317.934 303.957 311.868 307.07C299.172 315.28 292.807 319.647 281.675 330.25C261.911 352.716 248.272 373.129 243.258 403.483C228.615 458.357 253.362 514.723 301.065 544.337C293.555 546.242 286.562 549.042 279.164 551.318C267.091 555.035 251.289 554.358 239.131 551.345C218.415 546.209 197.159 527.658 186.483 509.526C180.22 502.704 172.541 497.418 167.113 490.953C159.033 480.956 158.258 460.549 161.714 448.737C165.114 437.114 168.111 431.381 169.579 418.915L168.42 418.614C159.447 428.595 150.239 437.177 140.766 446.438C114.507 472.109 88.9143 494.223 56.0954 511.005C38.089 520.213 19.7077 525.513 2.60264 536.903C2.53427 539.976 2.5561 547.732 1.96978 550.379C1.35924 536.205 1.92416 517.512 1.91767 502.997L1.95292 401.654L2.00317 321.572C1.99439 308.076 1.3762 288.874 2.3279 275.986C2.19459 273.911 2.24796 271.314 2.27884 269.17C2.6404 244.107 2.51075 218.364 4.66263 193.399C5.42923 184.476 8.27646 175.448 9.8101 166.742C22.8442 92.7515 78.694 30.5246 151.929 11.9145C190.657 2.07303 229.728 2.05802 270.091 2.04629L345.898 2.07723L537.743 2.17815C552.399 2.02615 567.061 1.98811 581.718 2.06397Z" fill="#126E3D" style="fill:#126E3D;fill:color(display-p3 0.0706 0.4314 0.2392);fill-opacity:1;"/>
<path d="M581.718 2.06397L699.991 2.03172C724.082 2.04907 748.576 1.87475 772.64 2.7908C782.249 3.15669 793.736 5.39644 803.263 6.6928C848.531 12.3939 886.056 29.7179 918.409 62.2359C947.345 91.3226 963.23 123.882 972.392 163.655C977.373 185.258 978.274 197.566 979.234 219.571C980.195 239.581 980.598 259.614 980.44 279.646C980.675 323.209 980.653 366.773 980.364 410.336C951.738 424.25 925.312 436.775 894.411 445.136C888.676 446.688 881.211 450.28 875.214 452.358C863.984 456.198 852.531 459.343 840.914 461.773C844.624 446.983 846.349 427.649 841.017 413.122C838.24 405.551 834.857 398.231 832.38 390.547L832.33 390.079C829.378 385.194 827.649 379.185 824.898 374.257C814.618 355.84 795.449 333.634 776.318 324.262C761.978 317.236 734.307 309.958 718.843 312.132L719.58 311.196C719.782 308.401 714.101 299.975 712.497 297.229C709.196 291.635 706.282 285.824 703.772 279.836C697.344 264.236 692.864 247.235 689.034 230.837C687.429 223.957 685.318 216.349 684.123 209.474C682.96 209.111 679.665 206.61 678.47 205.725C676.391 204.748 674.53 203.373 672.795 201.887C674.803 197.38 676.718 189.838 678.3 185.015C678.639 183.965 677.918 183.369 677.324 182.576C658.738 168.443 642.112 149.673 627.494 131.53C622.375 125.186 614.621 117.345 610.322 110.794C598.726 93.1281 595.387 69.9943 590.59 49.8149C587.071 34.8368 582.094 17.4533 581.718 2.06397Z" fill="#126E3D" style="fill:#126E3D;fill:color(display-p3 0.0706 0.4314 0.2392);fill-opacity:1;"/>
<path d="M833.209 63.8269C826.596 104.423 804.731 155.322 770.201 179.681C756.789 189.146 746.072 195.988 730.439 201.69C787.564 208.128 833.351 227.323 870.019 273.033C879.547 284.913 885.238 295.192 892.866 307.875C906.688 330.848 916.395 353.41 923.249 379.387C924.16 382.836 928.722 395.649 928.64 398.593C906.688 400.645 878.69 399.505 856.973 395.409C849.895 394.074 843.053 391.764 836.128 389.86C833.842 389.231 833.782 389.196 832.33 390.079C829.378 385.194 827.649 379.185 824.898 374.257C814.618 355.84 795.449 333.634 776.318 324.262C761.978 317.236 734.307 309.958 718.843 312.132L719.58 311.196C719.782 308.401 714.101 299.975 712.497 297.229C709.196 291.635 706.282 285.824 703.772 279.836C697.344 264.236 692.864 247.235 689.034 230.837C687.429 223.957 685.318 216.349 684.123 209.474C682.96 209.111 679.664 206.61 678.469 205.725C680.259 203.028 689.879 195.747 692.962 193.012L740.282 150.762C744.266 147.23 747.943 143.502 751.534 139.576C768.411 121.13 788.459 106.357 805.888 88.4665C813.614 80.5362 824.08 69.9861 833.209 63.8269Z" fill="#7AA647" style="fill:#7AA647;fill:color(display-p3 0.4784 0.6510 0.2784);fill-opacity:1;"/>
<path d="M684.123 209.474C697.535 214.285 751.518 259.361 766.092 270.909L854.146 340.504L906.192 380.853C910.884 384.558 923.429 393.847 926.518 398.156L928.64 398.593C906.688 400.645 878.69 399.505 856.973 395.409C849.895 394.074 843.053 391.764 836.128 389.86C833.842 389.231 833.782 389.196 832.33 390.079C829.378 385.194 827.649 379.185 824.899 374.257C814.618 355.84 795.449 333.634 776.318 324.262C761.978 317.236 734.307 309.958 718.843 312.132L719.58 311.196C719.782 308.401 714.101 299.975 712.497 297.229C709.196 291.635 706.282 285.824 703.772 279.836C697.344 264.236 692.864 247.235 689.034 230.837C687.429 223.957 685.318 216.349 684.123 209.474Z" fill="#578543" style="fill:#578543;fill:color(display-p3 0.3412 0.5216 0.2627);fill-opacity:1;"/>
<path d="M677.324 182.576C680.903 181.749 685.536 164.074 687.02 159.861C707.226 102.588 761.449 68.965 819.977 62.6349C822.416 62.3708 832.009 61.0106 833.433 62.1213L833.209 63.8269C824.08 69.9861 813.614 80.5362 805.888 88.4665C788.459 106.357 768.411 121.13 751.534 139.576C747.944 143.502 744.266 147.23 740.282 150.762L692.962 193.012C689.879 195.747 680.259 203.028 678.47 205.725C676.391 204.748 674.53 203.373 672.795 201.887C674.803 197.38 676.718 189.838 678.3 185.015C678.639 183.965 677.918 183.369 677.324 182.576Z" fill="#578543" style="fill:#578543;fill:color(display-p3 0.3412 0.5216 0.2627);fill-opacity:1;"/>
<path d="M537.743 2.17815C552.399 2.02615 567.061 1.98811 581.718 2.06397C582.094 17.4533 587.071 34.8368 590.59 49.8149C595.387 69.9943 598.726 93.1281 610.322 110.794C614.621 117.345 622.375 125.186 627.494 131.53C642.112 149.673 658.738 168.443 677.324 182.576C677.918 183.369 678.639 183.965 678.3 185.015C676.718 189.838 674.803 197.38 672.795 201.887C674.53 203.373 676.391 204.748 678.47 205.725C679.665 206.61 682.96 209.111 684.123 209.474C685.318 216.349 687.429 223.957 689.034 230.837C692.864 247.235 697.344 264.236 703.772 279.836C706.282 285.824 709.196 291.635 712.497 297.229C714.101 299.975 719.782 308.401 719.58 311.196L718.843 312.132C734.307 309.958 761.978 317.236 776.318 324.262C795.449 333.635 814.618 355.84 824.898 374.257C827.649 379.185 829.378 385.194 832.33 390.079L832.38 390.547C832.451 391.69 832.445 392.836 832.374 393.978C831.316 409.532 823.698 419.272 817.347 432.757C803.285 462.615 776.755 483.344 746.699 495.502C739.115 498.571 719.558 496.739 711.002 497.05C692.073 496.58 669.248 481.544 657.189 467.476C658.64 461.601 666.721 449.413 669.564 443.108C676.363 428.012 681.132 406.7 682.988 390.303C684.106 380.538 684.254 370.687 683.43 360.893C682.748 352.74 681.083 344.659 680.063 336.517C679.801 334.402 678.906 322.391 678.699 321.913C677.509 324.952 662.531 332.868 659.693 332.391C656.081 313.857 645.681 294.122 632.901 280.423C610.387 256.282 589.008 243.947 556.001 241.813C551.084 242.131 546.168 241.953 541.24 242.108C524.057 236.963 513.744 232.639 495.017 236.283C467.883 241.562 446.217 265.801 431.725 288.091C426.823 285.42 418.034 282.493 412.439 280.444C384.662 270.274 354.303 262.141 339.211 234.398C328.193 214.145 324.251 174.363 330.921 152.969C332.279 149.691 336.979 142.163 338.995 138.885C346.878 126.001 352.886 113.565 366.02 105.163C377.634 97.7324 386.53 100.766 399.309 100.32C405.026 100.12 411.592 99.0139 417.405 98.4697C428.057 97.4715 436.823 98.1854 447.206 100.436C450.41 100.077 462.508 82.1594 465.974 78.2177C483.605 58.1671 517.215 37.0189 543.936 34.6425C544.487 27.0583 540.198 9.81804 537.743 2.17815Z" fill="#7AA647" style="fill:#7AA647;fill:color(display-p3 0.4784 0.6510 0.2784);fill-opacity:1;"/>
<path d="M577.074 95.7238C578.689 99.8948 579.464 103.917 581.21 107.996L582.105 107.628C600.734 169.384 624.536 233.586 657.183 289.348C661.559 296.823 673.089 315.547 678.699 321.913C677.509 324.952 662.531 332.868 659.693 332.391C656.081 313.857 645.681 294.122 632.901 280.423C610.387 256.282 589.008 243.947 556.001 241.813C555.859 228.319 556.841 212.839 559.848 199.707C562.418 188.467 566.297 177.26 568.742 165.905C572.633 147.262 574.695 128.284 574.903 109.242C576.992 105.393 576.567 100.449 577.074 95.7238Z" fill="#126E3D" style="fill:#126E3D;fill:color(display-p3 0.0706 0.4314 0.2392);fill-opacity:1;"/>
<path d="M543.936 34.6425C540.4 47.3043 524.085 67.9438 516.489 79.669L471.925 149.245C465.977 158.733 461.009 169.165 454.701 178.395C444.308 193.603 434.895 211.29 423.979 226.029C421.971 207.942 421.462 180.138 425.578 162.591C429.714 144.957 438.504 117.118 447.448 101.633L447.206 100.436C450.41 100.077 462.508 82.1594 465.974 78.2177C483.605 58.1671 517.215 37.0189 543.936 34.6425Z" fill="#578543" style="fill:#578543;fill:color(display-p3 0.3412 0.5216 0.2627);fill-opacity:1;"/>
<path d="M696.913 317.307C693.786 310.977 688.057 302.6 684.199 296.471C679.561 288.955 675.075 281.346 670.743 273.651C649.686 237.374 632.945 198.757 620.864 158.587C637.61 165.808 658.809 189.878 672.795 201.887C674.53 203.373 676.391 204.748 678.47 205.725C679.665 206.61 682.96 209.111 684.123 209.474C685.318 216.349 687.429 223.957 689.034 230.837C692.864 247.235 697.344 264.236 703.772 279.836C706.282 285.824 709.196 291.635 712.497 297.229C714.101 299.975 719.782 308.401 719.58 311.196L718.843 312.132C712.432 312.38 702.626 314.394 696.913 317.307Z" fill="#126E3D" style="fill:#126E3D;fill:color(display-p3 0.0706 0.4314 0.2392);fill-opacity:1;"/>
<path d="M574.902 109.242C575.301 100.647 575.361 95.2774 574.46 86.8466C577.391 92.8432 580.386 101.252 582.105 107.628L581.21 107.996C579.464 103.917 578.689 99.8948 577.074 95.7239C576.567 100.449 576.992 105.393 574.902 109.242Z" fill="#2C671C" style="fill:#2C671C;fill:color(display-p3 0.1725 0.4039 0.1098);fill-opacity:1;"/>
<path d="M739.638 337.827C746.863 337.2 753.466 337.891 760.275 341.351C771.276 346.941 790.702 363.079 783.455 377.249C780.492 383.053 773.251 385.839 767.249 387.64C729.074 390.638 701.873 347.547 739.638 337.827Z" fill="#9EC361" style="fill:#9EC361;fill:color(display-p3 0.6196 0.7647 0.3804);fill-opacity:1;"/>
<path d="M548.312 88.2411L548.951 89.1498C549.671 95.7511 549.022 104.648 549.322 111.479C550.288 133.329 547.75 152.909 541.819 173.926C538.889 184.329 535.156 194.649 532.346 205.252C531.2 201.585 530.142 197.055 529.159 193.284C526.475 180.53 524.199 170.404 518.295 158.628C534.807 138.158 542.877 113.557 548.312 88.2411Z" fill="#126E3D" style="fill:#126E3D;fill:color(display-p3 0.0706 0.4314 0.2392);fill-opacity:1;"/>
<path d="M403.423 120.132C410.897 120.565 415.111 122.425 420.832 127C421.437 128.334 421.907 129.723 422.238 131.149C425.723 145.651 404.264 157.655 392.432 160.262C386.252 160.659 382.804 159.931 377.275 157.556C371.317 150.707 371.597 142.761 376.971 135.616C383.331 127.088 392.874 121.502 403.423 120.132Z" fill="#9EC361" style="fill:#9EC361;fill:color(display-p3 0.6196 0.7647 0.3804);fill-opacity:1;"/>
<path d="M28.6152 309.301C91.3159 263.637 158.072 239.65 234.938 261.133C248.56 267.985 265.138 270.584 277.905 280.129C285.273 285.639 293.268 290.45 300.111 296.688C302.158 298.434 310.742 306.644 311.868 307.07C299.172 315.28 292.806 319.646 281.675 330.25C261.91 352.716 248.272 373.129 243.257 403.483C228.614 458.357 253.362 514.723 301.064 544.337C293.554 546.242 286.562 549.042 279.163 551.318C267.091 555.034 251.289 554.358 239.13 551.345C218.415 546.209 197.159 527.658 186.482 509.526C175.415 494.67 164.815 459.357 169.579 418.915L168.419 418.614C175.415 395.092 175.415 390.335 175.415 384.389C118.942 379.038 70.0426 354.872 40.5844 325.032C37.6443 322.054 27.651 314.218 27.2003 310.803C27.9315 309.636 27.5315 309.931 28.6152 309.301Z" fill="#608D40" style="fill:#608D40;fill:color(display-p3 0.3765 0.5529 0.2510);fill-opacity:1;"/>
<path d="M28.6157 309.301C91.3163 263.637 158.073 239.65 234.938 261.133C248.56 267.985 265.138 270.584 277.905 280.129C285.274 285.639 293.269 290.45 300.111 296.688C302.159 298.434 310.743 306.644 311.868 307.07C299.172 315.28 292.807 319.646 281.675 330.25C279.06 327.954 254.009 328.216 247.931 327.747L85.1061 314.234C75.2525 313.513 34.875 312.76 28.6157 309.301Z" fill="#7AA647" style="fill:#7AA647;fill:color(display-p3 0.4784 0.6510 0.2784);fill-opacity:1;"/>
<path d="M172.852 386.37C188.681 386.028 199.65 386.408 215.482 386.37C211.852 405.193 208.996 431.794 209.59 441.488C211.662 475.298 213.508 496.295 227.75 514.079C230.56 520.822 248.232 547.824 250.581 553.636C228.451 552.142 204.091 538.874 191.874 520.604C165.253 491.606 165.06 452.417 169.277 416.616C169.93 414.785 172.714 388.473 172.852 386.37Z" fill="#7AA647" style="fill:#7AA647;fill:color(display-p3 0.4784 0.6510 0.2784);fill-opacity:1;"/>
<path d="M234.938 261.133L235.267 260.88C235.38 260.592 235.493 260.305 235.606 260.017C231.315 251.482 220.958 234.87 217.111 227.115C204.535 201.764 195.694 174.782 189.263 147.395C187.056 136.044 185.996 124.391 184.361 112.968C182.484 99.8385 181.554 86.8564 182.024 73.5916C182.076 72.1442 182.222 71.2011 183.273 70.2514L184.532 70.5587C190.719 71.9925 197.221 73.1315 203.25 74.8513C242.22 85.8429 278.236 105.42 308.657 132.149C313.869 136.765 324.775 146.727 328.446 152.224L330.921 152.969C324.251 174.363 328.193 214.145 339.211 234.398C354.303 262.141 384.662 270.274 412.439 280.444C418.034 282.492 426.823 285.42 431.725 288.091C446.217 265.801 467.883 241.562 495.017 236.283C513.744 232.639 524.057 236.963 541.24 242.108C504.399 245.974 478.527 260.693 455.782 289.463C443.92 304.469 442.876 309.871 435.372 326.55C429.413 322.518 425.849 319.518 420.478 314.753C413.071 307.983 401.304 301.438 391.676 298.375C373.276 292.52 349.61 292.446 331.168 298.327C324.655 300.404 317.935 303.957 311.868 307.07C310.743 306.644 302.159 298.434 300.112 296.688C293.269 290.45 285.274 285.639 277.905 280.129C265.138 270.584 248.56 267.985 234.938 261.133Z" fill="#5D8B40" style="fill:#5D8B40;fill:color(display-p3 0.3647 0.5451 0.2510);fill-opacity:1;"/>
<path d="M184.532 70.5587C190.719 71.9925 197.22 73.1315 203.25 74.8513C242.22 85.8429 278.236 105.42 308.657 132.149C313.869 136.765 324.775 146.727 328.446 152.224C327.462 156.463 326.101 159.896 324.007 163.71C315.058 180.002 308.906 196.021 306.059 214.499C300.995 204.312 284.445 188.341 276.182 179.292C252.247 152.837 228.813 125.931 205.896 98.5881C203.591 95.8647 184.649 73.3673 183.514 71.2098L184.532 70.5587Z" fill="#7AA647" style="fill:#7AA647;fill:color(display-p3 0.4784 0.6510 0.2784);fill-opacity:1;"/>
<path d="M556.001 241.813C589.008 243.947 610.387 256.282 632.901 280.423C645.681 294.122 656.081 313.857 659.693 332.391C663.289 355.863 664.964 372.735 661.09 396.428C655.639 429.729 636.202 461.004 609.263 480.994C614.256 484.156 622.495 491.057 626.85 495.379C643.924 510.565 657.374 530.436 662.929 552.791C664.697 562.735 667.48 572.767 669.117 582.329C667.971 612.659 664.899 633.011 649.811 659.82C645.14 668.127 640.077 675.916 633.037 682.432C629.436 685.762 625.049 689.402 620.22 690.603L616.64 691.503C618.812 691.771 619.199 691.814 621.208 690.963L622.195 691.367C622.424 695.902 601.127 714.099 595.316 715.234C594.836 715.327 595.136 718.875 595.179 719.344L593.46 716.369C590.17 715.895 578.373 721.363 574.471 722.575C562.996 726.139 551.133 726.319 539.205 726.232C536.302 726.21 529.58 725.484 527.261 725.861C517.537 723.17 500.811 716.992 492.125 712.189C484.242 707.828 475.472 701.349 467.695 696.448C467.694 706.48 468.198 717.002 468.534 727.061C468.554 741.23 458.675 751.404 449.225 761.151C420.504 790.777 398.371 803.363 356.691 803.444C351.23 803.477 345.772 803.182 340.347 802.56C322.268 800.159 299.972 794.215 285.066 783.256C280.455 777.509 272.619 764.906 268.563 758.439C265.254 753.194 262.507 748.74 259.538 743.277C245.644 711.588 247.61 677.313 255.004 644.211C262.74 616.19 279.272 591.859 300.539 572.303C308.642 565.819 315.92 560.383 324.829 555.056C316.64 551.367 309.32 548.305 301.065 544.337C253.362 514.723 228.615 458.357 243.258 403.483C248.272 373.129 261.911 352.716 281.675 330.25C292.807 319.646 299.172 315.28 311.868 307.07C317.934 303.957 324.655 300.404 331.168 298.327C349.61 292.446 373.276 292.52 391.676 298.375C401.304 301.438 413.07 307.983 420.478 314.753C425.849 319.518 429.413 322.518 435.372 326.55C442.876 309.871 443.92 304.469 455.782 289.463C478.527 260.693 504.399 245.974 541.24 242.108C546.168 241.953 551.084 242.131 556.001 241.813Z" fill="#F2B721" style="fill:#F2B721;fill:color(display-p3 0.9490 0.7176 0.1294);fill-opacity:1;"/>
<path d="M626.85 495.379C643.924 510.565 657.374 530.436 662.929 552.791C664.697 562.735 667.48 572.767 669.117 582.329C667.971 612.659 664.899 633.011 649.811 659.82C645.14 668.127 640.077 675.916 633.037 682.432C629.436 685.762 625.049 689.402 620.22 690.603L616.64 691.503C613.983 691.372 601.504 693.555 597.062 693.817C567.138 695.591 543.341 693.392 517.122 677.597C511.425 674.164 507.535 670.572 502.427 666.675C481.486 650.678 467.236 630.168 461.163 604.183C455.711 580.856 457.405 553.899 466.112 531.391C468.223 525.933 472.777 518.86 475.995 513.746C516.773 529.208 563.673 530.141 603.424 510.438C612.27 506.054 619.636 502.363 626.85 495.379Z" fill="#F2B721" style="fill:#F2B721;fill:color(display-p3 0.9490 0.7176 0.1294);fill-opacity:1;"/>
<path d="M606.044 530.463C622.037 529.923 627.041 538.819 634.942 550.794C644.011 564.526 643.591 592.082 627.324 600.711C615.02 600.897 601.7 587.667 597.733 576.768C593.744 565.819 589.046 556.181 594.263 544.473C597.177 537.946 599.201 533.449 606.044 530.463Z" fill="#FBD24F" style="fill:#FBD24F;fill:color(display-p3 0.9843 0.8235 0.3098);fill-opacity:1;"/>
<path d="M484.141 487.504C484.323 487.519 499.795 494.892 503.463 496.161C513.455 499.618 519.665 500.282 529.776 502.117C553.152 506.358 590.356 495.282 609.263 480.995C614.256 484.156 622.495 491.057 626.85 495.379C619.636 502.363 612.27 506.054 603.424 510.438C563.673 530.141 516.773 529.208 475.995 513.746C472.777 518.86 468.223 525.933 466.112 531.391C457.405 553.899 455.711 580.856 461.163 604.183C467.236 630.168 481.486 650.678 502.427 666.675C507.535 670.572 511.425 674.164 517.122 677.597C543.341 693.392 567.138 695.591 597.062 693.817C601.504 693.555 613.983 691.372 616.64 691.503C618.812 691.771 619.199 691.814 621.208 690.963L622.195 691.367C622.424 695.902 601.127 714.099 595.316 715.234C594.836 715.327 595.136 718.875 595.179 719.344L593.46 716.369C590.17 715.895 578.373 721.363 574.471 722.575C562.996 726.139 551.133 726.319 539.205 726.232C536.302 726.21 529.58 725.484 527.261 725.861C517.537 723.17 500.811 716.992 492.125 712.189C484.242 707.828 475.472 701.349 467.695 696.448C467.694 706.48 468.198 717.003 468.534 727.061C468.554 741.23 458.675 751.404 449.225 761.151C420.504 790.777 398.371 803.363 356.691 803.444C351.23 803.477 345.772 803.182 340.347 802.56C322.268 800.159 299.972 794.215 285.066 783.256C280.455 777.509 272.619 764.906 268.563 758.439C269.599 757.904 271.717 756.72 272.748 757.02C279.653 759.023 287.191 760.415 294.055 762.287C317.472 768.667 348.874 771.707 372.416 764.453C387.14 759.918 415.604 737.3 424.014 722.777C425.013 721.052 425.119 718.858 424.596 716.882C421.985 707.004 416.617 697.551 412.699 688.207C409.347 680.216 406.932 671.789 404.06 663.641C402.776 663.057 401.967 663.548 400.25 663.865C407.91 656.791 422.177 644.593 426.931 635.833C433.641 621.473 429.977 602.201 431.579 586.368C434.967 552.89 449.333 527.085 471.116 502.256C474.43 498.477 484.617 492.391 484.141 487.504Z" fill="#DF9E19" style="fill:#DF9E19;fill:color(display-p3 0.8745 0.6196 0.0980);fill-opacity:1;"/>
<path d="M328.432 558.298C328.983 557.518 329.544 556.743 330.116 555.979C335.898 548.294 348.111 533.781 354.565 527.772C384.769 499.663 426.949 481.353 467.502 475.561C471.937 477.928 475.339 480.718 479.272 483.771C480.68 484.894 482.672 486.599 484.141 487.504C484.617 492.391 474.43 498.477 471.116 502.256C449.333 527.085 434.967 552.889 431.579 586.368C429.977 602.201 433.641 621.473 426.931 635.833C422.177 644.593 407.91 656.791 400.25 663.865C378.402 682.596 333.044 698.91 305.069 706.862C300.123 708.27 287.701 711.49 282.89 711.899C281.435 712.052 278.92 713.286 277.482 713.902C278.328 691.018 279.742 676.254 285.633 653.958C292.204 629.076 299.256 606.939 312.616 584.518C318.034 575.425 322.014 566.938 328.432 558.298Z" fill="#578543" style="fill:#578543;fill:color(display-p3 0.3412 0.5216 0.2627);fill-opacity:1;"/>
<path d="M479.272 483.771C480.68 484.894 482.672 486.599 484.141 487.504C484.617 492.391 474.43 498.477 471.116 502.256C449.333 527.085 434.967 552.89 431.579 586.368C429.977 602.201 433.641 621.473 426.931 635.833C422.177 644.593 407.91 656.791 400.25 663.865C378.402 682.596 333.044 698.91 305.069 706.862C300.123 708.27 287.701 711.49 282.89 711.899C283.102 710.415 283.317 709.089 284.27 707.861C297.358 691.045 311.011 674.502 325.353 658.729C329.104 654.608 332.805 650.64 336.435 646.53L434.177 535.37C444.258 523.914 454.056 511.579 464.204 500.048C468.521 495.141 475.61 488.251 479.272 483.771Z" fill="#7AA647" style="fill:#7AA647;fill:color(display-p3 0.4784 0.6510 0.2784);fill-opacity:1;"/>
<path d="M537.437 269.229C539.991 268.643 544.094 269.152 546.703 269.292C556.312 269.507 566.412 278.805 567.722 288.312C569.577 301.795 557.223 316.909 545.977 322.914C539.069 326.604 530.846 327.418 523.381 328.515C496.955 328.934 479.309 309.746 500.352 287.059C511.611 274.919 520.914 270.03 537.437 269.229Z" fill="#FBD24F" style="fill:#FBD24F;fill:color(display-p3 0.9843 0.8235 0.3098);fill-opacity:1;"/>
<path d="M343.205 319.971C353.453 318.447 362.647 321.329 371.862 325.428C372.231 327.014 372.589 328.603 372.936 330.194C374.426 336.978 375.192 341.628 370.893 347.822C363.45 358.547 351.004 365.02 338.561 367.701C315.809 369.813 295.429 358.719 313.788 334.328C320.904 324.873 331.581 320.903 343.205 319.971Z" fill="#FBD24F" style="fill:#FBD24F;fill:color(display-p3 0.9843 0.8235 0.3098);fill-opacity:1;"/>
<path d="M467.695 696.448C475.472 701.349 484.242 707.828 492.125 712.189C500.811 716.992 517.537 723.17 527.261 725.861C529.58 725.484 536.302 726.21 539.205 726.232C551.133 726.319 562.996 726.139 574.471 722.575C578.373 721.363 590.17 715.895 593.46 716.369L595.179 719.344C596.947 722.318 602.89 732.214 604.079 735.385C609.132 748.833 612.351 765.861 615.533 780.063C617.262 787.791 616.722 797.141 619.718 804.989C618.414 807.914 618.905 828.851 618.676 833.888C617.644 856.833 616.16 879.031 611.326 901.572C610.802 904.022 610.36 909.033 609.083 910.593L608.936 910.632C603.866 908.006 598.099 906.948 591.807 903.056C585.554 899.197 570.794 887.801 564.731 885.28L563.76 886.284C554.909 908.416 541.306 931.131 521.029 944.301C512.997 949.519 504.281 953.934 495.915 958.623C487.533 963.382 479.156 969.68 470.462 973.643C463.89 976.639 451.376 977.813 444.839 974.276C430 966.242 414.391 956.718 399.495 948.64C380.428 938.309 366.787 918.824 358.817 898.93C358.504 898.155 358.206 897.374 357.926 896.589C356.81 892.992 353.958 888.096 352.453 883.462L351.617 884.095C347.43 887.326 341.659 894.225 336.919 898.171C317.876 914.021 298.932 928.282 276.323 938.669C272.287 940.524 269.378 941.098 265.845 942.528C267.186 937.168 274.83 925.084 277.8 919.282C288.686 898.144 299.822 877.137 311.204 856.266C319.408 841.393 332.249 819.223 338.569 803.816L337.949 803.237C339.336 802.822 338.772 802.647 340.347 802.56C345.772 803.182 351.23 803.477 356.691 803.444C398.371 803.362 420.504 790.777 449.225 761.151C458.675 751.403 468.554 741.23 468.534 727.061C468.198 717.002 467.694 706.48 467.695 696.448Z" fill="#608D40" style="fill:#608D40;fill:color(display-p3 0.3765 0.5529 0.2510);fill-opacity:1;"/>
<path d="M467.695 696.448C475.472 701.349 484.242 707.828 492.125 712.189C500.811 716.992 517.537 723.17 527.26 725.861C529.58 725.484 536.302 726.21 539.205 726.232C551.133 726.319 562.996 726.139 574.471 722.575C578.373 721.363 590.17 715.895 593.46 716.369L595.179 719.344C596.947 722.318 602.89 732.214 604.079 735.385C609.132 748.833 612.351 765.861 615.533 780.063C617.262 787.791 616.722 797.141 619.718 804.989C618.414 807.914 618.905 828.851 618.676 833.888C617.644 856.833 616.16 879.031 611.326 901.572C610.802 904.022 610.36 909.033 609.083 910.593L608.936 910.632C603.866 908.006 598.099 906.948 591.807 903.056C585.554 899.197 570.794 887.801 564.731 885.28L563.76 886.284C562.854 881.034 525.449 852.08 519.425 844.269C497.445 815.768 480.256 787.305 472.613 751.655C472.074 749.144 468.877 727.624 468.534 727.061C468.198 717.002 467.694 706.48 467.695 696.448Z" fill="#578543" style="fill:#578543;fill:color(display-p3 0.3412 0.5216 0.2627);fill-opacity:1;"/>
<path d="M527.26 725.861C529.58 725.484 536.302 726.21 539.205 726.232C551.133 726.319 562.996 726.139 574.471 722.575C578.373 721.363 590.17 715.895 593.46 716.369L595.179 719.344C596.947 722.318 602.89 732.214 604.079 735.385C609.132 748.833 612.351 765.861 615.533 780.063C617.262 787.791 616.722 797.141 619.718 804.989C618.414 807.914 618.905 828.851 618.676 833.888C617.644 856.833 616.16 879.031 611.326 901.572C610.802 904.022 610.36 909.033 609.083 910.593L608.936 910.632C607.369 902.308 601.356 893.68 598.022 885.613C593.379 874.38 588.315 863.301 583.404 852.2L547.139 769.513C542.856 759.607 539.445 749.362 534.889 739.5C532.515 734.364 529.749 730.936 527.49 726.341L527.26 725.861Z" fill="#7AA647" style="fill:#7AA647;fill:color(display-p3 0.4784 0.6510 0.2784);fill-opacity:1;"/>
<path d="M349.038 830.237C400.261 829.822 417.971 826.367 457.653 791.972C466.773 817.073 484.326 841.551 503.309 860.294C510.083 866.98 520.396 875.456 526.338 882.529C520.271 897.102 498.689 919.484 484.141 925.368C458.309 935.58 429.46 935.001 404.057 923.763C388.176 916.854 375.817 906.702 362.335 896.288C361.749 895.835 358.845 896.458 357.926 896.589C356.81 892.992 353.958 888.096 352.453 883.462L352.298 882.474C351.666 878.583 350.126 874.08 349.702 870.243C348.201 856.67 347.973 843.789 349.038 830.237Z" fill="#7AA647" style="fill:#7AA647;fill:color(display-p3 0.4784 0.6510 0.2784);fill-opacity:1;"/>
<path d="M678.699 321.913C678.906 322.391 679.801 334.402 680.063 336.517C681.083 344.659 682.747 352.74 683.43 360.893C684.254 370.687 684.106 380.538 682.988 390.303C681.132 406.7 676.363 428.012 669.564 443.108C666.721 449.413 658.64 461.601 657.189 467.476C669.248 481.544 692.073 496.58 711.002 497.05C719.558 496.739 739.115 498.571 746.699 495.502C776.755 483.344 803.285 462.615 817.347 432.757C823.698 419.272 831.316 409.532 832.374 393.978C832.445 392.836 832.451 391.69 832.38 390.547C834.857 398.231 838.24 405.551 841.017 413.122C849.857 456.963 832.38 482.054 827.54 492.599C822.427 496.971 820.506 499.836 818.138 506.113C831.315 509.142 837.733 512.255 849.857 517.795C886.144 534.387 921.721 561.437 944.028 594.953L944.033 596.045C943.357 596.498 942.713 596.995 941.987 597.311C907.632 620.256 867.455 634.578 826.355 640.063C821.253 640.745 797.73 640.21 795.378 641.269C786.615 640.063 777.649 639.37 768.957 637.847C742.847 633.535 718.232 622.745 697.36 606.47C691.309 601.727 685.421 596.771 679.708 591.624C676.631 588.846 672.527 584.349 669.117 582.329C667.48 572.767 664.697 562.736 662.929 552.791C657.374 530.436 643.924 510.565 626.85 495.379C622.495 491.057 614.256 484.156 609.263 480.995C636.202 461.004 655.639 429.729 661.09 396.428C664.964 372.735 663.289 355.863 659.693 332.391C662.531 332.868 677.509 324.952 678.699 321.913Z" fill="#608D40" style="fill:#608D40;fill:color(display-p3 0.3765 0.5529 0.2510);fill-opacity:1;"/>
<path d="M662.929 552.791C666.88 551.165 682.829 554.985 688.302 555.537C699.499 556.672 710.855 558.118 722.068 559.303C743.458 563.298 765.907 565.617 787.16 569.094C817.297 574.022 847.445 580.474 877.675 583.541C885.402 584.321 939.564 595.51 941.987 597.311C907.632 620.256 867.455 634.578 826.355 640.063C821.253 640.745 797.73 640.21 795.378 641.269C786.615 640.063 777.649 639.37 768.957 637.847C742.847 633.535 718.232 622.745 697.36 606.469C691.309 601.727 685.421 596.771 679.708 591.624C676.631 588.846 672.527 584.349 669.117 582.329C667.48 572.767 664.697 562.735 662.929 552.791Z" fill="#7AA647" style="fill:#7AA647;fill:color(display-p3 0.4784 0.6510 0.2784);fill-opacity:1;"/>
<path d="M663.006 552.668C666.425 555.416 687.53 555.559 693.08 556.614C704.438 558.765 716.041 560.657 727.429 562.765C749.657 565.082 772.44 569.352 794.382 572.138C825.496 576.09 856.938 578.904 887.602 584.71C895.438 586.197 945.21 597.8 948.119 596.739C920.946 564.202 892.482 531.287 853.596 513.919C848.77 511.761 825.446 505.426 823.437 503.701C814.456 502.329 805.425 500.395 796.421 499.354C769.453 495.972 742.076 499.383 716.793 509.269C709.456 512.159 702.218 515.306 695.096 518.691C691.258 520.52 661.741 536.039 657.796 537.027C659.881 542.24 661.962 545.368 663.006 552.668Z" fill="#578543" style="fill:#578543;fill:color(display-p3 0.3412 0.5216 0.2627);fill-opacity:1;"/>
<path d="M669.117 582.329C672.527 584.349 676.631 588.846 679.708 591.624C685.421 596.771 691.309 601.727 697.36 606.469C718.232 622.745 742.847 633.535 768.957 637.847C777.649 639.37 786.615 640.063 795.378 641.269C801.271 646.825 808.529 665.617 810.411 673.252C811.693 681.357 813.931 692.022 814.4 700.072C815.666 721.68 808.878 746.59 799.858 766.2C790.183 788.937 782.779 809.77 763.037 825.865C756.68 829.719 751.054 832.742 743.998 835.275C703.832 849.689 646.854 839.428 619.718 804.989C616.722 797.141 617.262 787.791 615.533 780.063C612.351 765.861 609.132 748.833 604.079 735.385C602.89 732.214 596.947 722.318 595.179 719.344C595.136 718.875 594.836 715.327 595.316 715.234C601.127 714.099 622.424 695.902 622.195 691.367L621.208 690.963C619.199 691.814 618.812 691.771 616.64 691.503L620.22 690.603C625.049 689.402 629.436 685.762 633.037 682.432C640.077 675.916 645.14 668.127 649.811 659.82C664.899 633.011 667.971 612.659 669.117 582.329Z" fill="#ECB01D" style="fill:#ECB01D;fill:color(display-p3 0.9255 0.6902 0.1137);fill-opacity:1;"/>
<path d="M775.576 683.906C793.812 683.289 796.928 711.119 793.408 723.923C791.275 731.673 785.043 735.292 778.61 738.921C777.409 739.342 776.624 739.811 775.39 739.14C762.163 731.952 758.262 712.047 762.278 698.615C764.155 692.333 770.217 686.711 775.576 683.906Z" fill="#FBD24F" style="fill:#FBD24F;fill:color(display-p3 0.9843 0.8235 0.3098);fill-opacity:1;"/>
<path d="M172.952 608.986C185.293 585.964 210.274 585.173 213.828 579.879L213.483 579.142C208.64 578.427 192.735 584.512 186.842 585.959C146.273 595.892 98.1896 579.928 67.4256 552.66C66.3135 551.672 48.4959 536.232 52.7619 534.54C61.2825 531.162 73.2402 530.561 82.4701 529.24C105.051 527.074 129.205 527.849 151.123 533.907C169.442 539.272 188 551.176 203.735 561.802C209.816 565.906 215.654 575.518 223.455 576.62C239.681 578.902 257.152 577.363 273.389 575.452C280.547 574.568 294.512 571.239 300.539 572.303C279.272 591.859 262.74 616.19 255.004 644.211C247.61 677.313 245.644 711.588 259.538 743.277C257.209 745.061 256.176 747.561 254.525 749.968C247.805 759.754 239.775 769.223 231.712 777.94C212.363 798.63 190.163 816.456 165.784 830.876C153.181 838.211 137.451 845.448 124.207 851.774C117.618 854.923 107.705 857.423 100.667 859.497C99.9455 859.426 99.7403 859.295 99.0441 859.066C95.668 850.104 101.637 793.402 104.434 781.132C108.323 764.077 116.492 736.422 123.42 720.343C147.333 664.831 194.106 617.767 252.929 600.87C259.95 598.85 266.933 596.738 273.978 594.779C267.99 594.795 259.672 595.865 253.941 595.69C220.731 594.648 204.012 596.225 172.952 608.986Z" fill="#7AA647" style="fill:#7AA647;fill:color(display-p3 0.4784 0.6510 0.2784);fill-opacity:1;"/>
<path d="M100.667 859.497C101.393 855.469 104.264 852.92 106.702 849.678C110.03 845.181 113.302 840.64 116.516 836.055C123.792 825.652 130.085 814.442 137.445 804.187C160.308 772.323 182.602 740.329 204.705 707.937L232.01 667.216C235.103 662.598 249.511 639.495 254.368 639.533C255.433 641.542 255.031 641.585 255.004 644.211C247.61 677.313 245.644 711.588 259.538 743.277C257.209 745.061 256.176 747.561 254.524 749.968C247.805 759.754 239.775 769.223 231.712 777.94C212.363 798.63 190.163 816.456 165.784 830.876C153.181 838.211 137.451 845.448 124.207 851.774C117.618 854.923 107.705 857.423 100.667 859.497Z" fill="#578543" style="fill:#578543;fill:color(display-p3 0.3412 0.5216 0.2627);fill-opacity:1;"/>
<path d="M810.411 673.252C814.367 674.426 817.527 678.361 820.528 681.232C834.459 694.603 843.238 709.05 852.553 725.626C876.055 767.461 885.642 819.971 884.943 867.722C884.867 873.081 885.183 890.59 883.83 895.339L883.263 895.743C860.35 893.292 836.101 878.179 816.566 866.477C806.379 860.375 799.22 856.484 789.883 848.892C782.904 843.216 770.114 829.757 763.037 825.865C782.779 809.77 790.183 788.937 799.858 766.2C808.878 746.59 815.666 721.68 814.4 700.072C813.931 692.022 811.693 681.357 810.411 673.252Z" fill="#7AA647" style="fill:#7AA647;fill:color(display-p3 0.4784 0.6510 0.2784);fill-opacity:1;"/>
<path d="M799.858 766.2C815.742 789.641 830.95 813.285 845.852 837.234C850.31 844.4 880.48 893.789 883.263 895.743C860.35 893.292 836.101 878.179 816.566 866.477C806.379 860.375 799.22 856.484 789.883 848.892C782.904 843.216 770.114 829.757 763.037 825.865C782.779 809.77 790.183 788.937 799.858 766.2Z" fill="#578543" style="fill:#578543;fill:color(display-p3 0.3412 0.5216 0.2627);fill-opacity:1;"/>
<path d="M285.066 783.256C299.972 794.215 322.268 800.159 340.347 802.56C338.772 802.648 339.336 802.822 337.949 803.237L338.569 803.816C332.249 819.223 319.408 841.393 311.204 856.266C299.822 877.137 288.686 898.144 277.8 919.282C274.83 925.084 267.186 937.168 265.845 942.528L264.346 942.478C264.112 942.184 263.592 941.589 263.567 941.223C261.429 913.792 260.019 887.425 263.347 860.021C266.674 832.628 276.834 809.066 285.066 783.256Z" fill="#7AA647" style="fill:#7AA647;fill:color(display-p3 0.4784 0.6510 0.2784);fill-opacity:1;"/>
<path d="M679.169 596.106C675.186 593.283 672.141 591.292 669.026 590.208C668.864 594.082 668.773 597.052 668.682 600.02C667.305 608.848 666.612 617.85 664.422 626.47C655.364 658.584 642.708 677.687 595.246 715.34C595.246 717.426 602.607 740.084 607.756 748.709C613.283 763.116 616.53 787.766 619.223 804.381C620.877 810.942 650.974 830.074 657.794 832.13C666.431 834.434 675.87 839.059 684.63 840.473C700.375 843.012 743.948 839.55 758.914 827.959C763.339 826.235 775.644 815.434 776.674 810.829C776.722 809.271 780.53 807.999 779.763 806.745C769.075 806.646 755.378 807.288 745.474 807.55C726.988 810.079 701.578 807.104 691.95 804.381C661.422 790.855 648.976 763.379 638.782 733.34C637.895 730.556 636.617 726.386 637.919 724.668C644.356 716.183 651.599 708.308 658.556 700.218L658.613 700.098C662.391 692.129 666.17 684.157 670.485 675.684C672.926 670.757 674.827 666.335 677.123 660.473C684.823 644.313 684.461 628.225 685.801 611.587C685.684 607.267 685.609 603.808 685.308 599.859C684.507 598.957 683.932 598.543 683.357 598.13L683.347 598.127C682.267 597.731 681.184 597.333 679.169 596.106Z" fill="#DF9E19" style="fill:#DF9E19;fill:color(display-p3 0.8745 0.6196 0.0980);fill-opacity:1;"/>
<path d="M351.312 490.102C339.414 489.983 329.282 489.878 318.995 486.973C274.653 460.647 261.519 439.311 243.938 403.552C235.772 414.92 236.301 458.297 247.047 481.821C273.776 535.187 311.302 550.895 329.418 556.839C348.065 524.665 428.88 479.82 467.022 475.409C422.196 437.963 418.026 361.841 435.748 326.387L422.196 315.959C408.644 333.686 394.992 405.637 413.856 453.605C405.516 470.195 363.21 490.221 351.312 490.102Z" fill="#DF9E19" style="fill:#DF9E19;fill:color(display-p3 0.8745 0.6196 0.0980);fill-opacity:1;"/>
<path d="M475.304 479.768C472.451 477.642 469.597 475.517 465.992 473.29C456.215 460.285 444.873 448.375 438.803 434.205C432.486 419.46 424.841 403.309 433.112 385.795C448.157 405.431 461.694 426.266 482.917 439.361C496.652 447.836 511.229 456.715 528.185 456.265C544.965 455.82 562.318 455.628 578.29 451.225C600.508 445.101 618.77 431.28 632.42 412.065C644.397 395.206 653.873 377.305 657.545 356.672C657.824 355.1 660.23 353.907 662.419 352.456C661.58 379.229 661.661 406.428 649.014 431.248C641.327 446.335 633.031 461.034 619.028 471.526C616.73 473.247 615.357 476.204 613.665 479.369C613.666 480.918 613.559 481.688 612.642 483.117C600.167 489.291 588.555 494.925 576.805 500.254C572.833 502.055 568.573 504.037 564.339 504.312C538.745 505.972 513.693 503.77 490.312 491.924C487.137 488.648 483.962 485.372 480.034 482.117C479.281 482.138 479.386 481.896 479.173 481.31C477.815 480.389 476.669 480.055 475.468 479.733C475.414 479.745 475.304 479.768 475.304 479.768Z" fill="#FDA51D" style="fill:#FDA51D;fill:color(display-p3 0.9922 0.6471 0.1137);fill-opacity:1;"/>
</svg>
