<svg width="256" height="256" viewBox="0 0 256 256" fill="none" xmlns="http://www.w3.org/2000/svg">
<g clip-path="url(#clip0_30_2846)">
<rect width="256" height="256" rx="66.56" fill="white"/>
<path d="M27 123C27 67.7715 71.7715 23 127 23H130C185.228 23 230 67.7715 230 123V326H27V123Z" fill="#ECE1D8"/>
<circle cx="100" cy="467" r="271" fill="#A96135"/>
<path d="M99.123 83.0262C115.703 81.8179 127.986 122.721 126.057 151.662C125.3 163.003 123.655 180.21 121.653 196.853C114.51 196.289 107.289 196 100 196C97.6219 196 95.251 196.031 92.8877 196.092C87.5829 178.068 82.6224 158.681 80.1045 144.378C73.9485 109.408 82.5435 84.2347 99.123 83.0262Z" fill="#6E6D59"/>
<ellipse cx="100.925" cy="99.0812" rx="1.9456" ry="2.07531" fill="#ECE1D8"/>
<ellipse cx="89.3401" cy="122.429" rx="1.9456" ry="2.07531" fill="#ECE1D8"/>
<ellipse cx="111.062" cy="122.429" rx="1.9456" ry="2.07531" fill="#ECE1D8"/>
<ellipse cx="102.373" cy="136.437" rx="1.9456" ry="2.07531" fill="#ECE1D8"/>
<ellipse cx="95.1331" cy="156.673" rx="1.9456" ry="2.07531" fill="#ECE1D8"/>
<ellipse cx="115.406" cy="148.89" rx="1.9456" ry="2.07531" fill="#ECE1D8"/>
<path d="M74.2926 158.705C71.9185 154.697 70.1263 147.355 70.7937 146.181C71.4611 145.006 80.1553 147.253 83.3648 150.665C86.5744 154.076 85.4736 155.646 82.2754 158.655C79.0771 161.664 77.5021 162.116 74.2926 158.705Z" fill="#CE00A2"/>
<path d="M84.8737 152.515C87.1567 156.576 88.7825 163.956 88.0887 165.115C87.3949 166.274 78.7538 163.832 75.6221 160.348C72.4905 156.865 73.6264 155.321 76.8918 152.385C80.1572 149.449 81.742 149.032 84.8737 152.515Z" fill="#83815A"/>
<path d="M121.538 102.902C124.95 99.7305 131.743 96.4191 133.033 96.8216C134.322 97.2242 133.974 106.197 131.323 110.058C128.671 113.92 126.904 113.178 123.284 110.692C119.664 108.206 118.887 106.763 121.538 102.902Z" fill="#CE00A2"/>
<path d="M130.276 112.349C126.794 115.443 119.927 118.6 118.647 118.168C117.367 117.736 117.918 108.774 120.656 104.973C123.394 101.173 125.144 101.955 128.707 104.522C132.27 107.089 133.014 108.549 130.276 112.349Z" fill="#83815A"/>
<ellipse cx="106.717" cy="172.754" rx="1.9456" ry="2.59414" fill="#ECE1D8"/>
<path d="M142.734 151.785C148.444 121.429 164.687 104.313 180.523 109.371C196.36 114.429 194.415 151.785 183.147 174.354C171.88 196.922 142.735 248.104 138.849 245.174C134.963 242.242 137.024 182.142 142.734 151.785Z" fill="#6E6D59"/>
<ellipse cx="171.76" cy="127.645" rx="1.9456" ry="2.07531" transform="rotate(20.2052 171.76 127.645)" fill="#ECE1D8"/>
<ellipse cx="153.387" cy="145.254" rx="1.9456" ry="2.07531" transform="rotate(20.2052 153.387 145.254)" fill="#ECE1D8"/>
<ellipse cx="173.77" cy="153.319" rx="1.9456" ry="2.07531" transform="rotate(20.2052 173.77 153.319)" fill="#ECE1D8"/>
<ellipse cx="161.115" cy="163.239" rx="1.9456" ry="2.07531" transform="rotate(20.2052 161.115 163.239)" fill="#ECE1D8"/>
<ellipse cx="147.819" cy="179.541" rx="1.9456" ry="2.07531" transform="rotate(20.2052 147.819 179.541)" fill="#ECE1D8"/>
<path d="M131.736 145.742C130.344 141.297 130.283 133.739 131.202 132.749C132.12 131.759 140.068 135.939 142.41 139.995C144.752 144.052 143.321 145.327 139.518 147.523C135.715 149.718 134.078 149.798 131.736 145.742Z" fill="#CE00A2"/>
<path d="M143.557 142.243C144.848 146.718 144.739 154.275 143.798 155.244C142.857 156.213 135.006 151.855 132.756 147.746C130.506 143.638 131.966 142.395 135.817 140.286C139.669 138.177 141.307 138.134 143.557 142.243Z" fill="#83815A"/>
<ellipse cx="169.345" cy="179.762" rx="1.9456" ry="2.07531" transform="rotate(20.2052 169.345 179.762)" fill="#ECE1D8"/>
<ellipse cx="153.523" cy="198.935" rx="1.9456" ry="2.59414" transform="rotate(20.2052 153.523 198.935)" fill="#ECE1D8"/>
<circle cx="100.001" cy="467.002" r="271" fill="#A96135"/>
<circle cx="183.5" cy="45.5" r="22.5" fill="#BC6733" fill-opacity="0.91"/>
</g>
<defs>
<clipPath id="clip0_30_2846">
<rect width="256" height="256" rx="66.56" fill="white"/>
</clipPath>
</defs>
</svg>
