<svg width="471" height="491" viewBox="0 0 471 491" fill="none" xmlns="http://www.w3.org/2000/svg">
<g clip-path="url(#clip0_33_8)">
<rect width="471" height="491" fill="#126E3D"/>
<path d="M279.011 0.989605L335.739 0.974139C347.294 0.982461 359.042 0.898874 370.584 1.33811C375.193 1.51356 380.702 2.5875 385.272 3.20909C406.984 5.94274 424.982 14.2494 440.5 29.8416C454.379 43.7884 461.997 59.4005 466.391 78.4714C468.781 88.8295 469.213 94.7312 469.673 105.283C470.134 114.877 470.328 124.483 470.252 134.088C470.364 154.976 470.354 175.865 470.215 196.753C470.176 208.958 470.55 222.457 470.163 234.505C470.32 246.695 470.364 258.888 470.294 271.081L470.254 331.929C470.234 376.062 475.677 425.453 442.271 459.935C416.592 486.437 387.583 489.871 352.74 490.528C334.297 490.692 315.856 490.745 297.413 490.687L195.841 490.685L139.218 490.674C119.328 490.651 98.2563 490.91 78.8208 487.128C42.8292 480.125 13.5838 451.903 5.42857 416.183C4.32163 411.337 2.88027 406.291 2.33772 401.327C1.40312 392.774 1.32165 384.049 1.00322 375.45C0.888141 353.538 0.984087 331.57 0.988563 309.653L0.981339 279.199C0.975345 274.326 0.790364 268.644 0.944804 263.902C0.651967 257.106 0.922923 248.143 0.919809 241.183L0.936717 192.59L0.96082 154.191C0.956606 147.72 0.660105 138.513 1.11657 132.333C1.05263 131.338 1.07823 130.093 1.09304 129.065C1.26646 117.047 1.20427 104.704 2.23639 92.7331C2.60407 88.4548 3.9697 84.1257 4.70528 79.9513C10.9569 44.4736 37.7443 14.6362 72.8701 5.71286C91.4453 0.993949 110.185 0.986754 129.545 0.981127L165.904 0.995964L257.919 1.04435C264.949 0.971471 271.982 0.953229 279.011 0.989605Z" fill="#126E3D"/>
<path d="M279.011 0.989605L335.739 0.974139C347.294 0.982461 359.042 0.898874 370.584 1.33811C375.193 1.51356 380.702 2.5875 385.272 3.20909C406.984 5.94274 424.982 14.2494 440.5 29.8416C454.379 43.7884 461.997 59.4005 466.391 78.4714C468.781 88.8295 469.213 94.7312 469.673 105.283C470.134 114.877 470.328 124.483 470.252 134.088C470.364 154.976 470.354 175.865 470.215 196.753C456.485 203.425 443.81 209.43 428.989 213.439C426.239 214.184 422.658 215.906 419.782 216.902C414.396 218.743 408.902 220.251 403.33 221.417C405.11 214.325 405.937 205.054 403.38 198.089C402.048 194.458 400.425 190.949 399.237 187.264C399.271 187.812 399.268 188.362 399.234 188.91C398.727 196.367 395.073 201.038 392.027 207.503C385.282 221.82 372.557 231.76 358.142 237.589C354.504 239.061 345.124 238.183 341.02 238.332C331.941 238.106 320.994 230.897 315.21 224.151C315.906 221.334 319.782 215.49 321.145 212.467C324.406 205.228 326.694 195.01 327.584 187.147C328.12 182.465 328.191 177.741 327.796 173.045C327.469 169.136 326.67 165.261 326.181 161.357C326.055 160.343 325.626 154.584 325.527 154.355C324.956 155.812 317.772 159.608 316.411 159.379C314.678 150.492 309.69 141.029 303.561 134.461C292.762 122.885 282.508 116.971 266.677 115.948C264.318 116.1 261.96 116.015 259.597 116.089C241.927 117.943 229.518 125 218.608 138.795C212.919 145.99 212.418 148.581 208.819 156.578C205.961 154.645 204.251 153.206 201.675 150.922C198.122 147.675 192.479 144.537 187.861 143.068C179.036 140.261 167.685 140.226 158.839 143.045C155.716 144.041 152.492 145.745 149.582 147.238C143.493 151.174 140.44 153.268 135.101 158.352C125.621 169.125 119.08 178.912 116.675 193.467C109.651 219.778 121.521 246.805 144.401 261.005C140.799 261.919 137.445 263.261 133.896 264.352C128.106 266.135 120.527 265.81 114.695 264.366C104.759 261.903 94.5642 253.008 89.4435 244.313C86.4397 241.042 82.7563 238.508 80.153 235.408C76.2774 230.615 75.9058 220.83 77.5635 215.166C79.1943 209.593 80.6316 206.844 81.3359 200.866L80.7798 200.722C76.4761 205.508 72.0598 209.623 67.5159 214.063C54.9212 226.373 42.6463 236.976 26.9052 245.023C18.2688 249.438 9.45252 251.979 1.24834 257.441C1.21555 258.914 1.22602 262.633 0.944804 263.902C0.651967 257.106 0.922923 248.143 0.919809 241.183L0.936717 192.59L0.96082 154.191C0.956606 147.72 0.660105 138.513 1.11657 132.333C1.05263 131.338 1.07823 130.093 1.09304 129.065C1.26646 117.047 1.20427 104.704 2.23639 92.7331C2.60407 88.4548 3.9697 84.1257 4.70528 79.9513C10.9569 44.4736 37.7443 14.6362 72.8701 5.71286C91.4453 0.993949 110.185 0.986754 129.545 0.981127L165.904 0.995964L257.919 1.04435C264.949 0.971471 271.982 0.953229 279.011 0.989605Z" fill="#126E3D"/>
<path d="M279.012 0.98976L335.739 0.974294C347.294 0.982616 359.043 0.899029 370.584 1.33827C375.193 1.51371 380.703 2.58766 385.272 3.20925C406.984 5.9429 424.983 14.2496 440.5 29.8418C454.379 43.7886 461.998 59.4006 466.392 78.4716C468.781 88.8297 469.213 94.7313 469.674 105.283C470.134 114.877 470.328 124.483 470.252 134.088C470.365 154.976 470.354 175.865 470.216 196.753C456.486 203.425 443.811 209.43 428.99 213.439C426.239 214.184 422.659 215.906 419.782 216.902C414.396 218.744 408.903 220.252 403.331 221.417C405.11 214.325 405.937 205.054 403.38 198.089C402.048 194.459 400.426 190.949 399.237 187.264L399.214 187.04C397.798 184.698 396.968 181.816 395.649 179.454C390.718 170.623 381.524 159.975 372.348 155.481C365.471 152.112 352.199 148.623 344.782 149.665L345.135 149.216C345.232 147.876 342.507 143.836 341.738 142.519C340.154 139.837 338.757 137.05 337.553 134.179C334.47 126.699 332.321 118.547 330.484 110.685C329.714 107.386 328.702 103.738 328.128 100.441C327.571 100.267 325.99 99.068 325.417 98.6437C324.42 98.1753 323.527 97.5161 322.695 96.8035C323.658 94.6423 324.577 91.0261 325.336 88.7132C325.498 88.2097 325.153 87.9242 324.867 87.5437C315.953 80.7672 307.979 71.767 300.967 63.0678C298.512 60.0258 294.793 56.266 292.731 53.125C287.169 44.6543 285.568 33.5618 283.267 23.886C281.579 16.7041 279.192 8.36884 279.012 0.98976Z" fill="#126E3D"/>
<path d="M399.634 30.6045C396.462 50.0701 385.975 74.4755 369.414 86.1558C362.981 90.6939 357.84 93.9746 350.342 96.7086C377.741 99.7956 399.702 108.999 417.29 130.917C421.859 136.614 424.589 141.542 428.248 147.624C434.877 158.639 439.533 169.457 442.82 181.913C443.257 183.567 445.445 189.711 445.406 191.122C434.877 192.106 421.448 191.559 411.032 189.595C407.638 188.955 404.356 187.848 401.034 186.935C399.938 186.633 399.909 186.616 399.213 187.04C397.797 184.697 396.967 181.816 395.648 179.453C390.717 170.622 381.523 159.975 372.347 155.481C365.469 152.112 352.198 148.623 344.781 149.665L345.134 149.216C345.231 147.876 342.506 143.836 341.737 142.519C340.153 139.837 338.756 137.05 337.552 134.179C334.469 126.699 332.32 118.547 330.483 110.685C329.713 107.385 328.701 103.738 328.127 100.441C327.57 100.267 325.989 99.0679 325.416 98.6436C326.274 97.3503 330.889 93.8589 332.367 92.5476L355.064 72.2893C356.974 70.5956 358.738 68.8081 360.46 66.9257C368.555 58.081 378.171 50.9975 386.53 42.419C390.236 38.6165 395.256 33.5578 399.634 30.6045Z" fill="#7AA647"/>
<path d="M328.129 100.441C334.562 102.748 360.454 124.362 367.444 129.899L409.678 163.269L434.641 182.616C436.891 184.393 442.908 188.846 444.39 190.913L445.408 191.122C434.879 192.106 421.45 191.559 411.034 189.595C407.639 188.955 404.357 187.848 401.036 186.935C399.939 186.633 399.911 186.616 399.214 187.04C397.798 184.697 396.969 181.816 395.65 179.453C390.719 170.622 381.525 159.975 372.349 155.481C365.471 152.112 352.199 148.622 344.782 149.665L345.135 149.216C345.232 147.876 342.508 143.836 341.738 142.519C340.155 139.837 338.757 137.05 337.553 134.179C334.47 126.699 332.322 118.547 330.484 110.685C329.715 107.385 328.702 103.738 328.129 100.441Z" fill="#578543"/>
<path d="M324.868 87.5435C326.584 87.1473 328.806 78.6721 329.518 76.652C339.21 49.1899 365.217 33.0681 393.289 30.0328C394.459 29.9062 399.06 29.254 399.743 29.7866L399.635 30.6044C395.257 33.5577 390.237 38.6164 386.531 42.4189C378.172 50.9975 368.556 58.0809 360.461 66.9256C358.739 68.808 356.975 70.5955 355.065 72.2892L332.368 92.5475C330.89 93.8589 326.276 97.3502 325.417 98.6435C324.42 98.1751 323.528 97.5159 322.695 96.8032C323.658 94.6421 324.577 91.0259 325.336 88.713C325.498 88.2095 325.153 87.924 324.868 87.5435Z" fill="#578543"/>
<path d="M257.92 1.04435C264.95 0.971471 271.982 0.953229 279.012 0.989605C279.193 8.36868 281.58 16.7039 283.268 23.8858C285.568 33.5617 287.17 44.6541 292.731 53.1249C294.794 56.2658 298.513 60.0257 300.968 63.0677C307.979 71.7669 315.954 80.767 324.868 87.5435C325.153 87.924 325.499 88.2096 325.336 88.7131C324.577 91.026 323.659 94.6422 322.696 96.8033C323.528 97.5159 324.42 98.1751 325.417 98.6436C325.991 99.0678 327.571 100.267 328.129 100.441C328.702 103.738 329.715 107.385 330.484 110.685C332.322 118.547 334.47 126.699 337.553 134.179C338.757 137.05 340.155 139.837 341.738 142.519C342.508 143.836 345.232 147.876 345.135 149.216L344.782 149.665C352.199 148.622 365.471 152.112 372.349 155.481C381.525 159.975 390.719 170.622 395.65 179.453C396.969 181.816 397.798 184.697 399.214 187.04L399.238 187.264C399.272 187.812 399.269 188.362 399.235 188.91C398.727 196.367 395.074 201.038 392.027 207.503C385.283 221.82 372.558 231.76 358.143 237.589C354.505 239.061 345.125 238.183 341.021 238.332C331.942 238.106 320.994 230.897 315.21 224.151C315.907 221.334 319.783 215.49 321.146 212.467C324.407 205.228 326.695 195.01 327.584 187.147C328.121 182.465 328.192 177.741 327.796 173.045C327.469 169.136 326.671 165.261 326.182 161.357C326.056 160.343 325.627 154.584 325.527 154.355C324.957 155.812 317.773 159.608 316.412 159.379C314.679 150.492 309.691 141.029 303.561 134.461C292.763 122.885 282.509 116.971 266.677 115.948C264.319 116.1 261.961 116.015 259.598 116.089C251.356 113.622 246.41 111.548 237.427 113.296C224.413 115.827 214.021 127.449 207.071 138.137C204.719 136.857 200.504 135.453 197.82 134.47C184.497 129.594 169.936 125.695 162.697 112.392C157.413 102.681 155.522 83.6055 158.722 73.3476C159.373 71.7758 161.627 68.1661 162.594 66.5941C166.375 60.4164 169.257 54.4535 175.556 50.4249C181.127 46.8619 185.394 48.3164 191.523 48.1026C194.265 48.0068 197.414 47.4763 200.202 47.2154C205.311 46.7368 209.516 47.0791 214.496 48.1581C216.033 47.9861 221.835 39.3947 223.497 37.5047C231.954 27.8906 248.074 17.7502 260.891 16.6108C261.155 12.9742 259.098 4.70762 257.92 1.04435Z" fill="#7AA647"/>
<path d="M276.784 45.8989C277.559 47.8988 277.93 49.8273 278.768 51.7833L279.197 51.6069C288.132 81.2184 299.548 112.003 315.207 138.74C317.306 142.325 322.836 151.302 325.526 154.355C324.956 155.812 317.772 159.608 316.411 159.379C314.678 150.492 309.69 141.029 303.56 134.461C292.762 122.885 282.508 116.971 266.676 115.948C266.608 109.477 267.079 102.055 268.521 95.758C269.754 90.3687 271.615 84.9947 272.787 79.55C274.653 70.6111 275.643 61.5115 275.742 52.3807C276.745 50.5352 276.54 48.1645 276.784 45.8989Z" fill="#126E3D"/>
<path d="M260.889 16.6108C259.193 22.682 251.368 32.5785 247.725 38.2007L226.35 71.5618C223.497 76.1112 221.115 81.1131 218.089 85.539C213.104 92.8313 208.589 101.312 203.354 108.379C202.391 99.7067 202.147 86.3746 204.121 77.9612C206.104 69.5059 210.321 56.1573 214.61 48.7323L214.494 48.1581C216.031 47.9862 221.833 39.3948 223.496 37.5048C231.952 27.8907 248.073 17.7503 260.889 16.6108Z" fill="#578543"/>
<path d="M334.263 152.146C332.763 149.111 330.015 145.094 328.165 142.156C325.94 138.551 323.789 134.903 321.711 131.213C311.611 113.819 303.582 95.3025 297.787 76.041C305.819 79.5038 315.987 91.0449 322.695 96.8033C323.527 97.5159 324.42 98.1752 325.417 98.6436C325.99 99.0678 327.571 100.267 328.128 100.441C328.701 103.738 329.714 107.385 330.484 110.685C332.321 118.547 334.47 126.699 337.553 134.179C338.757 137.05 340.154 139.837 341.738 142.519C342.507 143.836 345.231 147.876 345.135 149.216L344.781 149.665C341.706 149.784 337.003 150.75 334.263 152.146Z" fill="#126E3D"/>
<path d="M275.743 52.3807C275.934 48.2594 275.963 45.6848 275.531 41.6423C276.937 44.5176 278.374 48.5494 279.198 51.6069L278.769 51.7833C277.931 49.8273 277.56 47.8988 276.785 45.8989C276.541 48.1644 276.746 50.5352 275.743 52.3807Z" fill="#2C671C"/>
<path d="M354.756 161.985C358.221 161.685 361.388 162.016 364.654 163.675C369.93 166.356 379.248 174.094 375.772 180.888C374.351 183.671 370.878 185.007 367.999 185.87C349.689 187.308 336.642 166.646 354.756 161.985Z" fill="#9EC361"/>
<path d="M262.989 42.311L263.295 42.7468C263.641 45.912 263.329 50.178 263.473 53.4532C263.936 63.9302 262.719 73.319 259.875 83.3963C258.469 88.3846 256.679 93.3328 255.331 98.4169C254.781 96.6588 254.274 94.4866 253.803 92.6783C252.515 86.5629 251.424 81.7075 248.592 76.0608C256.511 66.2457 260.382 54.45 262.989 42.311Z" fill="#126E3D"/>
<path d="M193.494 57.6023C197.079 57.8101 199.1 58.702 201.844 60.8955C202.134 61.5349 202.36 62.2012 202.519 62.885C204.19 69.8387 193.898 75.5942 188.223 76.8444C185.259 77.0346 183.605 76.6855 180.953 75.5469C178.095 72.2625 178.23 68.4527 180.807 65.0268C183.858 60.9377 188.435 58.2592 193.494 57.6023Z" fill="#9EC361"/>
<path d="M13.7251 148.307C43.7984 126.412 75.8171 114.91 112.684 125.211C119.218 128.497 127.169 129.743 133.293 134.32C136.827 136.962 140.662 139.268 143.944 142.26C144.925 143.097 149.043 147.034 149.582 147.238C143.493 151.174 140.44 153.268 135.101 158.352C125.621 169.125 119.08 178.912 116.675 193.467C109.651 219.779 121.521 246.805 144.401 261.005C140.799 261.919 137.445 263.261 133.896 264.353C128.106 266.135 120.527 265.81 114.695 264.366C104.759 261.903 94.5642 253.008 89.4435 244.314C86.4397 241.043 82.7563 238.508 80.153 235.408C76.2774 230.615 75.9058 220.83 77.5635 215.166C79.1943 209.593 80.6316 206.844 81.3359 200.866L80.7798 200.722C76.4761 205.508 72.0598 209.623 67.5159 214.064C54.9212 226.373 42.6463 236.976 26.9052 245.023C18.2688 249.438 9.45252 251.979 1.24834 257.441C1.21555 258.914 1.22602 262.633 0.944804 263.902C0.651967 257.106 0.922923 248.143 0.919809 241.183L0.936717 192.59L0.96082 154.191C0.956606 147.72 0.660105 138.513 1.11657 132.333C1.38907 135.759 1.22838 140.512 1.22066 144.087L1.19815 164.419L1.1954 234.666C4.65221 234.176 8.34205 232.86 11.8093 232.109C14.9515 231.428 18.2219 230.984 21.2785 229.999C36.9879 224.937 46.7854 212.62 57.1835 200.63C61.6759 195.449 66.1586 189.615 71.4712 185.355C52.5422 179.266 33.595 170.158 19.4659 155.85C18.0557 154.422 13.2626 150.665 13.0464 149.028C13.3971 148.468 13.2053 148.609 13.7251 148.307Z" fill="#608D40"/>
<path d="M13.7246 148.307C43.7979 126.412 75.8166 114.91 112.684 125.211C119.217 128.497 127.169 129.743 133.292 134.32C136.826 136.962 140.661 139.268 143.943 142.26C144.925 143.097 149.042 147.034 149.582 147.238C143.493 151.174 140.439 153.268 135.1 158.352C133.846 157.251 121.831 157.377 118.915 157.152L40.8193 150.673C36.0932 150.327 16.7268 149.966 13.7246 148.307Z" fill="#7AA647"/>
<path d="M81.7585 197.1C89.3504 196.936 96.9439 196.845 104.538 196.827C103.94 201.428 103.212 207.831 103.497 212.479C104.099 222.286 107.544 233.365 111.325 242.438C112.672 245.672 115.174 248.912 116.3 251.699C110.449 251.304 106.31 251.113 100.671 249.038C97.9238 248.028 91.4978 244.243 89.4433 244.314C86.4396 241.043 82.7562 238.508 80.1528 235.408C76.2773 230.615 75.9057 220.83 77.5634 215.166C79.1942 209.593 80.6315 206.844 81.3358 200.867C81.6488 199.988 81.692 198.108 81.7585 197.1Z" fill="#7AA647"/>
<path d="M112.683 125.211L112.841 125.09C112.895 124.952 112.95 124.814 113.004 124.676C110.945 120.584 105.978 112.618 104.133 108.9C98.1009 96.7443 93.8606 83.8066 90.7757 70.6747C89.7176 65.2323 89.2088 59.6448 88.425 54.1674C87.5244 47.8719 87.0784 41.6471 87.304 35.2867C87.3286 34.5926 87.399 34.1404 87.9028 33.6851L88.5069 33.8324C91.4745 34.5199 94.5926 35.0661 97.4846 35.8907C116.176 41.1611 133.451 50.5483 148.041 63.3643C150.541 65.5778 155.772 70.3543 157.533 72.9905L158.72 73.3477C155.521 83.6056 157.411 102.681 162.696 112.392C169.935 125.695 184.496 129.594 197.818 134.471C200.502 135.453 204.718 136.857 207.069 138.138C214.02 127.449 224.411 115.827 237.426 113.296C246.408 111.548 251.355 113.622 259.596 116.089C241.926 117.943 229.517 125 218.608 138.795C212.918 145.99 212.417 148.581 208.818 156.578C205.96 154.645 204.25 153.207 201.674 150.922C198.121 147.675 192.478 144.537 187.86 143.069C179.035 140.261 167.684 140.226 158.839 143.045C155.715 144.041 152.491 145.745 149.582 147.238C149.042 147.034 144.925 143.097 143.943 142.26C140.661 139.268 136.826 136.962 133.292 134.32C127.168 129.743 119.217 128.497 112.683 125.211Z" fill="#5D8B40"/>
<path d="M88.5079 33.8323C91.4755 34.5198 94.5936 35.0659 97.4856 35.8906C116.177 41.1609 133.452 50.5482 148.042 63.3642C150.542 65.5777 155.773 70.3542 157.534 72.9903C157.062 75.0227 156.409 76.6688 155.405 78.4976C151.112 86.3094 148.162 93.9905 146.796 102.851C144.368 97.9658 136.429 90.3079 132.466 85.9692C120.986 73.284 109.747 60.3829 98.7547 47.2722C97.6492 45.9663 88.5642 35.179 88.0195 34.1445L88.5079 33.8323Z" fill="#7AA647"/>
<path d="M266.676 115.948C282.507 116.971 292.762 122.885 303.56 134.461C309.689 141.029 314.678 150.492 316.41 159.379C318.135 170.633 318.939 178.723 317.08 190.084C314.466 206.052 305.143 221.048 292.222 230.633C294.617 232.149 298.569 235.458 300.658 237.53C308.847 244.812 315.298 254.34 317.962 265.059C318.81 269.827 320.145 274.637 320.93 279.222C320.381 293.765 318.907 303.524 311.671 316.379C309.43 320.362 307.002 324.096 303.625 327.221C301.898 328.817 299.794 330.563 297.478 331.139L295.761 331.57C296.802 331.699 296.988 331.72 297.951 331.311L298.425 331.505C298.535 333.68 288.32 342.405 285.533 342.949C285.303 342.994 285.446 344.695 285.467 344.92L284.643 343.493C283.065 343.266 277.407 345.888 275.535 346.469C270.031 348.178 264.342 348.264 258.62 348.222C257.228 348.212 254.004 347.864 252.891 348.044C248.227 346.754 240.205 343.792 236.039 341.489C232.258 339.398 228.052 336.291 224.322 333.941C224.321 338.751 224.563 343.797 224.724 348.62C224.734 355.414 219.995 360.292 215.463 364.966C201.687 379.171 191.071 385.206 171.08 385.245C168.461 385.261 165.843 385.12 163.241 384.821C154.57 383.67 143.876 380.82 136.727 375.565C134.515 372.809 130.757 366.767 128.811 363.665C127.224 361.15 125.907 359.015 124.483 356.395C117.819 341.201 118.762 324.766 122.308 308.894C126.018 295.458 133.948 283.792 144.148 274.415C148.034 271.306 151.525 268.699 155.798 266.145C151.87 264.376 148.36 262.908 144.4 261.005C121.521 246.805 109.651 219.778 116.674 193.467C119.079 178.912 125.621 169.125 135.1 158.352C140.439 153.268 143.493 151.174 149.582 147.238C152.492 145.745 155.715 144.041 158.839 143.045C167.684 140.226 179.035 140.261 187.86 143.068C192.478 144.537 198.122 147.675 201.675 150.922C204.251 153.206 205.96 154.645 208.818 156.578C212.418 148.581 212.918 145.99 218.608 138.795C229.517 125 241.926 117.943 259.597 116.089C261.96 116.015 264.318 116.1 266.676 115.948Z" fill="#F2B721"/>
<path d="M300.658 237.531C308.847 244.812 315.299 254.34 317.963 265.059C318.811 269.827 320.146 274.637 320.931 279.222C320.381 293.765 318.908 303.524 311.671 316.379C309.431 320.362 307.002 324.096 303.626 327.221C301.899 328.817 299.795 330.563 297.478 331.139L295.762 331.57C294.487 331.508 288.501 332.554 286.371 332.68C272.018 333.531 260.605 332.476 248.029 324.902C245.297 323.256 243.431 321.534 240.981 319.666C230.937 311.995 224.102 302.16 221.189 289.701C218.574 278.516 219.387 265.59 223.563 254.798C224.576 252.181 226.76 248.789 228.303 246.337C247.862 253.751 270.356 254.199 289.423 244.751C293.665 242.649 297.198 240.879 300.658 237.531Z" fill="#F2B721"/>
<path d="M290.679 254.353C298.35 254.094 300.749 258.36 304.539 264.101C308.889 270.686 308.687 283.899 300.886 288.037C294.984 288.126 288.595 281.782 286.693 276.556C284.779 271.306 282.526 266.684 285.028 261.071C286.426 257.941 287.397 255.785 290.679 254.353Z" fill="#FBD24F"/>
<path d="M232.211 233.754C232.298 233.762 239.719 237.297 241.478 237.905C246.271 239.563 249.249 239.881 254.099 240.761C265.311 242.795 283.155 237.484 292.224 230.633C294.618 232.149 298.57 235.458 300.659 237.53C297.199 240.879 293.666 242.649 289.423 244.751C270.357 254.198 247.862 253.751 228.304 246.337C226.76 248.789 224.576 252.181 223.564 254.798C219.387 265.59 218.575 278.516 221.19 289.701C224.103 302.16 230.938 311.995 240.982 319.666C243.431 321.534 245.297 323.256 248.03 324.902C260.605 332.476 272.019 333.531 286.372 332.68C288.502 332.554 294.488 331.508 295.762 331.57C296.804 331.699 296.99 331.72 297.953 331.311L298.426 331.505C298.536 333.68 288.321 342.405 285.534 342.949C285.304 342.994 285.448 344.695 285.469 344.92L284.644 343.493C283.066 343.266 277.408 345.888 275.536 346.469C270.033 348.178 264.343 348.264 258.622 348.222C257.229 348.212 254.005 347.864 252.893 348.044C248.229 346.754 240.207 343.792 236.04 341.489C232.259 339.398 228.053 336.291 224.323 333.941C224.323 338.751 224.564 343.797 224.725 348.62C224.735 355.414 219.997 360.292 215.464 364.966C201.688 379.171 191.073 385.206 171.082 385.245C168.462 385.261 165.845 385.12 163.242 384.821C154.571 383.67 143.877 380.82 136.728 375.565C134.516 372.809 130.758 366.767 128.812 363.665C129.31 363.409 130.325 362.841 130.82 362.985C134.132 363.945 137.747 364.613 141.039 365.51C152.271 368.57 167.332 370.027 178.624 366.549C185.686 364.375 199.338 353.53 203.372 346.566C203.851 345.739 203.902 344.687 203.651 343.739C202.399 339.003 199.824 334.47 197.945 329.99C196.338 326.158 195.179 322.118 193.802 318.211C193.186 317.931 192.798 318.166 191.974 318.318C195.648 314.926 202.491 309.077 204.771 304.877C207.99 297.992 206.232 288.751 207 281.159C208.626 265.106 215.516 252.733 225.964 240.828C227.553 239.016 232.439 236.098 232.211 233.754Z" fill="#DF9E19"/>
<path d="M157.527 267.7C157.791 267.325 158.061 266.954 158.335 266.587C161.108 262.903 166.966 255.944 170.062 253.063C184.548 239.584 204.78 230.805 224.23 228.028C226.357 229.163 227.989 230.501 229.875 231.965C230.551 232.503 231.506 233.32 232.21 233.754C232.439 236.098 227.553 239.016 225.963 240.828C215.516 252.733 208.625 265.106 207 281.159C206.232 288.751 207.989 297.992 204.771 304.877C202.49 309.077 195.647 314.926 191.973 318.318C181.495 327.299 159.74 335.122 146.322 338.935C143.949 339.61 137.992 341.154 135.684 341.35C134.986 341.423 133.78 342.015 133.09 342.311C133.496 331.337 134.174 324.258 136.999 313.568C140.151 301.637 143.533 291.022 149.942 280.272C152.54 275.912 154.449 271.842 157.527 267.7Z" fill="#578543"/>
<path d="M229.875 231.965C230.551 232.503 231.506 233.32 232.21 233.754C232.439 236.098 227.553 239.016 225.963 240.828C215.515 252.733 208.625 265.106 207 281.159C206.231 288.751 207.989 297.992 204.771 304.877C202.49 309.077 195.647 314.926 191.973 318.318C181.495 327.299 159.739 335.122 146.321 338.935C143.949 339.61 137.991 341.154 135.684 341.35C135.785 340.638 135.889 340.002 136.345 339.414C142.623 331.351 149.172 323.418 156.05 315.855C157.849 313.879 159.625 311.977 161.366 310.006L208.246 256.706C213.081 251.212 217.781 245.298 222.648 239.769C224.719 237.416 228.119 234.112 229.875 231.965Z" fill="#7AA647"/>
<path d="M257.773 129.093C258.998 128.812 260.966 129.056 262.217 129.123C266.826 129.226 271.67 133.685 272.298 138.243C273.188 144.708 267.263 151.955 261.869 154.835C258.555 156.604 254.611 156.995 251.031 157.52C238.356 157.721 229.892 148.521 239.986 137.643C245.386 131.821 249.848 129.477 257.773 129.093Z" fill="#FBD24F"/>
<path d="M164.612 153.423C169.527 152.693 173.937 154.075 178.357 156.04C178.534 156.801 178.705 157.562 178.872 158.326C179.587 161.579 179.954 163.808 177.892 166.778C174.322 171.92 168.352 175.024 162.384 176.31C151.472 177.322 141.697 172.003 150.502 160.307C153.916 155.774 159.036 153.87 164.612 153.423Z" fill="#FBD24F"/>
<path d="M224.322 333.941C228.052 336.291 232.258 339.398 236.039 341.489C240.205 343.792 248.227 346.754 252.891 348.044C254.004 347.864 257.228 348.212 258.62 348.222C264.341 348.264 270.031 348.178 275.535 346.469C277.406 345.888 283.065 343.266 284.643 343.493L285.467 344.92C286.315 346.346 289.165 351.091 289.736 352.611C292.16 359.059 293.704 367.225 295.229 374.034C296.059 377.74 295.8 382.223 297.237 385.986C296.611 387.389 296.847 397.427 296.737 399.843C296.242 410.845 295.53 421.488 293.212 432.296C292.96 433.472 292.748 435.874 292.136 436.622L292.065 436.641C289.634 435.382 286.868 434.874 283.85 433.008C280.851 431.158 273.771 425.694 270.863 424.485L270.398 424.966C266.153 435.578 259.628 446.47 249.902 452.785C246.05 455.287 241.869 457.404 237.857 459.652C233.837 461.934 229.819 464.954 225.649 466.854C222.497 468.291 216.494 468.854 213.359 467.158C206.242 463.305 198.755 458.739 191.611 454.866C182.466 449.912 175.923 440.569 172.1 431.03C171.95 430.658 171.807 430.284 171.673 429.907C171.137 428.183 169.769 425.835 169.048 423.613L168.647 423.917C166.638 425.466 163.87 428.774 161.597 430.666C152.463 438.266 143.377 445.104 132.533 450.084C130.597 450.974 129.202 451.249 127.508 451.935C128.151 449.365 131.817 443.571 133.242 440.789C138.463 430.653 143.804 420.58 149.263 410.573C153.198 403.441 159.357 392.811 162.388 385.423L162.091 385.146C162.756 384.947 162.486 384.863 163.241 384.821C165.843 385.12 168.461 385.261 171.08 385.245C191.071 385.206 201.687 379.171 215.463 364.966C219.995 360.292 224.734 355.414 224.724 348.62C224.563 343.797 224.321 338.751 224.322 333.941Z" fill="#608D40"/>
<path d="M224.322 333.941C228.052 336.291 232.259 339.398 236.04 341.489C240.206 343.792 248.228 346.754 252.892 348.044C254.004 347.864 257.228 348.212 258.621 348.222C264.342 348.264 270.032 348.178 275.536 346.469C277.407 345.888 283.065 343.266 284.643 343.493L285.468 344.92C286.316 346.346 289.166 351.091 289.737 352.611C292.16 359.059 293.704 367.225 295.23 374.034C296.06 377.74 295.801 382.223 297.237 385.986C296.612 387.389 296.847 397.427 296.737 399.843C296.243 410.845 295.531 421.488 293.212 432.296C292.961 433.472 292.749 435.874 292.136 436.622L292.066 436.641C289.634 435.382 286.868 434.874 283.85 433.008C280.851 431.158 273.772 425.694 270.864 424.485L270.398 424.966C269.964 422.449 252.023 408.565 249.133 404.821C238.591 391.154 230.347 377.507 226.681 360.412C226.423 359.209 224.889 348.89 224.725 348.62C224.564 343.797 224.322 338.751 224.322 333.941Z" fill="#578543"/>
<path d="M252.893 348.044C254.005 347.864 257.229 348.212 258.622 348.222C264.343 348.264 270.033 348.178 275.536 346.469C277.408 345.888 283.066 343.266 284.644 343.493L285.469 344.92C286.317 346.346 289.167 351.091 289.737 352.611C292.161 359.059 293.705 367.225 295.231 374.034C296.06 377.74 295.801 382.223 297.238 385.986C296.613 387.389 296.848 397.427 296.738 399.843C296.244 410.845 295.532 421.488 293.213 432.296C292.962 433.472 292.75 435.874 292.137 436.622L292.067 436.641C291.316 432.65 288.431 428.512 286.832 424.644C284.605 419.259 282.176 413.946 279.821 408.623L262.427 368.975C260.373 364.225 258.737 359.313 256.551 354.584C255.413 352.122 254.086 350.478 253.003 348.275L252.893 348.044Z" fill="#7AA647"/>
<path d="M167.41 398.092C191.978 397.893 200.472 396.237 219.505 379.744C223.879 391.78 232.298 403.517 241.403 412.504C244.652 415.71 249.599 419.774 252.449 423.166C249.539 430.153 239.187 440.885 232.21 443.707C219.82 448.603 205.983 448.326 193.799 442.937C186.182 439.624 180.254 434.756 173.788 429.763C173.506 429.546 172.114 429.844 171.673 429.907C171.137 428.182 169.769 425.835 169.048 423.613L168.973 423.139C168.67 421.274 167.932 419.114 167.728 417.275C167.009 410.766 166.899 404.59 167.41 398.092Z" fill="#7AA647"/>
<path d="M325.526 154.354C325.626 154.584 326.055 160.343 326.181 161.357C326.67 165.261 327.468 169.136 327.795 173.045C328.191 177.741 328.12 182.465 327.583 187.147C326.694 195.009 324.406 205.228 321.145 212.467C319.782 215.49 315.906 221.334 315.209 224.151C320.993 230.897 331.941 238.106 341.02 238.331C345.124 238.183 354.504 239.061 358.142 237.589C372.557 231.76 385.282 221.82 392.026 207.503C395.073 201.038 398.727 196.367 399.234 188.91C399.268 188.362 399.271 187.812 399.237 187.264C400.425 190.949 402.048 194.458 403.38 198.089C405.937 205.054 405.11 214.325 403.33 221.417C408.902 220.251 414.396 218.743 419.782 216.902C422.658 215.906 426.238 214.184 428.989 213.439C443.81 209.43 456.485 203.424 470.215 196.753C470.176 208.958 470.55 222.457 470.163 234.505L469.775 231.672C460.921 228.216 442.753 229.163 433.449 231.389C427.076 232.914 421.86 234.732 415.079 235.86C408.619 236.935 402.469 235.687 396.915 236.197C394.463 238.294 393.542 239.667 392.406 242.677C398.726 244.129 401.804 245.622 407.62 248.279C425.024 256.234 442.088 269.204 452.787 285.275L452.79 285.799C452.465 286.016 452.156 286.254 451.808 286.406C435.33 297.408 416.06 304.275 396.347 306.905C393.9 307.232 382.618 306.976 381.49 307.483C377.286 306.905 372.986 306.573 368.817 305.843C356.294 303.775 344.488 298.601 334.477 290.797C331.575 288.523 328.751 286.147 326.011 283.679C324.534 282.347 322.566 280.191 320.931 279.222C320.145 274.637 318.811 269.827 317.963 265.059C315.298 254.34 308.847 244.812 300.658 237.53C298.569 235.458 294.617 232.149 292.223 230.633C305.144 221.048 314.466 206.052 317.081 190.084C318.939 178.723 318.135 170.633 316.411 159.379C317.772 159.608 324.956 155.812 325.526 154.354Z" fill="#608D40"/>
<path d="M317.963 265.059C319.858 264.279 327.508 266.111 330.133 266.375C335.503 266.92 340.95 267.613 346.328 268.181C356.587 270.097 367.354 271.209 377.548 272.876C392.003 275.239 406.463 278.333 420.962 279.803C424.668 280.178 450.646 285.542 451.808 286.406C435.331 297.408 416.06 304.275 396.348 306.905C393.901 307.232 382.618 306.976 381.49 307.483C377.287 306.905 372.987 306.573 368.817 305.843C356.294 303.775 344.488 298.601 334.477 290.797C331.575 288.523 328.751 286.147 326.011 283.679C324.535 282.347 322.567 280.191 320.931 279.222C320.146 274.637 318.811 269.827 317.963 265.059Z" fill="#7AA647"/>
<path d="M318 265C319.64 266.318 329.763 266.386 332.425 266.892C337.872 267.924 343.438 268.831 348.9 269.841C359.561 270.952 370.488 273 381.013 274.336C395.936 276.231 411.016 277.58 425.724 280.364C429.483 281.077 453.355 286.641 454.75 286.132C441.717 270.53 428.065 254.748 409.414 246.42C407.099 245.385 395.912 242.348 394.948 241.521C390.641 240.863 386.309 239.935 381.991 239.437C369.056 237.815 355.925 239.45 343.798 244.191C340.279 245.576 336.808 247.085 333.392 248.708C331.551 249.585 317.394 257.027 315.501 257.5C316.501 260 317.5 261.5 318 265Z" fill="#578543"/>
<path d="M320.931 279.222C322.567 280.191 324.535 282.347 326.011 283.679C328.751 286.147 331.575 288.523 334.477 290.797C344.488 298.601 356.294 303.775 368.817 305.843C372.987 306.573 377.287 306.905 381.49 307.484C384.316 310.148 387.797 319.158 388.7 322.819C389.315 326.705 390.388 331.819 390.613 335.679C391.221 346.04 387.965 357.984 383.639 367.387C378.998 378.289 375.447 388.278 365.978 395.996C362.929 397.844 360.23 399.293 356.846 400.508C337.581 407.419 310.253 402.499 297.237 385.986C295.801 382.223 296.06 377.74 295.23 374.034C293.704 367.225 292.16 359.06 289.737 352.611C289.166 351.091 286.316 346.346 285.468 344.92C285.447 344.695 285.303 342.994 285.533 342.949C288.321 342.405 298.536 333.68 298.426 331.505L297.952 331.311C296.989 331.72 296.803 331.699 295.761 331.57L297.478 331.139C299.794 330.563 301.899 328.817 303.626 327.221C307.002 324.096 309.431 320.362 311.671 316.379C318.908 303.524 320.381 293.765 320.931 279.222Z" fill="#ECB01D"/>
<path d="M371.993 327.928C380.739 327.632 382.234 340.976 380.546 347.116C379.522 350.832 376.534 352.567 373.448 354.307C372.872 354.509 372.495 354.734 371.904 354.412C365.56 350.965 363.688 341.421 365.615 334.981C366.515 331.968 369.423 329.273 371.993 327.928Z" fill="#FBD24F"/>
<path d="M82.953 292.004C88.8723 280.965 100.854 280.586 102.559 278.047L102.393 277.694C100.07 277.351 92.4416 280.269 89.6153 280.963C70.157 285.726 47.0946 278.071 32.3392 264.996C31.8058 264.523 23.2599 257.119 25.306 256.308C29.3928 254.688 35.1281 254.4 39.555 253.767C50.3858 252.728 61.9707 253.099 72.4832 256.004C81.2696 258.577 90.1707 264.284 97.7178 269.38C100.634 271.348 103.434 275.956 107.176 276.485C114.959 277.579 123.339 276.841 131.126 275.925C134.559 275.501 141.257 273.905 144.148 274.415C133.948 283.792 126.019 295.458 122.308 308.894C118.762 324.766 117.819 341.201 124.483 356.395C123.366 357.251 122.87 358.45 122.078 359.604C118.855 364.296 115.004 368.837 111.136 373.016C101.856 382.937 91.2084 391.484 79.515 398.398C73.4704 401.916 65.9258 405.386 59.5737 408.419C56.4134 409.929 51.6585 411.128 48.2831 412.122C47.9369 412.088 47.8384 412.025 47.5045 411.915C45.8852 407.618 48.7479 380.43 50.0895 374.547C51.9548 366.369 55.8732 353.108 59.196 345.399C70.6653 318.781 93.0993 296.215 121.313 288.112C124.68 287.144 128.03 286.131 131.409 285.192C128.537 285.2 124.547 285.713 121.798 285.629C105.87 285.129 97.8508 285.885 82.953 292.004Z" fill="#7AA647"/>
<path d="M48.2832 412.122C48.631 410.191 50.0085 408.969 51.1778 407.414C52.774 405.258 54.343 403.08 55.8848 400.882C59.3743 395.894 62.393 390.519 65.9228 385.601C76.8891 370.323 87.5816 354.982 98.183 339.45L111.279 319.925C112.763 317.711 119.674 306.633 122.003 306.651C122.514 307.614 122.321 307.635 122.308 308.894C118.762 324.766 117.819 341.201 124.483 356.396C123.366 357.251 122.87 358.45 122.078 359.604C118.855 364.296 115.004 368.837 111.137 373.016C101.856 382.937 91.2085 391.484 79.5151 398.399C73.4705 401.916 65.9259 405.386 59.5737 408.419C56.4135 409.929 51.6586 411.128 48.2832 412.122Z" fill="#578543"/>
<path d="M388.701 322.819C390.598 323.382 392.114 325.269 393.553 326.645C400.235 333.057 404.446 339.984 408.913 347.932C420.186 367.992 424.784 393.17 424.449 416.066C424.412 418.636 424.564 427.031 423.915 429.308L423.643 429.502C412.653 428.327 401.023 421.08 391.653 415.469C386.767 412.544 383.333 410.678 378.855 407.037C375.508 404.316 369.373 397.862 365.979 395.996C375.448 388.279 378.999 378.289 383.639 367.387C387.966 357.984 391.221 346.04 390.614 335.679C390.389 331.819 389.316 326.706 388.701 322.819Z" fill="#7AA647"/>
<path d="M383.639 367.387C391.258 378.627 398.552 389.964 405.7 401.447C407.838 404.883 422.308 428.565 423.643 429.501C412.653 428.326 401.023 421.08 391.653 415.469C386.767 412.543 383.333 410.677 378.855 407.037C375.508 404.315 369.373 397.862 365.979 395.996C375.448 388.278 378.999 378.289 383.639 367.387Z" fill="#578543"/>
<path d="M136.728 375.565C143.877 380.82 154.571 383.67 163.242 384.821C162.487 384.863 162.758 384.947 162.093 385.146L162.39 385.423C159.359 392.811 153.199 403.441 149.264 410.573C143.805 420.58 138.464 430.653 133.243 440.789C131.818 443.571 128.152 449.365 127.509 451.935L126.79 451.911C126.678 451.77 126.428 451.484 126.416 451.309C125.391 438.156 124.715 425.513 126.311 412.373C127.907 399.238 132.78 387.941 136.728 375.565Z" fill="#7AA647"/>
<path d="M325.752 285.828C323.842 284.474 322.381 283.52 320.887 283C320.809 284.858 320.766 286.282 320.722 287.705C320.062 291.938 319.729 296.254 318.679 300.388C314.335 315.786 308.264 324.946 285.5 343C285.5 344 289.03 354.864 291.5 359C294.151 365.908 295.708 377.728 297 385.694C297.793 388.84 312.229 398.014 315.5 399C319.643 400.105 324.17 402.322 328.371 403C335.923 404.218 356.823 402.558 364 397C366.123 396.173 372.025 390.994 372.519 388.786C372.542 388.039 374.368 387.429 374 386.828C368.874 386.78 362.304 387.088 357.554 387.214C348.688 388.426 336.5 387 331.882 385.694C317.24 379.209 311.271 366.034 306.381 351.631C305.956 350.296 305.343 348.296 305.967 347.473C309.055 343.404 312.529 339.628 315.866 335.749L315.893 335.691C317.705 331.87 319.517 328.048 321.587 323.985C322.758 321.623 323.67 319.503 324.771 316.691C328.464 308.943 328.29 301.229 328.933 293.251C328.877 291.18 328.841 289.521 328.697 287.628C328.312 287.195 328.037 286.997 327.761 286.799L327.756 286.797C327.238 286.607 326.719 286.417 325.752 285.828Z" fill="#DF9E19"/>
<path d="M168.5 235C162.793 234.943 157.934 234.893 153 233.5C131.732 220.877 125.432 210.646 117 193.5C113.083 198.951 113.337 219.75 118.491 231.029C131.311 256.618 149.31 264.15 157.999 267C166.943 251.573 205.704 230.07 223.998 227.955C202.498 210 200.498 173.5 208.998 156.5L202.498 151.5C195.998 160 189.451 194.5 198.498 217.5C194.498 225.455 174.207 235.057 168.5 235Z" fill="#DF9E19"/>
<path d="M227.972 230.045C226.603 229.026 225.234 228.007 223.505 226.939C218.816 220.703 213.376 214.992 210.465 208.198C207.435 201.128 203.768 193.384 207.735 184.986C214.951 194.401 221.444 204.391 231.623 210.67C238.211 214.734 245.202 218.991 253.335 218.776C261.383 218.562 269.706 218.47 277.367 216.359C288.023 213.422 296.783 206.795 303.33 197.582C309.074 189.498 313.619 180.915 315.38 171.021C315.514 170.268 316.668 169.696 317.718 169C317.316 181.837 317.355 194.879 311.289 206.78C307.602 214.014 303.623 221.062 296.906 226.093C295.804 226.918 295.146 228.336 294.334 229.854C294.335 230.596 294.283 230.965 293.844 231.651C287.86 234.611 282.291 237.313 276.655 239.868C274.75 240.732 272.707 241.682 270.676 241.814C258.4 242.61 246.385 241.554 235.17 235.874C233.647 234.303 232.124 232.732 230.24 231.171C229.879 231.181 229.929 231.065 229.827 230.784C229.176 230.343 228.626 230.183 228.051 230.028C228.024 230.034 227.972 230.045 227.972 230.045Z" fill="#FDA51D"/>
</g>
<defs>
<clipPath id="clip0_33_8">
<rect width="471" height="491" fill="white"/>
</clipPath>
</defs>
</svg>
