<svg width="471" height="491" viewBox="0 0 471 491" fill="none" xmlns="http://www.w3.org/2000/svg">
<g clip-path="url(#clip0_35_734)">
<rect width="471" height="491" fill="#126E3D"/>
<path d="M279.011 0.989849L335.739 0.974383C347.294 0.982705 359.042 0.899118 370.584 1.33836C375.193 1.5138 380.702 2.58774 385.272 3.20934C406.984 5.94299 424.982 14.2497 440.5 29.8418C454.379 43.7887 461.997 59.4007 466.391 78.4716C468.781 88.8298 469.213 94.7314 469.673 105.283C470.134 114.877 470.328 124.483 470.252 134.088C470.364 154.976 470.354 175.865 470.215 196.753C470.176 208.959 470.55 222.457 470.163 234.505C470.32 246.696 470.364 258.888 470.294 271.081L470.254 331.929C470.234 376.062 475.677 425.453 442.271 459.935C416.592 486.437 387.583 489.871 352.74 490.528C334.297 490.693 315.856 490.745 297.413 490.687L195.841 490.685L139.218 490.674C119.328 490.651 98.2563 490.91 78.8208 487.128C42.8292 480.125 13.5838 451.903 5.42857 416.184C4.32163 411.337 2.88027 406.291 2.33772 401.327C1.40312 392.775 1.32165 384.049 1.00322 375.45C0.888141 353.538 0.984087 331.571 0.988563 309.653L0.981339 279.199C0.975345 274.326 0.790364 268.645 0.944804 263.903C0.651967 257.106 0.922923 248.143 0.919809 241.183L0.936717 192.59L0.96082 154.191C0.956606 147.72 0.660105 138.513 1.11657 132.333C1.05263 131.338 1.07823 130.093 1.09304 129.065C1.26646 117.047 1.20427 104.704 2.23639 92.7333C2.60407 88.455 3.9697 84.126 4.70528 79.9516C10.9569 44.4738 37.7443 14.6365 72.8701 5.71311C91.4453 0.994194 110.185 0.986998 129.545 0.981371L165.904 0.996208L257.919 1.0446C264.949 0.971715 271.982 0.953473 279.011 0.989849Z" fill="#126E3D"/>
<path d="M279.011 0.989849L335.739 0.974383C347.294 0.982705 359.042 0.899118 370.584 1.33836C375.193 1.5138 380.702 2.58774 385.272 3.20934C406.984 5.94299 424.982 14.2497 440.5 29.8418C454.379 43.7887 461.997 59.4007 466.391 78.4717C468.781 88.8298 469.213 94.7314 469.673 105.283C470.134 114.877 470.328 124.483 470.252 134.088C470.364 154.976 470.354 175.865 470.215 196.753C456.485 203.425 443.81 209.43 428.989 213.44C426.239 214.184 422.658 215.906 419.782 216.902C414.396 218.744 408.902 220.252 403.33 221.417C405.11 214.325 405.937 205.054 403.38 198.089C402.048 194.459 400.425 190.949 399.237 187.264C399.271 187.812 399.268 188.362 399.234 188.91C398.727 196.367 395.073 201.038 392.027 207.504C385.282 221.821 372.557 231.76 358.142 237.59C354.504 239.061 345.124 238.183 341.02 238.332C331.941 238.106 320.994 230.897 315.21 224.152C315.906 221.334 319.782 215.49 321.145 212.467C324.406 205.229 326.694 195.01 327.584 187.147C328.12 182.465 328.191 177.742 327.796 173.046C327.469 169.136 326.67 165.261 326.181 161.357C326.055 160.344 325.626 154.584 325.527 154.355C324.956 155.812 317.772 159.608 316.411 159.379C314.678 150.492 309.69 141.029 303.561 134.461C292.762 122.885 282.508 116.971 266.677 115.948C264.318 116.1 261.96 116.015 259.597 116.089C241.927 117.943 229.518 125.001 218.608 138.796C212.919 145.991 212.418 148.581 208.819 156.578C205.961 154.645 204.251 153.207 201.675 150.922C198.122 147.676 192.479 144.538 187.861 143.069C179.036 140.261 167.685 140.226 158.839 143.046C155.716 144.041 152.492 145.745 149.582 147.238C143.493 151.174 140.44 153.268 135.101 158.353C125.621 169.125 119.08 178.913 116.675 193.467C109.651 219.779 121.521 246.806 144.401 261.006C140.799 261.919 137.445 263.261 133.896 264.353C128.106 266.135 120.527 265.81 114.695 264.366C104.759 261.903 94.5642 253.008 89.4435 244.314C86.4397 241.043 82.7563 238.508 80.153 235.408C76.2774 230.615 75.9058 220.83 77.5635 215.166C79.1943 209.593 80.6316 206.844 81.3359 200.867L80.7798 200.722C76.4761 205.508 72.0598 209.623 67.5159 214.064C54.9212 226.373 42.6463 236.976 26.9052 245.023C18.2688 249.438 9.45252 251.979 1.24834 257.441C1.21555 258.915 1.22602 262.633 0.944804 263.903C0.651967 257.106 0.922923 248.143 0.919809 241.184L0.936717 192.59L0.96082 154.191C0.956606 147.72 0.660105 138.513 1.11657 132.333C1.05263 131.338 1.07823 130.093 1.09304 129.065C1.26646 117.047 1.20427 104.704 2.23639 92.7333C2.60407 88.455 3.9697 84.126 4.70528 79.9516C10.9569 44.4738 37.7443 14.6365 72.8701 5.71311C91.4453 0.994194 110.185 0.986998 129.545 0.981371L165.904 0.996208L257.919 1.0446C264.949 0.971715 271.982 0.953473 279.011 0.989849Z" fill="#126E3D"/>
<path d="M279.012 0.989516L335.739 0.97405C347.294 0.982372 359.043 0.898785 370.584 1.33802C375.193 1.51347 380.703 2.58741 385.272 3.209C406.984 5.94265 424.983 14.2494 440.5 29.8415C454.379 43.7883 461.998 59.4004 466.392 78.4713C468.781 88.8294 469.213 94.7311 469.674 105.283C470.134 114.877 470.328 124.483 470.252 134.088C470.365 154.976 470.354 175.865 470.216 196.753C456.486 203.424 443.811 209.43 428.99 213.439C426.239 214.183 422.659 215.905 419.782 216.902C414.396 218.743 408.903 220.251 403.331 221.417C405.11 214.325 405.937 205.054 403.38 198.089C402.048 194.458 400.426 190.949 399.237 187.264L399.214 187.04C397.798 184.697 396.968 181.816 395.649 179.453C390.718 170.622 381.524 159.975 372.348 155.481C365.471 152.112 352.199 148.622 344.782 149.665L345.135 149.216C345.232 147.876 342.507 143.836 341.738 142.519C340.154 139.837 338.757 137.05 337.553 134.179C334.47 126.699 332.321 118.547 330.484 110.685C329.714 107.385 328.702 103.738 328.128 100.441C327.571 100.267 325.99 99.0677 325.417 98.6435C324.42 98.1751 323.527 97.5158 322.695 96.8032C323.658 94.6421 324.577 91.0259 325.336 88.713C325.498 88.2095 325.153 87.924 324.867 87.5434C315.953 80.767 307.979 71.7668 300.967 63.0676C298.512 60.0256 294.793 56.2657 292.731 53.1248C287.169 44.654 285.568 33.5616 283.267 23.8857C281.579 16.7039 279.192 8.3686 279.012 0.989516Z" fill="#126E3D"/>
<path d="M399.635 30.6045C396.463 50.0701 385.976 74.4755 369.415 86.1558C362.981 90.6939 357.841 93.9746 350.343 96.7086C377.742 99.7956 399.703 108.999 417.291 130.917C421.86 136.614 424.59 141.542 428.249 147.624C434.878 158.639 439.534 169.457 442.821 181.913C443.258 183.567 445.446 189.711 445.407 191.122C434.878 192.106 421.449 191.559 411.033 189.595C407.639 188.955 404.357 187.848 401.035 186.935C399.939 186.633 399.91 186.616 399.214 187.04C397.798 184.697 396.968 181.816 395.649 179.453C390.718 170.622 381.524 159.975 372.348 155.481C365.47 152.112 352.199 148.623 344.782 149.665L345.135 149.216C345.232 147.876 342.507 143.836 341.738 142.519C340.154 139.837 338.757 137.05 337.553 134.179C334.47 126.699 332.321 118.547 330.484 110.685C329.714 107.385 328.702 103.738 328.128 100.441C327.571 100.267 325.99 99.0679 325.417 98.6436C326.275 97.3503 330.89 93.8589 332.368 92.5476L355.064 72.2893C356.975 70.5956 358.739 68.8081 360.461 66.9257C368.556 58.081 378.172 50.9975 386.531 42.419C390.237 38.6165 395.257 33.5578 399.635 30.6045Z" fill="#7AA647"/>
<path d="M328.128 100.441C334.561 102.748 360.453 124.362 367.443 129.899L409.677 163.269L434.64 182.616C436.89 184.393 442.907 188.846 444.389 190.913L445.407 191.122C434.878 192.106 421.449 191.559 411.033 189.595C407.638 188.955 404.356 187.848 401.035 186.935C399.938 186.633 399.91 186.616 399.213 187.04C397.797 184.697 396.968 181.816 395.649 179.453C390.718 170.622 381.524 159.975 372.348 155.481C365.47 152.112 352.198 148.622 344.781 149.665L345.134 149.216C345.231 147.876 342.507 143.836 341.737 142.519C340.154 139.837 338.756 137.05 337.552 134.179C334.469 126.699 332.321 118.547 330.483 110.685C329.714 107.385 328.701 103.738 328.128 100.441Z" fill="#578543"/>
<path d="M324.867 87.5437C326.583 87.1475 328.805 78.6723 329.517 76.6522C339.209 49.1901 365.216 33.0683 393.288 30.0331C394.458 29.9064 399.059 29.2543 399.742 29.7868L399.634 30.6046C395.256 33.5579 390.236 38.6166 386.53 42.4191C378.171 50.9977 368.555 58.0812 360.46 66.9259C358.738 68.8083 356.974 70.5957 355.064 72.2894L332.367 92.5477C330.889 93.8591 326.275 97.3504 325.416 98.6438C324.419 98.1753 323.527 97.5161 322.694 96.8035C323.657 94.6424 324.576 91.0262 325.335 88.7133C325.497 88.2098 325.152 87.9242 324.867 87.5437Z" fill="#578543"/>
<path d="M257.919 1.0446C264.949 0.971715 271.981 0.953473 279.011 0.989849C279.192 8.36893 281.579 16.7042 283.267 23.886C285.567 33.5619 287.169 44.6544 292.73 53.1251C294.793 56.2661 298.512 60.0259 300.967 63.0679C307.978 71.7671 315.953 80.7673 324.867 87.5438C325.152 87.9243 325.498 88.2098 325.335 88.7133C324.576 91.0262 323.658 94.6424 322.695 96.8035C323.527 97.5162 324.419 98.1754 325.416 98.6438C325.99 99.0681 327.57 100.267 328.128 100.441C328.701 103.738 329.714 107.386 330.483 110.685C332.321 118.547 334.469 126.699 337.552 134.179C338.756 137.051 340.154 139.837 341.737 142.519C342.507 143.836 345.231 147.876 345.134 149.216L344.781 149.665C352.198 148.623 365.47 152.112 372.348 155.481C381.524 159.975 390.718 170.623 395.649 179.454C396.968 181.816 397.797 184.698 399.213 187.04L399.237 187.264C399.271 187.812 399.268 188.362 399.234 188.91C398.727 196.367 395.073 201.038 392.026 207.504C385.282 221.821 372.557 231.76 358.142 237.59C354.504 239.061 345.124 238.183 341.02 238.332C331.941 238.106 320.993 230.897 315.209 224.151C315.906 221.334 319.782 215.49 321.145 212.467C324.406 205.229 326.694 195.01 327.583 187.147C328.12 182.465 328.191 177.742 327.795 173.046C327.468 169.136 326.67 165.261 326.181 161.357C326.055 160.344 325.626 154.584 325.526 154.355C324.956 155.812 317.772 159.608 316.411 159.379C314.678 150.492 309.69 141.029 303.56 134.461C292.762 122.885 282.508 116.971 266.676 115.948C264.318 116.1 261.96 116.015 259.597 116.089C251.355 113.622 246.409 111.549 237.426 113.296C224.412 115.827 214.02 127.45 207.07 138.138C204.718 136.857 200.503 135.453 197.819 134.471C184.496 129.594 169.935 125.695 162.696 112.392C157.412 102.681 155.521 83.6057 158.721 73.3478C159.372 71.776 161.626 68.1664 162.593 66.5944C166.374 60.4166 169.256 54.4538 175.555 50.4252C181.126 46.8621 185.393 48.3166 191.522 48.1028C194.264 48.007 197.413 47.4766 200.201 47.2157C205.31 46.737 209.515 47.0793 214.495 48.1583C216.032 47.9864 221.834 39.395 223.496 37.505C231.953 27.8909 248.073 17.7505 260.89 16.611C261.154 12.9744 259.097 4.70786 257.919 1.0446Z" fill="#7AA647"/>
<path d="M276.784 45.8989C277.559 47.8988 277.93 49.8273 278.768 51.7833L279.197 51.6069C288.132 81.2184 299.548 112.003 315.207 138.74C317.306 142.325 322.836 151.302 325.526 154.355C324.956 155.812 317.772 159.608 316.411 159.379C314.678 150.492 309.69 141.029 303.56 134.461C292.762 122.885 282.508 116.971 266.676 115.948C266.608 109.477 267.079 102.055 268.521 95.758C269.754 90.3687 271.615 84.9947 272.787 79.55C274.653 70.6111 275.643 61.5115 275.742 52.3807C276.745 50.5352 276.54 48.1645 276.784 45.8989Z" fill="#126E3D"/>
<path d="M260.89 16.6108C259.194 22.682 251.369 32.5785 247.726 38.2007L226.351 71.5618C223.498 76.1112 221.116 81.1131 218.09 85.539C213.105 92.8313 208.59 101.312 203.355 108.379C202.392 99.7067 202.148 86.3746 204.121 77.9612C206.105 69.5059 210.322 56.1573 214.611 48.7323L214.495 48.1581C216.032 47.9862 221.834 39.3948 223.497 37.5048C231.953 27.8907 248.074 17.7503 260.89 16.6108Z" fill="#578543"/>
<path d="M334.263 152.146C332.763 149.111 330.015 145.094 328.165 142.156C325.94 138.551 323.789 134.903 321.711 131.213C311.611 113.819 303.582 95.3025 297.787 76.041C305.819 79.5038 315.987 91.0449 322.695 96.8033C323.527 97.5159 324.42 98.1752 325.417 98.6436C325.99 99.0678 327.571 100.267 328.128 100.441C328.701 103.738 329.714 107.385 330.484 110.685C332.321 118.547 334.47 126.699 337.553 134.179C338.757 137.05 340.154 139.837 341.738 142.519C342.507 143.836 345.231 147.876 345.135 149.216L344.781 149.665C341.706 149.784 337.003 150.75 334.263 152.146Z" fill="#126E3D"/>
<path d="M275.742 52.3805C275.933 48.2592 275.962 45.6846 275.53 41.6421C276.936 44.5174 278.373 48.5492 279.197 51.6066L278.768 51.783C277.93 49.8271 277.559 47.8986 276.784 45.8987C276.541 48.1642 276.745 50.535 275.742 52.3805Z" fill="#2C671C"/>
<path d="M354.755 161.985C358.22 161.685 361.387 162.016 364.653 163.675C369.929 166.355 379.247 174.093 375.771 180.888C374.35 183.671 370.877 185.006 367.998 185.87C349.688 187.307 336.641 166.646 354.755 161.985Z" fill="#9EC361"/>
<path d="M262.989 42.311L263.295 42.7468C263.641 45.912 263.329 50.178 263.473 53.4532C263.936 63.9302 262.719 73.319 259.875 83.3963C258.469 88.3846 256.679 93.3328 255.331 98.4169C254.781 96.6588 254.274 94.4866 253.803 92.6783C252.515 86.5629 251.424 81.7075 248.592 76.0608C256.511 66.2457 260.382 54.45 262.989 42.311Z" fill="#126E3D"/>
<path d="M193.495 57.6025C197.08 57.8103 199.101 58.7022 201.845 60.8958C202.135 61.5351 202.361 62.2014 202.52 62.8852C204.191 69.8389 193.899 75.5945 188.224 76.8446C185.26 77.0349 183.606 76.6858 180.954 75.5471C178.096 72.2628 178.231 68.4529 180.808 65.027C183.859 60.9379 188.436 58.2594 193.495 57.6025Z" fill="#9EC361"/>
<path d="M13.7251 148.307C43.7984 126.412 75.8171 114.91 112.684 125.211C119.218 128.497 127.169 129.743 133.293 134.32C136.827 136.961 140.662 139.268 143.944 142.26C144.925 143.097 149.043 147.033 149.582 147.238C143.493 151.174 140.44 153.268 135.101 158.352C125.621 169.125 119.08 178.912 116.675 193.467C109.651 219.778 121.521 246.805 144.401 261.005C140.799 261.918 137.445 263.261 133.896 264.352C128.106 266.134 120.527 265.81 114.695 264.365C104.759 261.903 94.5642 253.008 89.4435 244.313C86.4397 241.042 82.7563 238.508 80.153 235.408C76.2774 230.615 75.9058 220.83 77.5635 215.166C79.1943 209.593 80.6316 206.843 81.3359 200.866L80.7798 200.722C76.4761 205.508 72.0598 209.622 67.5159 214.063C54.9212 226.372 42.6463 236.976 26.9052 245.023C18.2688 249.438 9.45252 251.979 1.24834 257.441C1.21555 258.914 1.22602 262.633 0.944804 263.902C0.651967 257.106 0.922923 248.143 0.919809 241.183L0.936717 192.59L0.96082 154.191C0.956606 147.72 0.660105 138.513 1.11657 132.333C1.38907 135.759 1.22838 140.511 1.22066 144.086L1.19815 164.419L1.1954 234.666C4.65221 234.175 8.34205 232.859 11.8093 232.108C14.9515 231.428 18.2219 230.983 21.2785 229.999C36.9879 224.937 46.7854 212.62 57.1835 200.629C61.6759 195.449 66.1586 189.615 71.4712 185.355C52.5422 179.265 33.595 170.158 19.4659 155.85C18.0557 154.422 13.2626 150.665 13.0464 149.027C13.3971 148.468 13.2053 148.609 13.7251 148.307Z" fill="#608D40"/>
<path d="M13.7246 148.307C43.7979 126.412 75.8166 114.91 112.684 125.211C119.217 128.497 127.169 129.743 133.292 134.32C136.826 136.961 140.661 139.268 143.943 142.26C144.925 143.097 149.042 147.033 149.582 147.238C143.493 151.174 140.439 153.268 135.1 158.352C133.846 157.251 121.831 157.377 118.915 157.152L40.8193 150.672C36.0932 150.327 16.7268 149.966 13.7246 148.307Z" fill="#7AA647"/>
<path d="M81.7585 197.1C89.3504 196.936 96.9439 196.845 104.538 196.827C103.94 201.428 103.212 207.831 103.497 212.479C104.099 222.286 107.544 233.365 111.325 242.438C112.672 245.672 115.174 248.912 116.3 251.699C110.449 251.304 106.31 251.113 100.671 249.038C97.9238 248.028 91.4978 244.243 89.4433 244.314C86.4396 241.043 82.7562 238.508 80.1528 235.408C76.2773 230.615 75.9057 220.83 77.5634 215.166C79.1942 209.593 80.6315 206.844 81.3358 200.867C81.6488 199.988 81.692 198.108 81.7585 197.1Z" fill="#7AA647"/>
<path d="M112.684 125.211L112.842 125.09C112.896 124.952 112.951 124.814 113.005 124.676C110.946 120.584 105.979 112.618 104.134 108.9C98.1019 96.7443 93.8616 83.8066 90.7767 70.6747C89.7186 65.2323 89.2098 59.6448 88.4259 54.1674C87.5254 47.8719 87.0794 41.6471 87.305 35.2867C87.3296 34.5926 87.4 34.1404 87.9038 33.6851L88.5078 33.8324C91.4755 34.5199 94.5936 35.0661 97.4856 35.8907C116.177 41.1611 133.451 50.5483 148.042 63.3643C150.542 65.5778 155.773 70.3543 157.534 72.9905L158.721 73.3477C155.522 83.6056 157.412 102.681 162.697 112.392C169.936 125.695 184.497 129.594 197.819 134.471C200.503 135.453 204.719 136.857 207.07 138.138C214.021 127.449 224.412 115.827 237.427 113.296C246.409 111.548 251.356 113.622 259.597 116.089C241.927 117.943 229.518 125 218.609 138.795C212.919 145.99 212.418 148.581 208.819 156.578C205.961 154.645 204.251 153.207 201.675 150.922C198.122 147.675 192.479 144.537 187.861 143.069C179.036 140.261 167.685 140.226 158.84 143.045C155.716 144.041 152.492 145.745 149.583 147.238C149.043 147.034 144.926 143.097 143.944 142.26C140.662 139.268 136.827 136.962 133.293 134.32C127.169 129.743 119.218 128.497 112.684 125.211Z" fill="#5D8B40"/>
<path d="M88.5079 33.8325C91.4755 34.52 94.5936 35.0662 97.4856 35.8908C116.177 41.1612 133.452 50.5484 148.042 63.3644C150.542 65.5779 155.773 70.3545 157.534 72.9906C157.062 75.023 156.409 76.6691 155.405 78.4978C151.112 86.3096 148.162 93.9908 146.796 102.851C144.368 97.966 136.429 90.3081 132.466 85.9694C120.986 73.2842 109.747 60.3831 98.7547 47.2724C97.6492 45.9665 88.5642 35.1792 88.0195 34.1447L88.5079 33.8325Z" fill="#7AA647"/>
<path d="M266.676 115.948C282.507 116.971 292.762 122.885 303.56 134.461C309.689 141.029 314.678 150.492 316.41 159.379C318.135 170.634 318.939 178.724 317.08 190.085C314.466 206.052 305.143 221.048 292.222 230.633C294.617 232.149 298.569 235.458 300.658 237.531C308.847 244.812 315.298 254.34 317.962 265.059C318.81 269.827 320.145 274.638 320.93 279.223C320.381 293.765 318.907 303.524 311.671 316.379C309.43 320.362 307.002 324.096 303.625 327.221C301.898 328.818 299.794 330.563 297.478 331.139L295.761 331.571C296.802 331.699 296.988 331.72 297.951 331.312L298.425 331.505C298.535 333.68 288.32 342.405 285.533 342.949C285.303 342.994 285.446 344.695 285.467 344.92L284.643 343.494C283.065 343.266 277.407 345.888 275.535 346.469C270.031 348.178 264.342 348.265 258.62 348.223C257.228 348.212 254.004 347.864 252.891 348.045C248.227 346.754 240.205 343.792 236.039 341.489C232.258 339.398 228.052 336.292 224.322 333.942C224.321 338.752 224.563 343.797 224.724 348.62C224.734 355.414 219.995 360.292 215.463 364.966C201.687 379.171 191.071 385.206 171.08 385.245C168.461 385.261 165.843 385.12 163.241 384.822C154.57 383.67 143.876 380.82 136.727 375.565C134.515 372.809 130.757 366.767 128.811 363.666C127.224 361.151 125.907 359.015 124.483 356.396C117.819 341.201 118.762 324.766 122.308 308.894C126.018 295.458 133.948 283.792 144.148 274.415C148.034 271.306 151.525 268.7 155.798 266.145C151.87 264.376 148.36 262.908 144.4 261.006C121.521 246.806 109.651 219.779 116.674 193.467C119.079 178.913 125.621 169.125 135.1 158.352C140.439 153.268 143.493 151.174 149.582 147.238C152.492 145.745 155.715 144.041 158.839 143.046C167.684 140.226 179.035 140.261 187.86 143.069C192.478 144.538 198.122 147.676 201.675 150.922C204.251 153.207 205.96 154.645 208.818 156.578C212.418 148.581 212.918 145.991 218.608 138.796C229.517 125.001 241.926 117.943 259.597 116.089C261.96 116.015 264.318 116.1 266.676 115.948Z" fill="#F2B721"/>
<path d="M300.658 237.53C308.847 244.812 315.299 254.34 317.963 265.059C318.811 269.827 320.146 274.637 320.931 279.222C320.381 293.765 318.908 303.524 311.671 316.378C309.431 320.362 307.002 324.096 303.626 327.221C301.899 328.817 299.795 330.563 297.478 331.138L295.762 331.57C294.487 331.507 288.501 332.554 286.371 332.68C272.018 333.53 260.605 332.476 248.029 324.902C245.297 323.256 243.431 321.534 240.981 319.665C230.937 311.995 224.102 302.16 221.189 289.701C218.574 278.516 219.387 265.59 223.563 254.798C224.576 252.181 226.76 248.789 228.303 246.337C247.862 253.751 270.356 254.198 289.423 244.751C293.665 242.649 297.198 240.879 300.658 237.53Z" fill="#F2B721"/>
<path d="M290.679 254.353C298.35 254.094 300.749 258.36 304.539 264.101C308.889 270.686 308.687 283.899 300.886 288.037C294.984 288.126 288.595 281.782 286.693 276.556C284.779 271.306 282.526 266.684 285.028 261.071C286.426 257.941 287.397 255.785 290.679 254.353Z" fill="#FBD24F"/>
<path d="M232.21 233.754C232.297 233.762 239.718 237.297 241.478 237.906C246.27 239.563 249.248 239.882 254.098 240.761C265.31 242.795 283.154 237.484 292.223 230.633C294.617 232.149 298.569 235.458 300.658 237.531C297.198 240.879 293.665 242.649 289.422 244.751C270.356 254.199 247.861 253.751 228.303 246.337C226.759 248.789 224.575 252.181 223.563 254.798C219.386 265.591 218.574 278.516 221.189 289.701C224.102 302.161 230.937 311.995 240.981 319.666C243.43 321.534 245.297 323.256 248.029 324.902C260.604 332.476 272.018 333.531 286.371 332.68C288.501 332.555 294.487 331.508 295.761 331.571C296.803 331.699 296.989 331.72 297.952 331.312L298.425 331.505C298.535 333.68 288.32 342.405 285.533 342.949C285.303 342.994 285.447 344.695 285.468 344.92L284.643 343.494C283.065 343.266 277.407 345.888 275.536 346.469C270.032 348.178 264.342 348.265 258.621 348.223C257.228 348.212 254.004 347.864 252.892 348.045C248.228 346.755 240.206 343.792 236.04 341.489C232.258 339.398 228.052 336.292 224.322 333.942C224.322 338.752 224.563 343.797 224.724 348.62C224.734 355.414 219.996 360.292 215.463 364.966C201.687 379.171 191.072 385.206 171.081 385.246C168.461 385.261 165.844 385.12 163.241 384.822C154.57 383.67 143.876 380.82 136.727 375.565C134.515 372.809 130.757 366.767 128.812 363.666C129.309 363.409 130.324 362.841 130.819 362.985C134.131 363.946 137.746 364.613 141.039 365.511C152.27 368.57 167.331 370.028 178.623 366.55C185.685 364.375 199.337 353.53 203.371 346.566C203.85 345.739 203.901 344.687 203.65 343.74C202.398 339.003 199.823 334.47 197.944 329.99C196.337 326.159 195.178 322.118 193.801 318.211C193.185 317.931 192.797 318.166 191.973 318.318C195.647 314.926 202.49 309.077 204.77 304.877C207.989 297.992 206.231 288.751 206.999 281.159C208.625 265.106 215.515 252.733 225.963 240.828C227.553 239.016 232.438 236.098 232.21 233.754Z" fill="#DF9E19"/>
<path d="M157.527 267.7C157.791 267.325 158.061 266.954 158.335 266.587C161.108 262.903 166.966 255.944 170.062 253.063C184.548 239.584 204.78 230.805 224.23 228.028C226.357 229.163 227.989 230.501 229.875 231.965C230.551 232.503 231.506 233.32 232.21 233.754C232.439 236.098 227.553 239.016 225.963 240.828C215.516 252.733 208.625 265.106 207 281.159C206.232 288.751 207.989 297.992 204.771 304.877C202.49 309.077 195.647 314.926 191.973 318.318C181.495 327.299 159.74 335.122 146.322 338.935C143.949 339.61 137.992 341.154 135.684 341.35C134.986 341.423 133.78 342.015 133.09 342.311C133.496 331.337 134.174 324.258 136.999 313.568C140.151 301.637 143.533 291.022 149.942 280.272C152.54 275.912 154.449 271.842 157.527 267.7Z" fill="#578543"/>
<path d="M229.875 231.965C230.551 232.503 231.506 233.32 232.21 233.754C232.439 236.098 227.553 239.016 225.963 240.828C215.515 252.733 208.625 265.106 207 281.159C206.231 288.751 207.989 297.992 204.771 304.877C202.49 309.077 195.647 314.926 191.973 318.318C181.495 327.3 159.739 335.122 146.321 338.935C143.949 339.61 137.991 341.154 135.684 341.35C135.785 340.639 135.889 340.003 136.345 339.414C142.623 331.351 149.172 323.419 156.05 315.855C157.849 313.88 159.625 311.977 161.366 310.006L208.246 256.706C213.081 251.213 217.781 245.299 222.648 239.769C224.719 237.417 228.119 234.113 229.875 231.965Z" fill="#7AA647"/>
<path d="M257.773 129.093C258.998 128.812 260.966 129.056 262.217 129.123C266.826 129.226 271.67 133.685 272.298 138.243C273.188 144.708 267.263 151.955 261.869 154.835C258.555 156.604 254.611 156.995 251.031 157.52C238.356 157.721 229.892 148.521 239.986 137.643C245.386 131.821 249.848 129.477 257.773 129.093Z" fill="#FBD24F"/>
<path d="M164.613 153.423C169.528 152.693 173.938 154.075 178.358 156.04C178.535 156.801 178.706 157.562 178.873 158.326C179.588 161.579 179.955 163.808 177.893 166.778C174.323 171.92 168.353 175.024 162.385 176.31C151.472 177.322 141.698 172.003 150.503 160.307C153.917 155.774 159.037 153.87 164.613 153.423Z" fill="#FBD24F"/>
<path d="M224.323 333.941C228.052 336.291 232.259 339.398 236.04 341.489C240.206 343.792 248.228 346.754 252.892 348.044C254.005 347.864 257.229 348.212 258.621 348.222C264.342 348.264 270.032 348.178 275.536 346.469C277.407 345.888 283.066 343.266 284.644 343.493L285.468 344.92C286.316 346.346 289.166 351.091 289.737 352.611C292.161 359.059 293.705 367.225 295.23 374.034C296.06 377.74 295.801 382.223 297.238 385.986C296.612 387.389 296.848 397.427 296.738 399.843C296.243 410.845 295.531 421.488 293.213 432.296C292.961 433.472 292.749 435.874 292.137 436.622L292.066 436.641C289.635 435.382 286.869 434.874 283.851 433.008C280.852 431.158 273.772 425.694 270.864 424.485L270.399 424.966C266.154 435.578 259.629 446.47 249.903 452.785C246.051 455.287 241.87 457.404 237.858 459.652C233.838 461.934 229.82 464.954 225.65 466.854C222.498 468.291 216.495 468.854 213.36 467.158C206.243 463.305 198.756 458.739 191.612 454.866C182.467 449.912 175.924 440.569 172.101 431.03C171.951 430.658 171.808 430.284 171.674 429.907C171.138 428.183 169.77 425.835 169.049 423.613L168.648 423.917C166.639 425.466 163.871 428.774 161.598 430.666C152.464 438.266 143.378 445.104 132.534 450.084C130.598 450.974 129.203 451.249 127.509 451.935C128.152 449.365 131.818 443.571 133.243 440.789C138.464 430.653 143.805 420.58 149.264 410.573C153.199 403.441 159.358 392.811 162.389 385.423L162.092 385.146C162.757 384.947 162.487 384.863 163.242 384.821C165.844 385.12 168.462 385.261 171.081 385.245C191.072 385.206 201.688 379.171 215.464 364.966C219.996 360.292 224.735 355.414 224.725 348.62C224.564 343.797 224.322 338.751 224.323 333.941Z" fill="#608D40"/>
<path d="M224.322 333.941C228.052 336.291 232.259 339.398 236.04 341.489C240.206 343.792 248.228 346.754 252.892 348.044C254.004 347.864 257.228 348.212 258.621 348.222C264.342 348.264 270.032 348.178 275.536 346.469C277.407 345.888 283.065 343.266 284.643 343.493L285.468 344.92C286.316 346.346 289.166 351.091 289.737 352.611C292.16 359.059 293.704 367.225 295.23 374.034C296.06 377.74 295.801 382.223 297.237 385.986C296.612 387.389 296.847 397.427 296.737 399.843C296.243 410.845 295.531 421.488 293.212 432.296C292.961 433.472 292.749 435.874 292.136 436.622L292.066 436.641C289.634 435.382 286.868 434.874 283.85 433.008C280.851 431.158 273.772 425.694 270.864 424.485L270.398 424.966C269.964 422.449 252.023 408.565 249.133 404.821C238.591 391.154 230.347 377.507 226.681 360.412C226.423 359.209 224.889 348.89 224.725 348.62C224.564 343.797 224.322 338.751 224.322 333.941Z" fill="#578543"/>
<path d="M252.892 348.044C254.004 347.864 257.228 348.212 258.621 348.222C264.342 348.264 270.032 348.178 275.536 346.469C277.407 345.888 283.065 343.266 284.643 343.493L285.468 344.92C286.316 346.346 289.166 351.091 289.736 352.611C292.16 359.059 293.704 367.225 295.23 374.034C296.059 377.74 295.8 382.223 297.237 385.986C296.612 387.389 296.847 397.427 296.737 399.843C296.243 410.845 295.531 421.488 293.212 432.296C292.961 433.472 292.749 435.874 292.136 436.622L292.066 436.641C291.315 432.65 288.43 428.512 286.831 424.644C284.604 419.259 282.175 413.946 279.82 408.623L262.426 368.975C260.372 364.225 258.736 359.313 256.55 354.584C255.412 352.122 254.085 350.478 253.002 348.275L252.892 348.044Z" fill="#7AA647"/>
<path d="M167.41 398.092C191.978 397.893 200.472 396.237 219.505 379.744C223.879 391.78 232.298 403.517 241.403 412.504C244.652 415.71 249.599 419.774 252.449 423.166C249.539 430.153 239.187 440.885 232.21 443.707C219.82 448.603 205.983 448.326 193.799 442.937C186.182 439.624 180.254 434.756 173.788 429.763C173.506 429.546 172.114 429.844 171.673 429.907C171.137 428.182 169.769 425.835 169.048 423.613L168.973 423.139C168.67 421.274 167.932 419.114 167.728 417.275C167.009 410.766 166.899 404.59 167.41 398.092Z" fill="#7AA647"/>
<path d="M325.526 154.354C325.626 154.584 326.055 160.343 326.181 161.357C326.67 165.261 327.468 169.136 327.795 173.045C328.191 177.741 328.12 182.465 327.583 187.147C326.694 195.009 324.406 205.228 321.145 212.467C319.782 215.49 315.906 221.334 315.209 224.151C320.993 230.897 331.941 238.106 341.02 238.331C345.124 238.183 354.504 239.061 358.142 237.589C372.557 231.76 385.282 221.82 392.026 207.503C395.073 201.038 398.727 196.367 399.234 188.91C399.268 188.362 399.271 187.812 399.237 187.264C400.425 190.949 402.048 194.458 403.38 198.089C405.937 205.054 405.11 214.325 403.33 221.417C408.902 220.251 414.396 218.743 419.782 216.902C422.658 215.906 426.238 214.184 428.989 213.439C443.81 209.43 456.485 203.424 470.215 196.753C470.176 208.958 470.55 222.457 470.163 234.505L469.775 231.672C460.921 228.216 442.753 229.163 433.449 231.389C427.076 232.914 421.86 234.732 415.079 235.86C408.619 236.935 402.469 235.687 396.915 236.197C394.463 238.294 393.542 239.667 392.406 242.677C398.726 244.129 401.804 245.622 407.62 248.279C425.024 256.234 442.088 269.204 452.787 285.275L452.79 285.799C452.465 286.016 452.156 286.254 451.808 286.406C435.33 297.408 416.06 304.275 396.347 306.905C393.9 307.232 382.618 306.976 381.49 307.483C377.286 306.905 372.986 306.573 368.817 305.843C356.294 303.775 344.488 298.601 334.477 290.797C331.575 288.523 328.751 286.147 326.011 283.679C324.534 282.347 322.566 280.191 320.931 279.222C320.145 274.637 318.811 269.827 317.963 265.059C315.298 254.34 308.847 244.812 300.658 237.53C298.569 235.458 294.617 232.149 292.223 230.633C305.144 221.048 314.466 206.052 317.081 190.084C318.939 178.723 318.135 170.633 316.411 159.379C317.772 159.608 324.956 155.812 325.526 154.354Z" fill="#608D40"/>
<path d="M317.963 265.059C319.858 264.279 327.508 266.111 330.133 266.375C335.503 266.92 340.95 267.613 346.328 268.181C356.587 270.097 367.354 271.209 377.548 272.876C392.003 275.239 406.463 278.333 420.962 279.803C424.668 280.178 450.646 285.542 451.808 286.406C435.331 297.408 416.06 304.275 396.348 306.905C393.901 307.232 382.618 306.976 381.49 307.483C377.287 306.905 372.987 306.573 368.817 305.843C356.294 303.775 344.488 298.601 334.477 290.797C331.575 288.523 328.751 286.147 326.011 283.679C324.535 282.347 322.567 280.191 320.931 279.222C320.146 274.637 318.811 269.827 317.963 265.059Z" fill="#7AA647"/>
<path d="M318 265C319.64 266.318 329.763 266.386 332.425 266.892C337.872 267.924 343.438 268.831 348.9 269.841C359.561 270.952 370.488 273 381.013 274.336C395.936 276.231 411.016 277.58 425.724 280.364C429.483 281.077 453.355 286.641 454.75 286.132C441.717 270.53 428.065 254.748 409.414 246.42C407.099 245.385 395.912 242.348 394.948 241.521C390.641 240.863 386.309 239.935 381.991 239.437C369.056 237.815 355.925 239.45 343.798 244.191C340.279 245.576 336.808 247.085 333.392 248.708C331.551 249.585 317.394 257.027 315.501 257.5C316.501 260 317.5 261.5 318 265Z" fill="#578543"/>
<path d="M320.931 279.222C322.567 280.19 324.535 282.347 326.011 283.679C328.751 286.147 331.575 288.523 334.477 290.797C344.488 298.601 356.294 303.775 368.817 305.842C372.987 306.573 377.287 306.905 381.49 307.483C384.316 310.147 387.797 319.158 388.7 322.819C389.315 326.705 390.388 331.819 390.613 335.679C391.221 346.04 387.965 357.984 383.639 367.387C378.998 378.289 375.447 388.278 365.978 395.996C362.929 397.843 360.23 399.293 356.846 400.508C337.581 407.419 310.253 402.499 297.237 385.986C295.801 382.222 296.06 377.74 295.23 374.034C293.704 367.224 292.16 359.059 289.737 352.611C289.166 351.091 286.316 346.346 285.468 344.92C285.447 344.695 285.303 342.993 285.533 342.949C288.321 342.405 298.536 333.68 298.426 331.505L297.952 331.311C296.989 331.719 296.803 331.698 295.761 331.57L297.478 331.138C299.794 330.563 301.899 328.817 303.626 327.221C307.002 324.096 309.431 320.362 311.671 316.378C318.908 303.524 320.381 293.765 320.931 279.222Z" fill="#ECB01D"/>
<path d="M371.992 327.928C380.738 327.632 382.233 340.976 380.545 347.116C379.521 350.832 376.533 352.567 373.447 354.307C372.871 354.509 372.494 354.734 371.903 354.412C365.559 350.965 363.687 341.421 365.614 334.981C366.514 331.968 369.422 329.273 371.992 327.928Z" fill="#FBD24F"/>
<path d="M82.953 292.004C88.8723 280.965 100.854 280.586 102.559 278.047L102.393 277.694C100.07 277.351 92.4416 280.269 89.6153 280.963C70.157 285.726 47.0946 278.071 32.3392 264.996C31.8058 264.523 23.2599 257.119 25.306 256.308C29.3928 254.688 35.1281 254.4 39.555 253.767C50.3858 252.728 61.9707 253.099 72.4832 256.004C81.2696 258.577 90.1707 264.284 97.7178 269.38C100.634 271.348 103.434 275.956 107.176 276.485C114.959 277.579 123.339 276.841 131.126 275.925C134.559 275.501 141.257 273.905 144.148 274.415C133.948 283.792 126.019 295.458 122.308 308.894C118.762 324.766 117.819 341.201 124.483 356.395C123.366 357.251 122.87 358.45 122.078 359.604C118.855 364.296 115.004 368.837 111.136 373.016C101.856 382.937 91.2084 391.484 79.515 398.398C73.4704 401.916 65.9258 405.386 59.5737 408.419C56.4134 409.929 51.6585 411.128 48.2831 412.122C47.9369 412.088 47.8384 412.025 47.5045 411.915C45.8852 407.618 48.7479 380.43 50.0895 374.547C51.9548 366.369 55.8732 353.108 59.196 345.399C70.6653 318.781 93.0993 296.215 121.313 288.112C124.68 287.144 128.03 286.131 131.409 285.192C128.537 285.2 124.547 285.713 121.798 285.629C105.87 285.129 97.8508 285.885 82.953 292.004Z" fill="#7AA647"/>
<path d="M48.2832 412.122C48.631 410.191 50.0085 408.969 51.1778 407.414C52.774 405.258 54.343 403.08 55.8848 400.882C59.3743 395.894 62.393 390.519 65.9228 385.601C76.8891 370.323 87.5816 354.982 98.183 339.45L111.279 319.925C112.763 317.711 119.674 306.633 122.003 306.651C122.514 307.614 122.321 307.635 122.308 308.894C118.762 324.766 117.819 341.201 124.483 356.396C123.366 357.251 122.87 358.45 122.078 359.604C118.855 364.296 115.004 368.837 111.137 373.016C101.856 382.937 91.2085 391.484 79.5151 398.399C73.4705 401.916 65.9259 405.386 59.5737 408.419C56.4135 409.929 51.6586 411.128 48.2832 412.122Z" fill="#578543"/>
<path d="M388.7 322.819C390.597 323.382 392.113 325.269 393.552 326.645C400.234 333.057 404.445 339.984 408.913 347.932C420.185 367.992 424.783 393.17 424.448 416.066C424.411 418.636 424.563 427.031 423.914 429.308L423.642 429.502C412.652 428.327 401.022 421.08 391.652 415.469C386.766 412.544 383.332 410.678 378.854 407.037C375.507 404.316 369.372 397.862 365.978 395.996C375.447 388.279 378.998 378.289 383.638 367.387C387.965 357.984 391.22 346.04 390.613 335.679C390.388 331.819 389.315 326.706 388.7 322.819Z" fill="#7AA647"/>
<path d="M383.638 367.387C391.257 378.627 398.551 389.964 405.699 401.447C407.837 404.883 422.307 428.565 423.642 429.501C412.652 428.326 401.022 421.08 391.652 415.469C386.766 412.543 383.332 410.677 378.854 407.037C375.507 404.315 369.372 397.862 365.978 395.996C375.447 388.278 378.998 378.289 383.638 367.387Z" fill="#578543"/>
<path d="M136.727 375.565C143.876 380.82 154.57 383.67 163.241 384.821C162.486 384.863 162.757 384.947 162.092 385.146L162.389 385.423C159.358 392.811 153.198 403.441 149.264 410.573C143.804 420.58 138.463 430.653 133.242 440.789C131.817 443.571 128.151 449.365 127.508 451.935L126.789 451.911C126.677 451.77 126.428 451.484 126.415 451.309C125.39 438.156 124.714 425.513 126.31 412.373C127.906 399.238 132.779 387.941 136.727 375.565Z" fill="#7AA647"/>
<path d="M325.752 285.828C323.842 284.474 322.381 283.52 320.887 283C320.809 284.858 320.766 286.282 320.722 287.705C320.062 291.938 319.729 296.254 318.679 300.388C314.335 315.786 308.264 324.946 285.5 343C285.5 344 289.03 354.864 291.5 359C294.151 365.908 295.708 377.728 297 385.694C297.793 388.84 312.229 398.014 315.5 399C319.643 400.105 324.17 402.322 328.371 403C335.923 404.218 356.823 402.558 364 397C366.123 396.173 372.025 390.994 372.519 388.786C372.542 388.039 374.368 387.429 374 386.828C368.874 386.78 362.304 387.088 357.554 387.214C348.688 388.426 336.5 387 331.882 385.694C317.24 379.209 311.271 366.034 306.381 351.631C305.956 350.296 305.343 348.296 305.967 347.473C309.055 343.404 312.529 339.628 315.866 335.749L315.893 335.691C317.705 331.87 319.517 328.048 321.587 323.985C322.758 321.623 323.67 319.503 324.771 316.691C328.464 308.943 328.29 301.229 328.933 293.251C328.877 291.18 328.841 289.521 328.697 287.628C328.312 287.195 328.037 286.997 327.761 286.799L327.756 286.797C327.238 286.607 326.719 286.417 325.752 285.828Z" fill="#DF9E19"/>
<path d="M168.501 235C162.794 234.943 157.935 234.893 153.001 233.5C131.733 220.877 125.433 210.646 117.001 193.5C113.084 198.951 113.338 219.75 118.492 231.029C131.312 256.618 149.311 264.15 158 267C166.943 251.573 205.705 230.07 223.999 227.955C202.499 210 200.499 173.5 208.999 156.5L202.499 151.5C195.999 160 189.452 194.5 198.499 217.5C194.499 225.455 174.208 235.057 168.501 235Z" fill="#DF9E19"/>
<path d="M227.972 230.045C226.603 229.026 225.234 228.007 223.505 226.939C218.816 220.703 213.376 214.992 210.465 208.198C207.435 201.128 203.768 193.384 207.735 184.986C214.951 194.401 221.444 204.391 231.623 210.67C238.211 214.734 245.202 218.991 253.335 218.776C261.383 218.562 269.706 218.47 277.367 216.359C288.023 213.422 296.783 206.795 303.33 197.582C309.074 189.498 313.619 180.915 315.38 171.021C315.514 170.268 316.668 169.696 317.718 169C317.316 181.837 317.355 194.879 311.289 206.78C307.602 214.014 303.623 221.062 296.906 226.093C295.804 226.918 295.146 228.336 294.334 229.854C294.335 230.596 294.283 230.965 293.844 231.651C287.86 234.611 282.291 237.313 276.655 239.868C274.75 240.732 272.707 241.682 270.676 241.814C258.4 242.61 246.385 241.554 235.17 235.874C233.647 234.303 232.124 232.732 230.24 231.171C229.879 231.181 229.929 231.065 229.827 230.784C229.176 230.343 228.626 230.183 228.051 230.028C228.024 230.034 227.972 230.045 227.972 230.045Z" fill="#FDA51D"/>
</g>
<defs>
<clipPath id="clip0_35_734">
<rect width="471" height="491" fill="white"/>
</clipPath>
</defs>
</svg>
