<svg width="471" height="491" viewBox="0 0 471 491" fill="none" xmlns="http://www.w3.org/2000/svg">
<rect width="471" height="491" fill="#126E3D"/>
<path fill-rule="evenodd" clip-rule="evenodd" d="M258.338 0.0257597C258.594 10.4787 261.977 22.2859 264.369 32.4595C270.31 57.4361 277.559 81.7901 284.948 106.343C293.16 133.628 304.54 159.86 318.853 184.5C321.798 189.727 324.847 194.895 328 200L309.636 195.162C287.444 157.286 271.265 113.677 258.602 71.73L257.993 71.979C256.807 69.2085 256.28 66.4768 255.182 63.6441C254.838 66.8533 255.126 70.2114 253.706 72.8257C253.565 85.7601 252.162 98.6504 249.518 111.313C247.856 119.026 245.219 126.639 243.472 134.273C241.556 142.636 240.85 152.4 240.848 161.14L240.857 162.875C237.515 163.091 234.173 162.969 230.824 163.074C219.144 159.58 212.134 156.643 199.405 159.118L172 119.798C176.288 113.528 179.664 106.442 183.707 99.997L214 52.7387C219.163 44.7746 230.253 30.7551 232.656 22.1546C233.031 17.003 230.115 5.2927 228.446 0.10323C238.409 -1.546e-05 248.375 -0.0257679 258.338 0.0257597ZM215.228 106.37C226.451 92.4664 231.938 75.7573 235.632 58.5615L236.065 59.1784C236.555 63.6622 236.113 69.7051 236.317 74.3446C236.974 89.1863 235.249 102.487 231.217 116.762C229.225 123.829 226.689 130.838 224.779 138.04C224 135.55 223.28 132.473 222.613 129.912C220.788 121.248 219.241 114.369 215.228 106.37Z" fill="#7AA647"/>
<path d="M218.019 314.393C233.883 314.371 244.506 319.596 256.044 330.435C262.593 336.585 268.194 345.698 270.509 354.452C272.972 365.568 274.307 373.588 273.201 385.047C271.645 401.151 263.332 416.729 251.071 427.145C242.474 434.578 225.02 441.055 213.698 439.764C208.801 439.206 205.808 439.085 200.916 437.747C199.121 437.256 191.488 434.22 191.395 434.216C191.396 434.224 191.396 434.234 191.397 434.242C155.532 416.785 155.87 375.972 163.141 358.66L163.027 358.584C166.034 350.497 166.395 347.864 171.563 340.361C181.539 325.877 193.455 318.016 210.965 315.001C213.318 314.771 215.676 314.701 218.019 314.393ZM191.397 434.242C191.837 434.456 192.281 434.668 192.731 434.875C192.275 434.959 191.799 435.053 191.306 435.155C191.405 434.84 191.44 434.534 191.397 434.242Z" fill="#7AA647"/>
<path d="M305.393 156.723C319.769 150.016 331.605 150.278 346.636 155.243C355.168 158.06 364.088 163.963 369.876 170.925C376.795 179.968 381.386 186.678 385.214 197.535C390.59 212.795 389.618 230.425 382.89 245.039C378.226 255.403 365.128 268.633 354.317 272.235C349.641 273.793 346.876 274.945 341.876 275.793C340.041 276.105 331.839 276.568 331.753 276.604C331.758 276.611 331.761 276.62 331.766 276.627C291.885 275.913 274.989 238.76 274.286 219.996L274.15 219.975C273.468 211.374 272.686 208.835 274.21 199.853C277.151 182.513 284.644 170.362 299.252 160.248C301.289 159.048 303.398 157.989 305.393 156.723ZM331.766 276.627C332.255 276.636 332.747 276.641 333.243 276.639C332.864 276.907 332.473 277.193 332.069 277.493C332.025 277.165 331.928 276.874 331.766 276.627Z" fill="#7AA647"/>
<path d="M156.393 73.7231C170.769 67.0158 182.605 67.2775 197.636 72.2429C206.168 75.0596 215.088 80.9633 220.876 87.9253C227.795 96.968 232.386 103.678 236.214 114.535C241.59 129.795 240.618 147.425 233.89 162.039C229.226 172.403 216.128 185.633 205.317 189.235C200.641 190.793 197.876 191.945 192.876 192.793C191.041 193.105 182.839 193.568 182.753 193.604C182.758 193.611 182.761 193.62 182.766 193.627C142.885 192.913 125.989 155.76 125.286 136.996L125.15 136.975C124.468 128.374 123.686 125.835 125.21 116.853C128.151 99.5131 135.644 87.3621 150.252 77.2479C152.289 76.0475 154.398 74.9894 156.393 73.7231ZM182.766 193.627C183.255 193.636 183.747 193.641 184.243 193.639C183.864 193.907 183.473 194.193 183.069 194.493C183.025 194.165 182.928 193.874 182.766 193.627Z" fill="#608D40"/>
<path d="M262.256 277.043C274.548 267.013 286.086 264.363 301.876 265.489C310.838 266.126 320.934 269.661 328.253 274.99C337.179 282.059 343.276 287.437 349.651 297.023C358.607 310.498 361.989 327.828 359.053 343.646C357.075 354.837 347.622 370.876 338.026 377.021C333.875 379.678 331.477 381.473 326.838 383.523C325.135 384.275 317.298 386.736 317.224 386.792C317.23 386.798 317.235 386.806 317.242 386.811C278.404 395.904 252.909 364.032 247.624 346.014L247.487 346.027C244.716 337.856 243.335 335.586 242.608 326.505C241.206 308.974 245.488 295.356 257.168 281.967C258.848 280.303 260.633 278.76 262.256 277.043ZM317.242 386.811C317.718 386.7 318.196 386.584 318.677 386.46C318.375 386.813 318.066 387.186 317.748 387.577C317.625 387.27 317.46 387.01 317.242 386.811Z" fill="#DF9E19"/>
<path d="M150.156 146C165.988 147.023 176.243 152.938 187.041 164.514C193.171 171.082 198.158 180.545 199.891 189.432C201.616 200.686 202.419 208.777 200.561 220.138C197.946 236.105 188.624 251.1 175.703 260.686C166.635 267.536 148.791 272.847 137.579 270.813C132.73 269.934 129.751 269.616 124.958 267.958C123.199 267.35 115.783 263.816 115.691 263.807C115.691 263.815 115.69 263.824 115.691 263.833C81.0551 244.049 84.0827 203.347 92.4797 186.553L92.3703 186.469C95.904 178.598 96.4381 175.995 102.089 168.849C112.998 155.054 125.407 147.995 143.077 146.142C145.441 146.067 147.798 146.152 150.156 146ZM115.691 263.833C116.115 264.076 116.545 264.317 116.981 264.553C116.519 264.606 116.039 264.669 115.54 264.738C115.659 264.43 115.715 264.127 115.691 263.833Z" fill="#DF9E19"/>
<path d="M190.156 209C205.988 210.023 216.243 215.938 227.041 227.514C233.171 234.082 238.158 243.545 239.891 252.432C241.616 263.686 242.419 271.777 240.561 283.138C237.946 299.105 228.624 314.1 215.703 323.686C206.635 330.536 188.791 335.847 177.579 333.813C172.73 332.934 169.751 332.616 164.958 330.958C163.199 330.35 155.783 326.816 155.691 326.807C155.691 326.815 155.69 326.824 155.691 326.833C121.055 307.049 124.083 266.347 132.48 249.553L132.37 249.469C135.904 241.598 136.438 238.995 142.089 231.849C152.998 218.054 165.407 210.995 183.077 209.142C185.441 209.067 187.798 209.152 190.156 209ZM155.691 326.833C156.115 327.076 156.545 327.317 156.981 327.553C156.519 327.606 156.039 327.669 155.54 327.738C155.659 327.43 155.715 327.127 155.691 326.833Z" fill="#FDA51D"/>
<path d="M248.156 131C263.988 132.023 274.243 137.938 285.041 149.514C291.171 156.082 296.158 165.545 297.891 174.432C299.616 185.686 300.419 193.777 298.561 205.138C295.946 221.105 286.624 236.1 273.703 245.686C264.635 252.536 246.791 257.847 235.579 255.813C230.73 254.934 227.751 254.616 222.958 252.958C221.199 252.35 213.783 248.816 213.691 248.807C213.691 248.815 213.69 248.824 213.691 248.833C179.055 229.049 182.083 188.347 190.48 171.553L190.37 171.469C193.904 163.598 194.438 160.995 200.089 153.849C210.998 140.054 223.407 132.995 241.077 131.142C243.441 131.067 245.798 131.152 248.156 131ZM213.691 248.833C214.115 249.076 214.545 249.317 214.981 249.553C214.519 249.606 214.039 249.669 213.54 249.738C213.659 249.43 213.715 249.127 213.691 248.833Z" fill="#F2B721"/>
<path d="M254.199 216.008C270.043 215.198 280.911 219.891 292.973 230.144C299.819 235.962 305.864 244.786 308.61 253.414C311.621 264.395 313.352 272.338 312.817 283.838C312.061 300 304.53 315.97 292.801 326.982C284.583 334.832 267.471 342.166 256.1 341.439C251.181 341.124 248.185 341.152 243.233 340.058C241.416 339.656 233.642 337.002 233.549 337.003C233.551 337.011 233.55 337.021 233.552 337.029C196.866 321.372 195.179 280.592 201.584 262.941L201.465 262.87C204.068 254.644 204.298 251.997 209.087 244.247C218.333 229.286 229.845 220.844 247.183 216.965C249.522 216.618 251.874 216.431 254.199 216.008ZM233.552 337.029C234.002 337.221 234.456 337.411 234.916 337.595C234.464 337.701 233.994 337.819 233.507 337.946C233.59 337.625 233.61 337.319 233.552 337.029Z" fill="#FBD24F"/>
</svg>
