<svg width="1024" height="1024" viewBox="0 0 1024 1024" fill="none" xmlns="http://www.w3.org/2000/svg">
<path d="M68.3744 335.573C128.551 291.987 192.62 269.092 266.392 289.597C279.465 296.138 295.376 298.618 307.629 307.729C314.701 312.988 322.374 317.579 328.941 323.534C330.906 325.2 339.145 333.037 340.225 333.443C328.04 341.279 321.931 345.447 311.247 355.568C292.278 377.012 279.189 396.495 274.376 425.467C260.323 477.843 284.074 531.643 329.856 559.91C322.649 561.728 315.937 564.4 308.837 566.573C297.25 570.12 282.085 569.474 270.415 566.599C250.534 561.697 230.134 543.99 219.887 526.683C213.876 520.172 206.506 515.126 201.297 508.956C193.542 499.414 192.798 479.936 196.115 468.661C199.378 457.568 203.664 440.197 203.664 440.197C206 425.5 210 424 214.5 416C207 415.5 199.5 413.5 183.924 409.32C146.047 397.198 108.134 379.069 79.8618 350.588C77.0401 347.745 67.4491 340.265 67.0165 337.006C67.7182 335.892 67.3344 336.174 68.3744 335.573Z" fill="#608D40" style="fill:#608D40;fill:color(display-p3 0.3765 0.5529 0.2510);fill-opacity:1;"/>
<path d="M69.225 334.431C129.213 291.774 193.082 269.367 266.623 289.435C279.656 295.836 295.516 298.264 307.731 307.18C314.781 312.327 322.43 316.821 328.977 322.649C330.936 324.279 339.148 331.949 340.225 332.347C328.078 340.016 321.988 344.095 311.338 354C308.836 351.855 284.868 352.1 279.053 351.662L123.272 339.039C113.845 338.366 75.2136 337.662 69.225 334.431Z" fill="#7AA647" style="fill:#7AA647;fill:color(display-p3 0.4784 0.6510 0.2784);fill-opacity:1;"/>
<path d="M489.225 705C496.693 709.714 505.116 715.945 512.687 720.139C521.029 724.758 537.092 730.701 546.431 733.289C548.658 732.926 555.114 733.625 557.902 733.646C569.358 733.73 580.75 733.556 591.771 730.129C595.518 728.963 606.848 723.703 610.008 724.16L611.659 727.021C613.357 729.882 619.063 739.399 620.206 742.449C625.059 755.383 628.15 771.761 631.206 785.42C632.867 792.853 632.348 801.845 635.225 809.394C633.973 812.207 634.444 832.344 634.224 837.189C633.234 859.257 631.808 880.606 627.165 902.286C626.662 904.643 626.238 909.462 625.011 910.963L624.87 911C620.001 908.475 614.462 907.457 608.42 903.714C602.414 900.003 588.239 889.042 582.417 886.617L581.484 887.583C580.614 882.533 544.691 854.685 538.905 847.173C517.796 819.761 501.288 792.386 493.948 758.097C493.431 755.682 490.36 734.984 490.03 734.443C489.708 724.769 489.224 714.648 489.225 705Z" fill="#578543" style="fill:#578543;fill:color(display-p3 0.3412 0.5216 0.2627);fill-opacity:1;"/>
<path d="M547.225 733.163C549.432 732.801 555.831 733.499 558.594 733.52C569.947 733.604 581.238 733.431 592.16 730.001C595.873 728.835 607.102 723.571 610.233 724.028L611.869 726.891C613.552 729.754 619.208 739.278 620.34 742.33C625.149 755.273 628.214 771.663 631.242 785.331C632.888 792.769 632.374 801.768 635.225 809.322C633.984 812.137 634.451 832.288 634.233 837.137C633.251 859.221 631.839 880.585 627.237 902.28C626.739 904.638 626.318 909.461 625.103 910.963L624.963 911C623.472 902.989 617.749 894.684 614.575 886.92C610.156 876.109 605.336 865.445 600.662 854.761L566.145 775.177C562.068 765.643 558.822 755.783 554.486 746.29C552.226 741.347 549.593 738.048 547.443 733.625L547.225 733.163Z" fill="#7AA647" style="fill:#7AA647;fill:color(display-p3 0.4784 0.6510 0.2784);fill-opacity:1;"/>
<path d="M677.225 568.383C681.019 566.827 696.337 570.481 701.593 571.008C712.346 572.094 723.252 573.477 734.021 574.61C754.563 578.431 776.122 580.649 796.534 583.974C825.476 588.687 854.43 594.857 883.462 597.791C890.882 598.537 942.898 609.238 945.225 610.96C912.231 632.904 873.646 646.601 834.175 651.846C829.276 652.499 806.684 651.987 804.426 653C796.009 651.846 787.4 651.184 779.052 649.727C753.976 645.604 730.337 635.284 710.292 619.719C704.48 615.183 698.826 610.443 693.339 605.521C690.384 602.864 686.443 598.563 683.168 596.632C681.596 587.487 678.923 577.893 677.225 568.383Z" fill="#7AA647" style="fill:#7AA647;fill:color(display-p3 0.4784 0.6510 0.2784);fill-opacity:1;"/>
<path d="M677.011 568.254C680.288 570.888 700.521 571.024 705.842 572.035C716.731 574.097 727.855 575.911 738.773 577.931C760.082 580.151 781.924 584.244 802.959 586.914C832.787 590.701 862.93 593.398 892.328 598.962C899.84 600.388 947.556 611.509 950.345 610.492C924.295 579.308 897.006 547.762 859.727 531.116C855.1 529.048 832.74 522.977 830.814 521.323C822.204 520.009 813.546 518.155 804.914 517.158C779.06 513.916 752.814 517.185 728.576 526.66C721.541 529.43 714.602 532.446 707.775 535.69C704.096 537.443 675.798 552.317 672.016 553.263C674.014 558.26 676.01 561.258 677.011 568.254Z" fill="#578543" style="fill:#578543;fill:color(display-p3 0.3412 0.5216 0.2627);fill-opacity:1;"/>
</svg>
