<svg width="1024" height="1024" viewBox="0 0 1024 1024" fill="none" xmlns="http://www.w3.org/2000/svg">
<path fill-rule="evenodd" clip-rule="evenodd" d="M539.164 0.0537754C539.698 21.875 546.759 46.5236 551.752 67.7617C564.151 119.902 579.278 170.743 594.7 221.998C611.839 278.959 635.589 333.72 665.462 385.159C671.608 396.07 677.972 406.857 684.552 417.515L646.225 407.416C599.91 328.346 566.144 237.31 539.715 149.742L538.445 150.262C535.968 144.478 534.869 138.775 532.578 132.862C531.858 139.561 532.461 146.572 529.496 152.029C529.202 179.031 526.275 205.94 520.756 232.375C517.288 248.476 511.785 264.369 508.139 280.306C504.14 297.763 502.665 318.147 502.662 336.393L502.68 340.014C495.705 340.465 488.731 340.21 481.741 340.43C457.365 333.135 442.734 327.004 416.167 332.171L358.972 250.086C367.921 236.998 374.968 222.205 383.406 208.751L446.629 110.096C457.404 93.4705 480.548 64.2036 485.565 46.2494C486.347 35.4952 480.262 11.0489 476.779 0.2155C497.571 -3.22738e-05 518.372 -0.0537925 539.164 0.0537754ZM449.191 222.056C472.615 193.031 484.065 158.149 491.776 122.252L492.68 123.54C493.701 132.9 492.78 145.515 493.205 155.2C494.576 186.183 490.976 213.949 482.561 243.75C478.404 258.502 473.111 273.135 469.124 288.17C467.499 282.971 465.997 276.548 464.604 271.2C460.795 253.115 457.567 238.755 449.191 222.056Z" fill="#7AA647" style="fill:#7AA647;fill:color(display-p3 0.4784 0.6510 0.2784);fill-opacity:1;"/>
<path d="M326.399 153.903C356.404 139.901 381.105 140.447 412.477 150.813C430.282 156.693 448.898 169.017 460.979 183.551C475.42 202.428 485.001 216.436 492.989 239.101C504.211 270.958 502.181 307.762 488.139 338.269C478.407 359.905 451.069 387.523 428.507 395.043C418.748 398.295 412.976 400.7 402.541 402.471C398.711 403.121 381.594 404.089 381.415 404.163C381.425 404.178 381.432 404.197 381.442 404.212C298.208 402.721 262.944 325.161 261.478 285.991L261.194 285.947C259.771 267.991 258.139 262.69 261.319 243.939C267.458 207.741 283.096 182.375 313.583 161.261C317.834 158.755 322.236 156.546 326.399 153.903ZM381.442 404.212C382.462 404.23 383.49 404.241 384.525 404.236C383.733 404.796 382.917 405.393 382.074 406.02C381.983 405.335 381.781 404.726 381.442 404.212Z" fill="#608D40" style="fill:#608D40;fill:color(display-p3 0.3765 0.5529 0.2510);fill-opacity:1;"/>
</svg>
