<svg width="1024" height="1024" viewBox="0 0 1024 1024" fill="none" xmlns="http://www.w3.org/2000/svg">
<path d="M455.016 656.32C488.126 656.272 510.296 667.182 534.377 689.808C548.045 702.647 559.734 721.672 564.565 739.944C569.705 763.151 572.491 779.893 570.185 803.814C566.937 837.434 549.587 869.953 523.998 891.698C506.056 907.215 469.627 920.735 445.998 918.042C435.778 916.877 429.531 916.624 419.322 913.831C415.575 912.805 399.645 906.467 399.451 906.459C399.454 906.477 399.452 906.496 399.454 906.514C324.604 870.071 325.308 784.869 340.484 748.731L340.245 748.571C346.521 731.689 347.275 726.194 358.06 710.53C378.88 680.293 403.75 663.883 440.294 657.589C445.205 657.109 450.127 656.962 455.016 656.32ZM399.454 906.514C400.372 906.96 401.299 907.403 402.24 907.835C401.286 908.01 400.294 908.207 399.266 908.42C399.471 907.761 399.545 907.123 399.454 906.514Z" fill="#7AA647" style="fill:#7AA647;fill:color(display-p3 0.4784 0.6510 0.2784);fill-opacity:1;"/>
<path d="M637.369 327.172C667.374 313.17 692.076 313.716 723.447 324.082C741.252 329.962 759.869 342.286 771.949 356.82C786.39 375.697 795.971 389.705 803.96 412.369C815.181 444.226 813.151 481.03 799.109 511.537C789.377 533.174 762.039 560.792 739.477 568.312C729.718 571.564 723.946 573.969 713.512 575.74C709.682 576.39 692.565 577.358 692.386 577.432C692.396 577.447 692.402 577.465 692.412 577.48C609.178 575.99 573.914 498.429 572.448 459.26L572.164 459.215C570.741 441.26 569.109 435.959 572.289 417.208C578.428 381.01 594.066 355.644 624.553 334.53C628.804 332.024 633.206 329.815 637.369 327.172ZM692.412 577.48C693.432 577.499 694.46 577.509 695.495 577.505C694.704 578.065 693.887 578.662 693.044 579.289C692.953 578.604 692.751 577.995 692.412 577.48Z" fill="#7AA647" style="fill:#7AA647;fill:color(display-p3 0.4784 0.6510 0.2784);fill-opacity:1;"/>
<path d="M313.384 304.786C346.425 306.922 367.827 319.27 390.364 343.435C403.156 357.147 413.566 376.901 417.182 395.453C420.781 418.948 422.458 435.838 418.58 459.554C413.123 492.887 393.668 524.191 366.701 544.201C347.775 558.502 310.535 569.59 287.135 565.344C277.013 563.508 270.796 562.843 260.794 559.383C257.122 558.113 241.645 550.737 241.452 550.717C241.454 550.735 241.45 550.754 241.452 550.772C169.166 509.472 175.485 424.502 193.01 389.443L192.781 389.268C200.156 372.836 201.271 367.403 213.065 352.485C235.833 323.686 261.73 308.952 298.609 305.082C303.541 304.927 308.463 305.104 313.384 304.786ZM241.452 550.772C242.338 551.278 243.234 551.781 244.144 552.274C243.181 552.386 242.179 552.517 241.138 552.662C241.387 552.017 241.502 551.386 241.452 550.772Z" fill="#578543" style="fill:#578543;fill:color(display-p3 0.3412 0.5216 0.2627);fill-opacity:1;"/>
</svg>
