<svg width="1024" height="1024" viewBox="0 0 1024 1024" fill="none" xmlns="http://www.w3.org/2000/svg">
<path d="M547.342 578.348C572.995 557.411 597.075 551.878 630.031 554.228C648.733 555.559 669.804 562.938 685.081 574.063C703.71 588.819 716.434 600.047 729.738 620.059C748.43 648.188 755.49 684.366 749.36 717.386C745.233 740.75 725.505 774.233 705.477 787.059C696.814 792.608 691.808 796.355 682.127 800.633C678.573 802.203 662.217 807.342 662.062 807.458C662.075 807.47 662.086 807.486 662.099 807.498C581.044 826.479 527.833 759.944 516.804 722.331L516.518 722.358C510.734 705.301 507.852 700.562 506.335 681.604C503.408 645.006 512.346 616.577 536.722 588.627C540.229 585.154 543.954 581.933 547.342 578.348ZM662.099 807.498C663.093 807.266 664.092 807.024 665.094 806.765C664.464 807.503 663.819 808.281 663.155 809.096C662.899 808.455 662.554 807.914 662.099 807.498Z" fill="#9EC361" style="fill:#9EC361;fill:color(display-p3 0.6196 0.7647 0.3804);fill-opacity:1;"/>
<path d="M396.866 436.304C429.907 438.44 451.309 450.788 473.846 474.952C486.638 488.664 497.048 508.419 500.664 526.971C504.263 550.466 505.94 567.355 502.062 591.072C496.605 624.404 477.149 655.709 450.183 675.719C431.257 690.019 394.016 701.107 370.617 696.861C360.495 695.025 354.278 694.361 344.276 690.9C340.604 689.63 325.127 682.255 324.934 682.234C324.936 682.252 324.932 682.271 324.934 682.289C252.648 640.989 258.967 556.02 276.492 520.961L276.263 520.785C283.638 504.354 284.753 498.92 296.547 484.002C319.315 455.204 345.212 440.469 382.091 436.599C387.023 436.444 391.945 436.622 396.866 436.304ZM324.934 682.289C325.82 682.795 326.716 683.299 327.626 683.792C326.663 683.903 325.66 684.034 324.62 684.179C324.869 683.534 324.984 682.903 324.934 682.289Z" fill="#99BB62" style="fill:#99BB62;fill:color(display-p3 0.6018 0.7343 0.3835);fill-opacity:1;"/>
<path d="M517.915 273.473C550.955 275.609 572.358 287.956 594.895 312.121C607.687 325.833 618.097 345.588 621.713 364.14C625.312 387.635 626.989 404.524 623.111 428.241C617.654 461.573 598.198 492.878 571.232 512.887C552.306 527.188 515.065 538.276 491.665 534.03C481.544 532.194 475.327 531.53 465.325 528.069C461.653 526.799 446.175 519.424 445.983 519.403C445.984 519.421 445.981 519.44 445.983 519.458C373.697 478.158 380.015 393.189 397.54 358.13L397.312 357.954C404.687 341.523 405.802 336.089 417.596 321.171C440.364 292.373 466.261 277.638 503.14 273.768C508.072 273.613 512.993 273.791 517.915 273.473ZM445.983 519.458C446.869 519.964 447.765 520.468 448.675 520.961C447.712 521.072 446.709 521.203 445.669 521.348C445.917 520.703 446.033 520.072 445.983 519.458Z" fill="#99BB34" style="fill:#99BB34;fill:color(display-p3 0.6000 0.7333 0.2039);fill-opacity:1;"/>
</svg>
