<svg width="1024" height="1024" viewBox="0 0 1024 1024" fill="none" xmlns="http://www.w3.org/2000/svg">
<path d="M530.526 450.932C563.592 449.243 586.276 459.039 611.448 480.443C625.736 492.588 638.354 511.01 644.085 529.021C650.369 551.944 653.982 568.527 652.864 592.533C651.286 626.273 635.57 659.612 611.091 682.6C593.939 698.988 558.226 714.298 534.493 712.78C524.227 712.123 517.975 712.18 507.64 709.897C503.847 709.059 487.622 703.518 487.428 703.52C487.432 703.537 487.431 703.557 487.435 703.574C410.869 670.888 407.349 585.757 420.715 548.91L420.468 548.762C425.899 531.59 426.38 526.064 436.375 509.885C455.671 478.652 479.697 461.029 515.884 452.93C520.765 452.207 525.674 451.816 530.526 450.932ZM487.435 703.574C488.373 703.975 489.321 704.371 490.282 704.756C489.338 704.978 488.357 705.223 487.341 705.488C487.513 704.819 487.555 704.178 487.435 703.574Z" fill="#D3ED60" style="fill:#D3ED60;fill:color(display-p3 0.8275 0.9294 0.3765);fill-opacity:1;"/>
</svg>
